<svg width="337" height="33" viewBox="0 0 337 33" xmlns="http://www.w3.org/2000/svg"><g id="Symbols" stroke="none" stroke-width="1" fill="none" fill-rule="evenodd"><g id="Header-/-Screen-XL-(1280+)-/-Default" transform="translate(-120 -65)"><g id="Logo-&amp;-Controls" transform="translate(120 60)"><g id="Group" transform="translate(0 5)"><g id="Logo-/-Default"><g id="detmir_txt_logo" stroke-width="1" transform="translate(122)" fill="#0073E6"><path d="M5.397 27.552c0 .42-.138.769-.414 1.048-.276.28-.62.419-1.035.419H1.5c-.414 0-.759-.14-1.034-.419a1.43 1.43 0 0 1-.414-1.048v-6.355c0-.42.138-.768.414-1.048.275-.28.62-.419 1.034-.419h.759c.327-.436.62-.978.879-1.589.259-.628.465-1.292.655-2.043.173-.733.328-1.501.448-2.287.121-.786.19-1.571.242-2.34l.155-2.287c.017-.419.19-.768.483-1.047.293-.28.638-.42 1.051-.42h10.759c.414 0 .759.14 1.035.42.275.279.413.628.413 1.047V19.73h1.414c.414 0 .759.14 1.035.42.275.279.413.628.413 1.047v6.355c0 .42-.138.769-.413 1.048-.276.28-.621.419-1.035.419h-2.448c-.414 0-.759-.14-1.035-.419a1.43 1.43 0 0 1-.413-1.048v-2.41h-10.5v2.41Zm7.24-14.422H10.07L10 13.83c-.172 1.466-.414 2.688-.724 3.649-.31.96-.638 1.71-1 2.252h4.362v-6.6ZM28.724 18.35c.276.821.793 1.433 1.517 1.817.725.384 1.57.576 2.518.576.638 0 1.207-.035 1.69-.122.482-.07.965-.21 1.413-.384.276-.105.569-.158.845-.158.62 0 1.052.28 1.345.821l.62 1.24c.104.21.156.436.156.698 0 .576-.225.995-.69 1.275-1.104.628-2.104 1.012-3.035 1.204-.913.175-1.896.28-2.948.28-1.43 0-2.724-.227-3.862-.664a8.233 8.233 0 0 1-2.93-1.868c-.811-.803-1.432-1.763-1.88-2.916-.449-1.135-.673-2.392-.673-3.754 0-1.274.224-2.462.673-3.562a8.965 8.965 0 0 1 1.88-2.933 8.468 8.468 0 0 1 2.93-1.973c1.155-.471 2.431-.716 3.862-.716 1.104 0 2.155.192 3.155.576 1 .384 1.897.943 2.656 1.676a8.328 8.328 0 0 1 1.844 2.602c.466 1.013.69 2.13.69 3.37 0 .698-.034 1.275-.12 1.746-.052.28-.208.541-.483.803-.276.245-.535.367-.828.367H28.724Zm6.017-3.875c0-.594-.241-1.153-.707-1.642-.465-.506-1.172-.75-2.086-.75-.965 0-1.707.21-2.224.628-.517.42-.914 1.013-1.19 1.781h6.207v-.017Z" id="Shape" fill-rule="nonzero"/><path d="M48.448 25.143c-.414 0-.758-.14-1.034-.42A1.43 1.43 0 0 1 47 23.677V13.514h-3.517c-.414 0-.759-.14-1.035-.419a1.43 1.43 0 0 1-.414-1.047V9.184c0-.419.138-.768.414-1.047.276-.28.621-.42 1.035-.42h12.793c.414 0 .758.14 1.034.42.276.279.414.628.414 1.047v2.864c0 .419-.138.768-.414 1.047-.276.28-.62.42-1.034.42h-3.517v10.161c0 .42-.138.768-.414 1.048-.276.28-.62.419-1.035.419h-2.862ZM71.672 13.357c-.913-.471-1.793-.698-2.638-.698-.465 0-.913.07-1.344.227a3.807 3.807 0 0 0-1.19.716 3.74 3.74 0 0 0-.862 1.187c-.224.471-.328 1.013-.328 1.624 0 .593.121 1.117.345 1.589.224.471.517.855.88 1.187.362.332.758.576 1.206.733.449.175.897.245 1.362.245.897 0 1.794-.28 2.69-.856.328-.227.69-.35 1.07-.35.482 0 .878.21 1.189.63l1.19 1.588c.206.28.31.594.31.926 0 .524-.207.925-.621 1.24-1.155.925-2.241 1.536-3.259 1.815-1.017.28-2 .42-2.913.42-1.449 0-2.776-.228-3.966-.664a8.674 8.674 0 0 1-3.034-1.868 8.064 8.064 0 0 1-1.914-2.916c-.448-1.135-.673-2.392-.673-3.754a9.68 9.68 0 0 1 .656-3.562 8.65 8.65 0 0 1 1.862-2.933 8.658 8.658 0 0 1 2.896-1.973c1.12-.472 2.362-.716 3.707-.716 1.155 0 2.19.104 3.104.314.913.21 1.896.646 2.913 1.327.57.367.845.82.845 1.362 0 .262-.069.506-.224.733l-1.103 1.868c-.31.524-.742.769-1.31.769a1.422 1.422 0 0 1-.846-.21ZM84.534 16.814v6.862c0 .42-.137.768-.413 1.048-.276.28-.621.419-1.035.419H80.26c-.414 0-.759-.14-1.035-.42a1.43 1.43 0 0 1-.414-1.047V9.166c0-.418.138-.768.414-1.047.276-.28.62-.419 1.035-.419h2.827c.414 0 .759.14 1.035.419.276.28.413.629.413 1.048v6.128l4.449-6.635a2.38 2.38 0 0 1 .793-.698c.327-.175.655-.28 1.017-.28h2.69c.43 0 .793.158 1.069.472.276.314.414.663.414 1.048 0 .314-.104.61-.31.89l-4.053 5.43 1.88 2.602c.707.96 1.396 1.519 2.069 1.676.586.122.982.332 1.172.576.19.262.293.681.293 1.275v2.374c0 .315-.12.594-.345.856-.224.262-.5.419-.81.471-.207.018-.396.053-.569.053-.172.017-.362.017-.569.017-.465 0-.93-.052-1.43-.157-.5-.105-1-.297-1.5-.559-.5-.279-1-.646-1.5-1.152-.5-.489-1-1.117-1.518-1.903l-3.242-4.837ZM112.569 25.143c-.414 0-.759-.14-1.035-.42a1.43 1.43 0 0 1-.413-1.047V16.03l-5.483 8.154c-.207.279-.448.523-.707.698-.276.175-.586.28-.931.28h-3.293c-.414 0-.759-.14-1.035-.42a1.43 1.43 0 0 1-.413-1.047V9.184c0-.419.138-.768.413-1.047.276-.28.621-.42 1.035-.42h2.827c.414 0 .76.14 1.035.42.276.279.414.628.414 1.047v7.648l5.483-8.154c.206-.28.43-.524.69-.699.258-.174.568-.279.913-.279h3.328c.413 0 .758.14 1.034.419.276.28.414.629.414 1.048v14.51c0 .418-.138.767-.414 1.047-.276.28-.62.419-1.034.419h-2.828Z" id="Path"/><path d="M134.414 25.143c-.414 0-.759-.14-1.035-.42a1.43 1.43 0 0 1-.413-1.047V16.03l-5.483 8.154c-.207.279-.449.523-.707.698-.276.175-.586.28-.931.28h-3.293c-.414 0-.759-.14-1.035-.42a1.43 1.43 0 0 1-.414-1.047V9.184c0-.419.138-.768.414-1.047.276-.28.62-.42 1.035-.42h2.827c.414 0 .759.14 1.035.42.276.279.414.628.414 1.047v7.648l5.482-8.154c.207-.28.431-.524.69-.699.259-.174.569-.279.914-.279h3.327c.414 0 .759.14 1.035.419.276.28.414.629.414 1.048v14.51c0 .418-.138.767-.414 1.047-.276.28-.62.419-1.035.419h-2.827Zm-.845-25.09c.759 0 1.345.226 1.741.663.397.436.587 1.013.587 1.711 0 1.013-.5 1.868-1.483 2.567-.983.698-2.448 1.047-4.38 1.047-2.137 0-3.69-.349-4.62-1.047-.931-.699-1.397-1.554-1.397-2.567 0-.698.19-1.275.57-1.711.379-.437.965-.664 1.723-.664.656 0 1.156.14 1.449.42.31.279.517.628.655 1.047.12.35.31.646.534.873.224.227.586.332 1.07.332.43 0 .758-.105.965-.332.207-.227.362-.524.5-.873a2.13 2.13 0 0 1 .655-1.048c.31-.279.793-.419 1.431-.419Z" id="Shape" fill-rule="nonzero"/><path d="M156.328 23.676c0 .42-.138.768-.414 1.048-.276.28-.62.419-1.035.419h-2.827c-.414 0-.759-.14-1.035-.42a1.43 1.43 0 0 1-.414-1.047V9.166c0-.418.138-.768.414-1.047.276-.28.62-.419 1.035-.419h2.724c.655 0 1.258.297 1.758.89l4.397 5.047 4.052-5.012c.224-.279.483-.506.758-.68.276-.175.604-.245.966-.245h2.569c.414 0 .758.14 1.034.419.276.28.414.629.414 1.048v14.51c0 .418-.138.767-.414 1.047-.276.28-.62.419-1.034.419h-2.828c-.414 0-.758-.14-1.034-.42a1.43 1.43 0 0 1-.414-1.047V16.57l-3.276 3.736c-.276.315-.62.472-1 .472s-.707-.14-1-.42l-3.414-3.753v7.071h.018ZM188.259 25.143c-.414 0-.759-.14-1.035-.42a1.43 1.43 0 0 1-.414-1.047V16.03l-5.482 8.154c-.207.279-.449.523-.707.698-.276.175-.587.28-.931.28h-3.293c-.414 0-.76-.14-1.035-.42a1.43 1.43 0 0 1-.414-1.047V9.184c0-.419.138-.768.414-1.047.276-.28.62-.42 1.035-.42h2.827c.414 0 .759.14 1.035.42.275.279.413.628.413 1.047v7.648l5.483-8.154c.207-.28.431-.524.69-.699.258-.174.569-.279.914-.279h3.327c.414 0 .759.14 1.035.419.276.28.413.629.413 1.048v14.51c0 .418-.137.767-.413 1.047-.276.28-.621.419-1.035.419h-2.827Z" id="Path"/><path d="M202.517 31.429c0 .419-.138.768-.414 1.047-.275.28-.62.42-1.034.42h-2.828c-.413 0-.758-.14-1.034-.42a1.43 1.43 0 0 1-.414-1.047V9.167c0-.42.138-.769.414-1.048.276-.28.62-.419 1.034-.419h3.035a1.2 1.2 0 0 1 .896.367c.242.244.362.54.362.908.483-.472 1.138-.873 1.949-1.223.81-.349 1.758-.523 2.827-.523 1.156 0 2.207.227 3.156.663a6.62 6.62 0 0 1 2.43 1.868c.656.803 1.173 1.746 1.552 2.829.362 1.082.552 2.27.552 3.562 0 1.327-.224 2.549-.672 3.701a9.095 9.095 0 0 1-1.88 3.004c-.81.855-1.776 1.519-2.914 2.025-1.137.489-2.413.733-3.81.733-.586 0-1.172-.052-1.741-.14a6.3 6.3 0 0 1-1.483-.401v6.356h.017Zm0-11.908c.431.262.845.436 1.207.523.362.088.862.14 1.483.14 1.259 0 2.172-.384 2.776-1.152.603-.769.896-1.694.896-2.776 0-1.013-.293-1.869-.862-2.567-.569-.699-1.414-1.048-2.517-1.048-1.069 0-2.069.524-2.983 1.554v5.326Z" id="Shape" fill-rule="nonzero"/></g><g id="Logo-/-Cubes" transform="translate(0 5)"><path d="M106.077 15.624c-1.054 2.888-2.125 4.997-2.953 6.41-.853 1.452-2.517 2.214-4.15 1.894-1.563-.305-3.807-.867-6.69-1.898-2.88-1.03-4.967-2.02-6.365-2.772a3.88 3.88 0 0 1-1.97-4.082c.275-1.614.813-3.911 1.867-6.8 1.055-2.89 2.125-4.997 2.954-6.41.852-1.451 2.516-2.213 4.15-1.894 1.561.305 3.804.867 6.685 1.896 2.883 1.033 4.97 2.02 6.37 2.775a3.88 3.88 0 0 1 1.968 4.081c-.274 1.613-.812 3.912-1.866 6.8Z" id="Cube" fill="#00C2FC"/><path d="M78.08 8.334c1.066 2.878 1.614 5.172 1.896 6.78a3.874 3.874 0 0 1-1.947 4.085c-1.394.76-3.474 1.756-6.348 2.8-2.87 1.042-5.108 1.612-6.665 1.925-1.63.327-3.295-.425-4.153-1.87-.836-1.409-1.913-3.509-2.98-6.387-1.065-2.881-1.613-5.172-1.895-6.78A3.875 3.875 0 0 1 57.935 4.8c1.392-.758 3.472-1.754 6.342-2.798C67.152.96 69.39.389 70.95.075c1.629-.326 3.295.428 4.151 1.872.836 1.407 1.915 3.508 2.98 6.387Z" id="Cube" fill="#00A743"/><path d="M50.148 15.624c-1.053 2.888-2.124 4.997-2.953 6.41-.852 1.452-2.517 2.214-4.15 1.894-1.563-.305-3.806-.867-6.69-1.898-2.88-1.03-4.967-2.02-6.365-2.772a3.88 3.88 0 0 1-1.97-4.082c.275-1.614.814-3.911 1.867-6.8 1.056-2.89 2.125-4.997 2.954-6.41.853-1.451 2.516-2.213 4.15-1.894 1.562.305 3.804.867 6.686 1.896 2.882 1.033 4.97 2.02 6.37 2.775a3.88 3.88 0 0 1 1.968 4.081c-.274 1.613-.812 3.912-1.867 6.8Z" id="Cube" fill="#FABC22"/><path d="M22.151 8.334c1.066 2.878 1.614 5.172 1.897 6.78a3.874 3.874 0 0 1-1.948 4.085c-1.393.76-3.474 1.756-6.347 2.8-2.871 1.042-5.109 1.612-6.666 1.925-1.63.327-3.295-.425-4.152-1.87-.836-1.409-1.914-3.509-2.98-6.387C.89 12.786.341 10.495.06 8.887A3.875 3.875 0 0 1 2.007 4.8c1.392-.758 3.471-1.754 6.342-2.798C11.224.96 13.46.389 15.02.075c1.628-.326 3.295.428 4.15 1.872.836 1.407 1.915 3.508 2.98 6.387Z" id="Cube" fill="#F72A16"/></g></g></g></g></g></g></svg>