<?xml version="1.0" encoding="utf-8"?>
<!-- Generator: Adobe Illustrator 14.0.0, SVG Export Plug-In . SVG Version: 6.00 Build 43363)  -->
<!DOCTYPE svg PUBLIC "-//W3C//DTD SVG 1.1//EN" "http://www.w3.org/Graphics/SVG/1.1/DTD/svg11.dtd">
<svg version="1.1" id="Layer_1" xmlns="http://www.w3.org/2000/svg" xmlns:xlink="http://www.w3.org/1999/xlink" x="0px" y="0px"
	 width="298px" height="79.999px" viewBox="0 0 298 79.999" enable-background="new 0 0 298 79.999" xml:space="preserve">
<g>
	
		<linearGradient id="SVGID_1_" gradientUnits="userSpaceOnUse" x1="138.2852" y1="573.7988" x2="138.2852" y2="500.1359" gradientTransform="matrix(0.9966 -0.082 0.082 0.9966 -141.7219 -482.2932)">
		<stop  offset="0.339" style="stop-color:#578B1E"/>
		<stop  offset="0.4365" style="stop-color:#A4CB00"/>
		<stop  offset="0.7895" style="stop-color:#CCE781"/>
		<stop  offset="0.9886" style="stop-color:#E4F2BC"/>
	</linearGradient>
	<circle fill="url(#SVGID_1_)" cx="40" cy="40" r="39.998"/>
	<g>
		
			<linearGradient id="SVGID_2_" gradientUnits="userSpaceOnUse" x1="-4550.7363" y1="-4439.2324" x2="-4550.7363" y2="-4502.4912" gradientTransform="matrix(-1 0.0051 -0.0051 -1 -4533.5132 -4402.8555)">
			<stop  offset="0" style="stop-color:#A8CE28"/>
			<stop  offset="0.339" style="stop-color:#578B1E"/>
			<stop  offset="0.4365" style="stop-color:#A4CB00"/>
			<stop  offset="0.7549" style="stop-color:#E7E9A3"/>
			<stop  offset="1" style="stop-color:#F8F8E4"/>
		</linearGradient>
		<circle fill-rule="evenodd" clip-rule="evenodd" fill="url(#SVGID_2_)" cx="40.001" cy="40" r="37.97"/>
		<circle fill="none" stroke="#ADC22D" stroke-width="0.183" stroke-miterlimit="10" cx="40.001" cy="40" r="37.97"/>
	</g>
	<radialGradient id="SVGID_3_" cx="40.0371" cy="39.998" r="34.1191" gradientUnits="userSpaceOnUse">
		<stop  offset="0.2" style="stop-color:#BBD23E"/>
		<stop  offset="0.429" style="stop-color:#B8D03D"/>
		<stop  offset="0.5668" style="stop-color:#B0CB39"/>
		<stop  offset="0.6804" style="stop-color:#A2C132"/>
		<stop  offset="0.7809" style="stop-color:#8DB429"/>
		<stop  offset="0.8726" style="stop-color:#73A21C"/>
		<stop  offset="0.9569" style="stop-color:#538D0D"/>
		<stop  offset="1" style="stop-color:#408004"/>
	</radialGradient>
	<circle fill="url(#SVGID_3_)" cx="40.037" cy="39.997" r="34.119"/>
</g>
<g>
	<path fill="#1A171B" d="M101.363,14.035c0,0.031-0.008,0.063-0.027,0.085c-0.02,0.026-0.057,0.049-0.107,0.063
		c-0.059,0.019-0.125,0.03-0.215,0.043c-0.09,0.004-0.199,0.008-0.334,0.008c-0.16,0-0.283-0.004-0.383-0.017
		c-0.102-0.009-0.179-0.024-0.242-0.046c-0.061-0.02-0.102-0.048-0.134-0.074c-0.026-0.031-0.048-0.066-0.062-0.107l-0.808-1.967
		c-0.097-0.252-0.204-0.469-0.319-0.653c-0.115-0.183-0.248-0.332-0.398-0.438c-0.152-0.117-0.322-0.195-0.516-0.246
		c-0.188-0.054-0.405-0.074-0.651-0.074h-0.591v3.418c0,0.027-0.016,0.053-0.041,0.082c-0.028,0.029-0.066,0.053-0.126,0.066
		c-0.058,0.018-0.132,0.032-0.226,0.041c-0.088,0.014-0.188,0.018-0.309,0.018s-0.227-0.004-0.314-0.018
		c-0.094-0.009-0.164-0.023-0.223-0.041c-0.054-0.015-0.097-0.037-0.126-0.066c-0.022-0.029-0.034-0.059-0.034-0.082V6.309
		c0-0.027,0.012-0.056,0.034-0.076c0.029-0.026,0.072-0.051,0.126-0.063c0.059-0.019,0.129-0.034,0.223-0.043
		c0.09-0.007,0.193-0.011,0.314-0.011c0.12,0,0.221,0.004,0.309,0.011c0.094,0.009,0.168,0.024,0.226,0.043
		c0.06,0.013,0.098,0.037,0.126,0.063c0.025,0.021,0.041,0.049,0.041,0.078v3.192h0.591c0.207,0,0.405-0.022,0.578-0.073
		c0.179-0.049,0.34-0.125,0.483-0.234c0.146-0.113,0.276-0.252,0.389-0.432c0.115-0.173,0.223-0.385,0.318-0.633l0.701-1.756
		c0.01-0.043,0.028-0.083,0.059-0.115c0.025-0.035,0.07-0.061,0.125-0.082c0.057-0.025,0.133-0.044,0.227-0.053
		c0.092-0.007,0.215-0.01,0.367-0.01c0.131,0,0.244,0.003,0.332,0.01c0.084,0.009,0.154,0.025,0.204,0.043
		c0.044,0.014,0.075,0.037,0.093,0.063c0.02,0.021,0.027,0.049,0.027,0.078c0,0.053-0.004,0.105-0.018,0.162
		c-0.021,0.057-0.037,0.119-0.07,0.195l-0.721,1.671c-0.111,0.282-0.234,0.521-0.365,0.71c-0.133,0.189-0.266,0.354-0.401,0.479
		c-0.13,0.131-0.271,0.226-0.412,0.302c-0.14,0.063-0.269,0.12-0.401,0.161v0.019c0.195,0.065,0.377,0.146,0.543,0.241
		c0.17,0.1,0.322,0.214,0.461,0.354c0.146,0.142,0.277,0.309,0.402,0.502c0.125,0.191,0.24,0.416,0.348,0.67l0.838,1.926
		c0.021,0.037,0.035,0.074,0.049,0.109c0.011,0.032,0.021,0.069,0.025,0.094c0.006,0.031,0.014,0.058,0.014,0.074
		C101.363,14.002,101.363,14.02,101.363,14.035"/>
	<path fill="#1A171B" d="M109.936,13.904c0,0.049-0.015,0.082-0.033,0.115c-0.026,0.03-0.06,0.058-0.112,0.082
		c-0.047,0.019-0.116,0.039-0.209,0.047c-0.091,0.015-0.198,0.021-0.338,0.021c-0.142,0-0.253-0.006-0.345-0.021
		c-0.092-0.008-0.16-0.028-0.217-0.047c-0.05-0.024-0.092-0.052-0.113-0.082c-0.021-0.033-0.034-0.066-0.034-0.115V7.273h-2.091
		c-0.086,0.894-0.197,1.688-0.326,2.383c-0.124,0.697-0.266,1.308-0.426,1.822c-0.156,0.517-0.334,0.957-0.532,1.309
		c-0.194,0.355-0.408,0.638-0.644,0.854c-0.238,0.221-0.49,0.375-0.764,0.469c-0.271,0.097-0.566,0.146-0.875,0.146
		c-0.053,0-0.094-0.007-0.131-0.026c-0.033-0.018-0.066-0.045-0.089-0.092c-0.019-0.041-0.037-0.107-0.052-0.191
		c-0.013-0.08-0.017-0.182-0.017-0.311c0-0.14,0.004-0.248,0.015-0.33c0.006-0.084,0.021-0.152,0.041-0.203
		c0.021-0.049,0.047-0.082,0.076-0.098c0.033-0.016,0.068-0.027,0.112-0.027c0.188,0,0.364-0.041,0.532-0.127
		c0.166-0.091,0.326-0.236,0.476-0.436c0.146-0.201,0.281-0.46,0.412-0.783c0.13-0.322,0.248-0.725,0.354-1.195
		c0.11-0.471,0.209-1.024,0.305-1.658c0.095-0.631,0.184-1.359,0.27-2.18c0.014-0.168,0.053-0.297,0.123-0.377
		c0.067-0.082,0.17-0.119,0.301-0.119h3.898c0.135,0,0.241,0.037,0.318,0.121c0.078,0.078,0.111,0.207,0.111,0.375v7.307H109.936z"
		/>
	<path fill="#1A171B" d="M118.902,13.982c0,0.041-0.008,0.078-0.035,0.11c-0.018,0.031-0.053,0.06-0.104,0.079
		c-0.053,0.02-0.125,0.032-0.215,0.046c-0.089,0.013-0.199,0.017-0.337,0.017c-0.132,0-0.245-0.004-0.337-0.017
		c-0.088-0.014-0.162-0.026-0.217-0.046c-0.059-0.02-0.1-0.048-0.118-0.079c-0.021-0.032-0.037-0.069-0.037-0.11V9.613
		c0-0.225,0.006-0.444,0.021-0.678c0.016-0.227,0.024-0.447,0.041-0.666c-0.129,0.226-0.271,0.439-0.426,0.66
		c-0.154,0.217-0.31,0.436-0.465,0.645l-3.216,4.408c-0.045,0.049-0.076,0.084-0.106,0.115c-0.033,0.037-0.074,0.064-0.119,0.084
		c-0.051,0.021-0.107,0.032-0.186,0.045c-0.07,0.004-0.164,0.008-0.27,0.008c-0.125,0-0.23-0.004-0.309-0.017
		c-0.082-0.014-0.144-0.026-0.188-0.046c-0.049-0.02-0.086-0.048-0.105-0.079c-0.02-0.032-0.029-0.069-0.029-0.11V6.37
		c0-0.043,0.011-0.078,0.029-0.11c0.021-0.035,0.059-0.061,0.112-0.082c0.053-0.025,0.122-0.044,0.216-0.049
		c0.088-0.011,0.2-0.018,0.334-0.018c0.27,0,0.456,0.021,0.557,0.066c0.101,0.043,0.148,0.104,0.148,0.191v4.395
		c0,0.223-0.004,0.438-0.012,0.657c-0.014,0.218-0.025,0.429-0.049,0.646c0.135-0.217,0.268-0.424,0.398-0.633
		c0.124-0.201,0.271-0.404,0.422-0.603l3.26-4.463c0.033-0.05,0.068-0.087,0.104-0.117s0.083-0.054,0.14-0.073
		c0.049-0.021,0.109-0.031,0.188-0.041c0.07-0.008,0.17-0.014,0.285-0.014c0.119,0,0.219,0.006,0.301,0.014
		c0.082,0.01,0.145,0.02,0.193,0.047c0.047,0.021,0.082,0.047,0.102,0.084s0.025,0.07,0.025,0.121v7.594H118.902z"/>
	<path fill="#1A171B" d="M128.173,13.977c0,0.047-0.016,0.08-0.036,0.113c-0.021,0.025-0.057,0.055-0.109,0.083
		c-0.051,0.021-0.12,0.037-0.211,0.046c-0.098,0.014-0.201,0.018-0.34,0.018c-0.143,0-0.258-0.004-0.346-0.018
		c-0.098-0.009-0.166-0.025-0.218-0.046c-0.05-0.028-0.085-0.058-0.108-0.083c-0.021-0.033-0.033-0.066-0.033-0.113v-3.336h-3.853
		v3.336c0,0.047-0.015,0.08-0.037,0.113c-0.022,0.025-0.06,0.055-0.106,0.083c-0.053,0.021-0.125,0.037-0.217,0.046
		c-0.088,0.014-0.201,0.018-0.342,0.018c-0.139,0-0.25-0.004-0.342-0.018c-0.094-0.009-0.163-0.025-0.216-0.046
		c-0.056-0.028-0.093-0.058-0.11-0.083c-0.02-0.033-0.031-0.066-0.031-0.113V6.375c0-0.043,0.012-0.083,0.031-0.113
		c0.018-0.029,0.057-0.057,0.11-0.082c0.053-0.027,0.122-0.046,0.216-0.051c0.092-0.011,0.203-0.014,0.342-0.014
		c0.141,0,0.254,0.003,0.342,0.014c0.092,0.005,0.164,0.023,0.217,0.051c0.048,0.025,0.084,0.053,0.106,0.082
		c0.022,0.03,0.037,0.07,0.037,0.113v3.096h3.853V6.375c0-0.043,0.013-0.083,0.033-0.113c0.023-0.029,0.059-0.057,0.108-0.082
		c0.052-0.027,0.12-0.046,0.218-0.051c0.088-0.011,0.203-0.014,0.346-0.014c0.139,0,0.242,0.003,0.34,0.014
		c0.091,0.005,0.16,0.023,0.211,0.051c0.054,0.025,0.088,0.053,0.109,0.082c0.021,0.03,0.036,0.07,0.036,0.113V13.977z"/>
	<path fill="#1A171B" d="M137.318,13.982c0,0.041-0.016,0.078-0.035,0.11c-0.025,0.031-0.059,0.06-0.111,0.079
		c-0.048,0.02-0.119,0.032-0.209,0.046c-0.091,0.013-0.201,0.017-0.338,0.017c-0.132,0-0.247-0.004-0.336-0.017
		c-0.09-0.014-0.166-0.026-0.221-0.046s-0.098-0.048-0.115-0.079c-0.027-0.032-0.036-0.069-0.036-0.11V9.613
		c0-0.225,0.005-0.444,0.019-0.678c0.015-0.227,0.025-0.447,0.041-0.666c-0.123,0.226-0.272,0.439-0.426,0.66
		c-0.154,0.217-0.311,0.436-0.467,0.645l-3.215,4.408c-0.04,0.049-0.078,0.084-0.107,0.115c-0.029,0.037-0.072,0.064-0.119,0.084
		c-0.049,0.021-0.108,0.032-0.182,0.045c-0.074,0.004-0.165,0.008-0.271,0.008c-0.125,0-0.228-0.004-0.306-0.017
		c-0.081-0.014-0.145-0.026-0.19-0.046c-0.051-0.02-0.084-0.048-0.104-0.079c-0.019-0.032-0.024-0.069-0.024-0.11V6.37
		c0-0.043,0.006-0.078,0.024-0.11c0.021-0.035,0.06-0.061,0.116-0.082c0.05-0.025,0.124-0.044,0.213-0.049
		c0.089-0.011,0.198-0.018,0.335-0.018c0.269,0,0.454,0.021,0.556,0.066c0.1,0.043,0.152,0.104,0.152,0.191v4.395
		c0,0.223-0.005,0.438-0.018,0.657c-0.012,0.218-0.022,0.429-0.041,0.646c0.129-0.217,0.26-0.424,0.395-0.633
		c0.126-0.201,0.271-0.404,0.42-0.603l3.262-4.463c0.031-0.05,0.063-0.087,0.104-0.117c0.038-0.03,0.083-0.054,0.137-0.073
		c0.051-0.021,0.112-0.031,0.188-0.041c0.075-0.008,0.169-0.014,0.284-0.014c0.117,0,0.219,0.006,0.301,0.014
		c0.085,0.01,0.146,0.02,0.195,0.047c0.047,0.021,0.08,0.047,0.101,0.084s0.03,0.07,0.03,0.121V13.982L137.318,13.982z"/>
	<path fill="#1A171B" d="M145.714,14.035c0,0.031-0.01,0.063-0.024,0.085c-0.026,0.026-0.061,0.049-0.109,0.063
		c-0.059,0.019-0.126,0.03-0.219,0.043c-0.084,0.004-0.194,0.008-0.332,0.008c-0.152,0-0.289-0.004-0.383-0.017
		c-0.101-0.009-0.178-0.024-0.24-0.046c-0.064-0.02-0.106-0.048-0.135-0.074c-0.029-0.031-0.049-0.066-0.061-0.107l-0.807-1.967
		c-0.098-0.252-0.207-0.469-0.322-0.653c-0.119-0.183-0.247-0.332-0.398-0.438c-0.15-0.117-0.324-0.195-0.514-0.246
		c-0.191-0.054-0.406-0.074-0.65-0.074h-0.594v3.418c0,0.027-0.014,0.053-0.039,0.082c-0.033,0.029-0.072,0.053-0.132,0.066
		c-0.054,0.018-0.126,0.032-0.219,0.041c-0.091,0.014-0.193,0.018-0.312,0.018c-0.119,0-0.224-0.004-0.314-0.018
		c-0.09-0.009-0.164-0.023-0.221-0.041c-0.058-0.015-0.1-0.037-0.125-0.066c-0.023-0.029-0.039-0.059-0.039-0.082V6.309
		c0-0.027,0.016-0.056,0.039-0.076c0.025-0.026,0.067-0.051,0.125-0.063c0.057-0.019,0.131-0.034,0.221-0.043
		c0.092-0.007,0.195-0.011,0.314-0.011c0.117,0,0.221,0.004,0.312,0.011c0.093,0.009,0.165,0.024,0.219,0.043
		c0.06,0.013,0.099,0.037,0.132,0.063c0.025,0.021,0.039,0.049,0.039,0.078v3.192h0.594c0.205,0,0.403-0.022,0.576-0.073
		c0.176-0.049,0.34-0.125,0.48-0.234c0.146-0.113,0.275-0.252,0.387-0.432c0.119-0.173,0.227-0.385,0.316-0.633l0.705-1.756
		c0.013-0.043,0.033-0.083,0.06-0.115c0.026-0.035,0.072-0.061,0.128-0.082c0.053-0.025,0.133-0.044,0.225-0.053
		c0.092-0.007,0.215-0.01,0.367-0.01c0.133,0,0.245,0.003,0.332,0.01c0.086,0.009,0.155,0.025,0.203,0.043
		c0.045,0.014,0.078,0.037,0.096,0.063c0.019,0.021,0.027,0.049,0.027,0.078c0,0.053-0.005,0.105-0.023,0.162
		c-0.014,0.057-0.035,0.119-0.064,0.195l-0.723,1.671c-0.111,0.282-0.233,0.521-0.363,0.71c-0.139,0.189-0.266,0.354-0.402,0.479
		c-0.132,0.131-0.271,0.226-0.41,0.302c-0.138,0.063-0.273,0.12-0.401,0.161v0.019c0.194,0.065,0.374,0.146,0.54,0.241
		c0.168,0.1,0.318,0.214,0.465,0.354c0.148,0.142,0.279,0.309,0.4,0.502c0.125,0.191,0.24,0.416,0.348,0.67l0.84,1.926
		c0.021,0.037,0.032,0.074,0.047,0.109c0.012,0.032,0.02,0.069,0.027,0.094c0.002,0.031,0.009,0.058,0.014,0.074
		C145.714,14.002,145.714,14.02,145.714,14.035"/>
	<path fill="#1A171B" d="M153.354,7.624c-0.107-0.354-0.275-0.649-0.518-0.888c-0.23-0.241-0.541-0.428-0.924-0.551
		c-0.385-0.123-0.848-0.185-1.393-0.185c-0.287,0-0.58,0.026-0.865,0.085c-0.289,0.053-0.553,0.119-0.791,0.202
		c-0.243,0.082-0.461,0.176-0.643,0.272c-0.187,0.101-0.318,0.189-0.393,0.26c-0.075,0.072-0.125,0.147-0.143,0.228
		c-0.024,0.083-0.028,0.194-0.028,0.334c0,0.089,0.004,0.163,0.014,0.233c0.015,0.068,0.026,0.125,0.054,0.17
		c0.028,0.046,0.055,0.082,0.09,0.102c0.037,0.023,0.074,0.034,0.119,0.034c0.068,0,0.168-0.039,0.305-0.124
		c0.143-0.081,0.313-0.173,0.521-0.273c0.201-0.102,0.438-0.188,0.716-0.273c0.269-0.083,0.578-0.124,0.922-0.124
		c0.318,0,0.588,0.034,0.811,0.117c0.219,0.075,0.395,0.187,0.531,0.333c0.143,0.154,0.238,0.338,0.305,0.566
		c0.061,0.225,0.09,0.481,0.09,0.772V9.51h-1.047c-0.592,0-1.125,0.055-1.6,0.157c-0.467,0.101-0.869,0.263-1.195,0.47
		c-0.329,0.206-0.58,0.469-0.752,0.786c-0.178,0.312-0.26,0.683-0.26,1.115c0,0.362,0.063,0.688,0.188,0.978
		c0.125,0.282,0.304,0.529,0.528,0.725c0.232,0.199,0.511,0.351,0.829,0.453c0.321,0.104,0.686,0.156,1.085,0.156
		c0.457,0,0.887-0.1,1.297-0.293c0.412-0.193,0.775-0.472,1.107-0.826v0.76c0,0.072,0.02,0.119,0.061,0.152
		c0.043,0.035,0.105,0.057,0.191,0.076c0.082,0.018,0.203,0.026,0.348,0.026c0.152,0,0.27-0.011,0.348-0.026
		c0.078-0.021,0.145-0.041,0.184-0.076c0.045-0.033,0.072-0.086,0.072-0.152V8.865C153.518,8.396,153.455,7.979,153.354,7.624
		 M152.131,12.127c-0.34,0.385-0.67,0.668-0.98,0.854c-0.313,0.186-0.652,0.276-1.012,0.276c-0.459,0-0.805-0.114-1.055-0.351
		c-0.253-0.232-0.374-0.545-0.374-0.939c0-0.232,0.042-0.436,0.131-0.615c0.087-0.177,0.224-0.326,0.407-0.455
		c0.188-0.127,0.419-0.222,0.697-0.287c0.285-0.066,0.613-0.098,0.996-0.098h1.189V12.127L152.131,12.127z"/>
	<path fill="#1A171B" d="M104.85,30.73c0-0.473-0.154-0.672-0.588-0.672h-1.93c-0.434,0-0.473,0.319-0.533,0.711
		c-0.156,0.945-1,1.34-2.063,1.34c-1.301,0-2.188-0.709-2.188-1.969v-4.094c0-1.236,0.887-1.967,2.188-1.967
		c1.063,0,1.613,0.295,2.023,0.945c0.16,0.234,0.18,0.611,0.594,0.611h1.889c0.453,0,0.607-0.103,0.607-0.574
		c-0.258-2.496-2.672-3.735-5.113-3.735c-2.34,0-5.272,1.354-5.272,4.444v4.645c0,3.088,2.933,4.445,5.272,4.445
		C102.177,34.861,104.85,33.27,104.85,30.73 M116.693,31.814h-6.274v-2.599h5.271c0.455,0,0.574-0.217,0.574-0.567v-1.535
		c0-0.354-0.119-0.574-0.574-0.574h-5.271v-2.143h5.938c0.453,0,0.568-0.219,0.568-0.572v-1.631c0-0.354-0.115-0.57-0.568-0.57
		h-8.477c-0.456,0-0.574,0.217-0.574,0.57v11.805c0,0.354,0.118,0.572,0.574,0.572h8.813c0.455,0,0.572-0.219,0.572-0.572v-1.614
		C117.268,32.031,117.148,31.814,116.693,31.814 M131.257,21.622h-1.891c-0.651,0-0.747,0.433-0.89,0.668l-2.711,4.834l-2.697-4.834
		c-0.154-0.235-0.234-0.668-0.901-0.668h-1.948c-0.453,0-0.57,0.217-0.57,0.569v11.806c0,0.45,0.215,0.573,0.57,0.573h1.948
		c0.353,0,0.567-0.123,0.567-0.573v-6.658l1.986,3.438c0.098,0.158,0.258,0.408,0.555,0.408h0.979c0.297,0,0.477-0.25,0.572-0.408
		l1.969-3.438v6.658c0,0.45,0.219,0.573,0.571,0.573h1.891c0.351,0,0.569-0.123,0.569-0.573V22.191
		C131.826,21.839,131.707,21.622,131.257,21.622 M144.119,31.814h-6.275v-2.599h5.273c0.453,0,0.572-0.217,0.572-0.567v-1.535
		c0-0.354-0.119-0.574-0.572-0.574h-5.273v-2.143h5.943c0.453,0,0.57-0.219,0.57-0.572v-1.631c0-0.354-0.117-0.57-0.57-0.57h-8.482
		c-0.449,0-0.566,0.217-0.566,0.57v11.805c0,0.354,0.117,0.572,0.566,0.572h8.814c0.456,0,0.572-0.219,0.572-0.572v-1.614
		C144.691,32.031,144.575,31.814,144.119,31.814 M147.662,21.622h1.893c0.35,0,0.568,0.116,0.568,0.569v6.828l4.168-6.729
		c0.256-0.39,0.395-0.668,0.889-0.668h1.85c0.453,0,0.57,0.217,0.57,0.569v11.806c0,0.45-0.215,0.573-0.57,0.573h-1.949
		c-0.352,0-0.568-0.123-0.568-0.573v-6.845l-4.172,6.744c-0.256,0.396-0.395,0.674-0.883,0.674h-1.793
		c-0.45,0-0.57-0.219-0.57-0.573V22.191C147.092,21.738,147.309,21.622,147.662,21.622 M149.609,18.65
		c0.506,1.08,1.68,1.578,2.992,1.595c1.314-0.017,2.473-0.515,2.982-1.595H149.609z M170.486,21.622h-1.947
		c-0.355,0-0.57,0.116-0.57,0.569v4.449h-4.391v-4.449c0-0.453-0.195-0.569-0.57-0.569h-1.947c-0.354,0-0.566,0.116-0.566,0.569
		v11.806c0,0.45,0.215,0.573,0.566,0.573h1.947c0.375,0,0.57-0.123,0.57-0.573V29.55h4.391v4.447c0,0.45,0.215,0.573,0.57,0.573
		h1.947c0.354,0,0.568-0.123,0.568-0.573V22.191C171.057,21.738,170.84,21.622,170.486,21.622 M178.963,34.57
		c3.389,0,5.156-1.694,5.156-4.409c0-2.792-1.809-4.351-5.176-4.351h-1.889v-3.619c0-0.453-0.217-0.569-0.57-0.569h-1.945
		c-0.354,0-0.572,0.116-0.572,0.569v11.806c0,0.354,0.119,0.573,0.572,0.573H178.963L178.963,34.57z M178.943,28.469
		c1.533,0,2.205,0.688,2.205,1.672c0,1.024-0.672,1.652-2.205,1.652h-1.889v-3.324H178.943z M189.08,22.191
		c0-0.453-0.219-0.569-0.57-0.569h-1.947c-0.354,0-0.574,0.116-0.574,0.569v11.806c0,0.45,0.221,0.573,0.574,0.573h1.947
		c0.354,0,0.57-0.123,0.57-0.573V22.191z M192.582,21.622h1.889c0.354,0,0.57,0.116,0.57,0.569v6.828l4.174-6.729
		c0.252-0.39,0.393-0.668,0.879-0.668h1.854c0.453,0,0.57,0.217,0.57,0.569v11.806c0,0.45-0.219,0.573-0.57,0.573H200
		c-0.354,0-0.57-0.123-0.57-0.573v-6.845l-4.174,6.744c-0.252,0.396-0.391,0.674-0.883,0.674h-1.789c-0.455,0-0.57-0.219-0.57-0.573
		V22.191C192.014,21.738,192.229,21.622,192.582,21.622 M194.525,18.65c0.508,1.08,1.68,1.578,2.992,1.595
		c1.684-0.021,2.59-0.845,2.988-1.595H194.525z M219.932,35.591c0,0.451,0.215,0.57,0.568,0.57h1.611
		c0.355,0,0.568-0.119,0.568-0.57v-3.383c0-0.354-0.115-0.571-0.568-0.571h-0.941v-9.443c0-0.453-0.219-0.57-0.572-0.57h-7.553
		c-0.355,0-0.57,0.117-0.57,0.57l-0.633,8.145c-0.063,0.729-0.234,1.301-1.314,1.301c-0.455,0-0.57,0.217-0.57,0.57v3.383
		c0,0.451,0.215,0.57,0.57,0.57h1.633c0.354,0,0.568-0.119,0.568-0.57v-1.238h7.203V35.591z M214.873,30.496l0.488-6.219h2.814v7.5
		h-4.09C214.559,31.617,214.834,31.225,214.873,30.496 M234.939,25.771c0-3.109-2.953-4.443-5.291-4.443
		c-2.342,0-5.254,1.334-5.254,4.443v4.646c0,3.106,2.912,4.444,5.254,4.444c2.338,0,5.291-1.338,5.291-4.444V25.771z
		 M231.854,30.141c0,1.26-0.906,1.986-2.203,1.986c-1.277,0-2.188-0.727-2.188-1.986v-4.093c0-1.258,0.908-1.987,2.188-1.987
		c1.297,0,2.203,0.729,2.203,1.987V30.141z M248.242,21.622h-2.656c-0.453,0-0.59,0.039-0.98,0.474l-4.076,4.483v-4.388
		c0-0.453-0.215-0.569-0.553-0.569h-1.941c-0.381,0-0.572,0.116-0.572,0.569v11.806c0,0.45,0.191,0.573,0.572,0.573h1.941
		c0.338,0,0.553-0.123,0.553-0.573v-3.501l1.223-1.28c1.063,1.772,2.811,4.724,2.811,4.724c0.258,0.412,0.516,0.631,0.986,0.631
		h2.396c0.377,0,0.455-0.373,0.299-0.631l-4.232-6.967l4.428-4.8C248.615,21.995,248.615,21.622,248.242,21.622 M259.08,21.622
		h-9.125c-0.453,0-0.576,0.217-0.576,0.569v1.633c0,0.354,0.123,0.57,0.574,0.57h3.029v9.603c0,0.45,0.219,0.573,0.57,0.573h1.947
		c0.354,0,0.57-0.123,0.57-0.573v-9.603h3.008c0.453,0,0.572-0.219,0.572-0.57v-1.633C259.65,21.839,259.533,21.622,259.08,21.622
		 M271.795,25.771c0-3.109-2.951-4.443-5.295-4.443s-5.252,1.334-5.252,4.443v4.646c0,3.106,2.908,4.444,5.252,4.444
		s5.295-1.338,5.295-4.444V25.771z M268.703,30.141c0,1.26-0.906,1.986-2.203,1.986c-1.279,0-2.188-0.727-2.188-1.986v-4.093
		c0-1.258,0.906-1.987,2.188-1.987c1.297,0,2.203,0.729,2.203,1.987V30.141z M279.313,21.622h-4.43c-0.453,0-0.57,0.217-0.57,0.569
		v11.806c0,0.45,0.217,0.573,0.57,0.573h1.949c0.354,0,0.566-0.123,0.566-0.573V30.73h1.891c3.367,0,5.174-1.811,5.174-4.547
		C284.463,23.473,282.691,21.622,279.313,21.622 M279.289,28.074h-1.891v-3.68h1.891c1.537,0,2.203,0.828,2.203,1.848
		C281.492,27.229,280.826,28.074,279.289,28.074"/>
</g>
<g>
	<g>
		<path fill="#0F6D3A" d="M266.639,66.478c0,5.5-4.5,10-10,10H104.463c-5.5,0-10-4.5-10-10v-15.16c0-5.5,4.5-10,10-10h152.176
			c5.5,0,10,4.5,10,10V66.478z"/>
		<g>
			<path fill="#98C93C" d="M138.118,63.231v6.994h-2.027v-5.33h-2.21l-0.064,1.235c-0.034,0.919-0.121,1.683-0.26,2.288
				c-0.14,0.605-0.365,1.083-0.677,1.43c-0.313,0.348-0.746,0.521-1.301,0.521c-0.294,0-0.646-0.052-1.054-0.155l0.104-1.664
				c0.14,0.018,0.238,0.025,0.3,0.025c0.303,0,0.529-0.11,0.682-0.331c0.152-0.222,0.254-0.503,0.307-0.845
				c0.053-0.344,0.091-0.795,0.116-1.358l0.104-2.81H138.118z"/>
			<path fill="#98C93C" d="M146.829,67.301h-5.291c0.095,0.435,0.319,0.775,0.676,1.026c0.354,0.252,0.797,0.377,1.326,0.377
				c0.362,0,0.687-0.055,0.968-0.162c0.282-0.107,0.544-0.279,0.787-0.514l1.079,1.17c-0.659,0.754-1.621,1.131-2.888,1.131
				c-0.787,0-1.485-0.153-2.092-0.461c-0.607-0.309-1.074-0.734-1.403-1.28c-0.33-0.546-0.494-1.166-0.494-1.858
				c0-0.686,0.162-1.303,0.487-1.854c0.324-0.55,0.771-0.979,1.339-1.287c0.567-0.309,1.202-0.461,1.903-0.461
				c0.686,0,1.306,0.146,1.859,0.441c0.555,0.295,0.99,0.718,1.307,1.268c0.316,0.551,0.476,1.189,0.476,1.918
				C146.868,66.78,146.854,66.963,146.829,67.301z M142.084,65.052c-0.313,0.26-0.503,0.615-0.572,1.065h3.445
				c-0.068-0.441-0.262-0.796-0.572-1.06c-0.313-0.265-0.693-0.396-1.144-0.396C142.781,64.662,142.396,64.793,142.084,65.052z"/>
			<path fill="#98C93C" d="M154.057,64.896h-2.365v5.33h-2.017v-5.33h-2.366v-1.664h6.748V64.896L154.057,64.896z"/>
		</g>
		<g>
			<path fill="#98C93C" d="M127.518,55.847c-2.033,0-3.543-1.65-3.365-3.686c0.177-2.033,1.977-3.688,4.011-3.688
				c0.233,0,0.461,0.022,0.681,0.066c1.68,0.32,2.842,1.822,2.684,3.62c-0.12,1.372-0.98,2.571-2.15,3.206
				c0.854,0.199,1.645,0.539,2.348,0.994c1.162-1.082,1.952-2.565,2.096-4.2c0.269-3.063-1.827-5.597-4.771-5.938
				c-0.224-0.027-0.451-0.041-0.683-0.041c-2.31,0-4.431,1.315-5.595,3.235c-0.859-2.386-2.642-3.163-4.033-3.386
				c-3.094-0.498-6.934,1.337-7.908,2.459l1.678,1.416c0.467-0.486,3.489-2.026,5.782-1.592c1.25,0.234,2.045,1.026,2.428,2.418
				c1.378,5.004-8.358,12.461-13.59,16.467c-0.717,0.548-1.394,1.066-1.976,1.525l-2.563,2.021h16.424l0.199-2.293h-10.109
				c2.84-2.18,6.476-5.025,9.297-8.014c1.854-1.963,3.158-3.771,3.928-5.449c0.847,1.871,2.717,3.148,4.99,3.148
				c5.47,0,7.27,2.051,7.27,2.051C134.686,59.06,131.623,55.847,127.518,55.847z"/>
			<path fill="#98C93C" d="M121.707,63.298c0.188-2.146,1.669-3.99,3.605-4.768c-0.851-0.271-1.606-0.715-2.236-1.297
				c-2.012,1.353-3.441,3.564-3.66,6.063c-0.359,4.106,2.688,7.449,6.798,7.449C126.214,70.748,121.223,68.856,121.707,63.298z"/>
		</g>
	</g>
</g>
<g>
	<path fill="#98C93C" d="M170.109,54.185c0.23,0.269,0.348,0.59,0.348,0.961c0,0.442-0.152,0.83-0.455,1.164
		c-0.307,0.334-0.723,0.592-1.248,0.773c-0.529,0.182-1.127,0.271-1.795,0.271c-0.545,0-1.084-0.057-1.611-0.168
		c-0.529-0.113-1.02-0.281-1.469-0.508l0.545-1.416c0.736,0.354,1.553,0.532,2.445,0.532c0.477,0,0.852-0.071,1.123-0.215
		s0.408-0.345,0.408-0.604c0-0.226-0.096-0.396-0.283-0.514c-0.191-0.117-0.471-0.176-0.832-0.176h-1.434v-1.262h1.248
		c0.355,0,0.629-0.055,0.82-0.168c0.189-0.112,0.285-0.277,0.285-0.494c0-0.225-0.119-0.398-0.357-0.521s-0.578-0.183-1.02-0.183
		c-0.676,0-1.414,0.16-2.211,0.48l-0.494-1.404c0.971-0.424,1.916-0.637,2.834-0.637c0.633,0,1.199,0.078,1.697,0.234
		c0.498,0.154,0.891,0.383,1.176,0.684c0.287,0.299,0.43,0.646,0.43,1.045c0,0.33-0.1,0.627-0.299,0.892s-0.473,0.476-0.82,0.631
		C169.559,53.716,169.883,53.916,170.109,54.185z"/>
	<path fill="#98C93C" d="M177.139,50.901c0.58,0.517,0.869,1.293,0.869,2.334v3.99h-1.896v-0.871
		c-0.383,0.65-1.092,0.976-2.133,0.976c-0.537,0-1.004-0.091-1.396-0.272c-0.395-0.182-0.697-0.434-0.904-0.754
		c-0.209-0.32-0.313-0.685-0.313-1.092c0-0.65,0.246-1.161,0.734-1.533c0.49-0.373,1.246-0.561,2.27-0.561h1.611
		c0-0.441-0.135-0.781-0.402-1.021c-0.27-0.238-0.672-0.357-1.209-0.357c-0.373,0-0.74,0.06-1.1,0.177
		c-0.359,0.116-0.664,0.274-0.916,0.476l-0.729-1.418c0.383-0.269,0.84-0.477,1.373-0.623c0.529-0.147,1.08-0.222,1.645-0.222
		C175.725,50.128,176.557,50.386,177.139,50.901z M175.408,55.724c0.27-0.16,0.459-0.396,0.57-0.707v-0.716h-1.391
		c-0.832,0-1.248,0.272-1.248,0.818c0,0.261,0.102,0.467,0.305,0.618c0.205,0.15,0.484,0.228,0.84,0.228
		C174.832,55.965,175.141,55.885,175.408,55.724z"/>
	<path fill="#98C93C" d="M179.775,50.231h2.018v2.73h3.041v-2.73h2.025v6.994h-2.025v-2.613h-3.041v2.613h-2.018V50.231z"/>
	<path fill="#98C93C" d="M188.799,50.231h2.016v4.16l3.406-4.16h1.857v6.994h-2.016v-4.16l-3.395,4.16h-1.871v-6.994H188.799z"/>
	<path fill="#98C93C" d="M204.854,57.226v-4.185l-2.092,3.51h-0.859l-2.041-3.522v4.199h-1.832v-6.994h2.119l2.236,4.043
		l2.379-4.043h1.898l0.023,6.994h-1.832V57.226z"/>
	<path fill="#98C93C" d="M213.838,50.901c0.58,0.517,0.869,1.293,0.869,2.334v3.99h-1.896v-0.871
		c-0.383,0.65-1.092,0.976-2.133,0.976c-0.537,0-1.004-0.091-1.396-0.272c-0.395-0.182-0.697-0.434-0.904-0.754
		c-0.209-0.32-0.313-0.685-0.313-1.092c0-0.65,0.246-1.161,0.734-1.533c0.49-0.373,1.246-0.561,2.27-0.561h1.611
		c0-0.441-0.135-0.781-0.402-1.021c-0.27-0.238-0.672-0.357-1.209-0.357c-0.373,0-0.74,0.06-1.1,0.177
		c-0.361,0.116-0.664,0.274-0.916,0.476l-0.729-1.418c0.383-0.269,0.84-0.477,1.371-0.623c0.531-0.147,1.08-0.222,1.646-0.222
		C212.424,50.128,213.256,50.386,213.838,50.901z M212.105,55.724c0.271-0.16,0.459-0.396,0.572-0.707v-0.716h-1.391
		c-0.832,0-1.248,0.272-1.248,0.818c0,0.261,0.102,0.467,0.305,0.618c0.205,0.15,0.484,0.228,0.84,0.228
		C211.529,55.965,211.84,55.885,212.105,55.724z"/>
	<path fill="#98C93C" d="M223.234,54.301h-5.291c0.096,0.435,0.32,0.775,0.678,1.026c0.354,0.252,0.797,0.377,1.324,0.377
		c0.363,0,0.688-0.055,0.969-0.162s0.545-0.279,0.787-0.514l1.078,1.17c-0.658,0.754-1.619,1.131-2.887,1.131
		c-0.789,0-1.484-0.153-2.094-0.461c-0.605-0.309-1.074-0.734-1.402-1.28c-0.33-0.546-0.494-1.166-0.494-1.858
		c0-0.686,0.162-1.303,0.486-1.854c0.326-0.55,0.771-0.979,1.34-1.287c0.566-0.309,1.201-0.461,1.904-0.461
		c0.684,0,1.305,0.146,1.859,0.441s0.99,0.718,1.307,1.268c0.316,0.551,0.475,1.189,0.475,1.918
		C223.273,53.78,223.262,53.963,223.234,54.301z M218.488,52.052c-0.313,0.26-0.502,0.615-0.57,1.064h3.443
		c-0.066-0.44-0.26-0.795-0.57-1.059c-0.314-0.265-0.693-0.396-1.145-0.396C219.188,51.662,218.803,51.793,218.488,52.052z"/>
	<path fill="#98C93C" d="M231.658,57.226v-4.185l-2.094,3.51h-0.857l-2.041-3.522v4.199h-1.832v-6.994h2.119l2.234,4.043
		l2.379-4.043h1.898l0.025,6.994h-1.832V57.226z"/>
	<path fill="#98C93C" d="M236.75,56.869c-0.596-0.308-1.061-0.734-1.395-1.28s-0.5-1.166-0.5-1.859c0-0.692,0.166-1.313,0.5-1.858
		s0.799-0.974,1.395-1.28c0.592-0.309,1.262-0.461,2.008-0.461c0.736,0,1.379,0.152,1.93,0.461s0.951,0.748,1.203,1.319
		l-1.572,0.846c-0.365-0.642-0.889-0.962-1.574-0.962c-0.527,0-0.967,0.173-1.313,0.52c-0.348,0.348-0.52,0.819-0.52,1.418
		c0,0.598,0.172,1.069,0.52,1.416c0.346,0.348,0.785,0.521,1.313,0.521c0.693,0,1.219-0.32,1.574-0.963l1.572,0.857
		c-0.252,0.556-0.652,0.988-1.203,1.301s-1.193,0.468-1.93,0.468C238.012,57.33,237.342,57.176,236.75,56.869z"/>
	<path fill="#98C93C" d="M249.158,50.231v6.994h-1.811v-2.002h-1.494l-1.326,2.002h-2.156l1.6-2.287
		c-0.486-0.19-0.855-0.467-1.111-0.826c-0.256-0.358-0.385-0.795-0.385-1.307c0-0.822,0.297-1.457,0.891-1.904
		c0.594-0.445,1.41-0.67,2.451-0.67H249.158z M244.873,52.117c-0.223,0.155-0.33,0.407-0.33,0.754c0,0.349,0.104,0.601,0.316,0.761
		c0.211,0.161,0.535,0.241,0.971,0.241h1.52v-1.989h-1.494C245.422,51.883,245.096,51.961,244.873,52.117z"/>
	<path fill="#98C93C" d="M170.109,66.185c0.23,0.269,0.348,0.59,0.348,0.961c0,0.442-0.152,0.83-0.455,1.164
		c-0.307,0.334-0.723,0.592-1.248,0.773c-0.529,0.182-1.127,0.271-1.795,0.271c-0.545,0-1.084-0.057-1.611-0.168
		c-0.529-0.113-1.02-0.281-1.469-0.508l0.545-1.416c0.736,0.354,1.553,0.532,2.445,0.532c0.477,0,0.852-0.071,1.123-0.215
		s0.408-0.345,0.408-0.604c0-0.226-0.096-0.396-0.283-0.514c-0.191-0.117-0.471-0.176-0.832-0.176h-1.434v-1.262h1.248
		c0.355,0,0.629-0.055,0.82-0.168c0.189-0.112,0.285-0.277,0.285-0.494c0-0.225-0.119-0.398-0.357-0.521s-0.578-0.183-1.02-0.183
		c-0.676,0-1.414,0.16-2.211,0.48l-0.494-1.404c0.971-0.424,1.916-0.637,2.834-0.637c0.633,0,1.199,0.078,1.697,0.234
		c0.498,0.154,0.891,0.383,1.176,0.684c0.287,0.299,0.43,0.646,0.43,1.045c0,0.33-0.1,0.627-0.299,0.892s-0.473,0.476-0.82,0.631
		C169.559,65.716,169.883,65.916,170.109,66.185z"/>
	<path fill="#98C93C" d="M179.764,67.562v3.172h-1.885v-1.508h-4.914v1.508h-1.885v-3.172h0.285c0.434-0.008,0.73-0.265,0.896-0.767
		c0.164-0.503,0.268-1.218,0.313-2.146l0.092-2.418h6.098v5.33H179.764L179.764,67.562z M174.246,66.535
		c-0.084,0.45-0.236,0.793-0.463,1.026h2.949v-3.666h-2.287l-0.037,0.897C174.381,65.503,174.328,66.084,174.246,66.535z"/>
	<path fill="#98C93C" d="M182.332,68.869c-0.586-0.308-1.043-0.734-1.371-1.28c-0.33-0.546-0.494-1.166-0.494-1.859
		c0-0.692,0.164-1.313,0.494-1.858c0.328-0.546,0.785-0.974,1.371-1.28c0.584-0.309,1.246-0.461,1.98-0.461
		c0.736,0,1.396,0.152,1.977,0.461c0.582,0.309,1.037,0.734,1.363,1.28c0.33,0.547,0.494,1.166,0.494,1.858
		c0,0.693-0.164,1.313-0.494,1.859c-0.326,0.546-0.781,0.973-1.363,1.28c-0.58,0.308-1.238,0.461-1.977,0.461
		C183.576,69.33,182.916,69.176,182.332,68.869z M185.594,67.14c0.334-0.352,0.502-0.82,0.502-1.41s-0.168-1.061-0.502-1.41
		c-0.332-0.353-0.76-0.526-1.279-0.526s-0.949,0.175-1.287,0.526c-0.338,0.351-0.508,0.82-0.508,1.41s0.17,1.06,0.508,1.41
		c0.338,0.352,0.768,0.526,1.287,0.526S185.262,67.491,185.594,67.14z"/>
	<path fill="#98C93C" d="M195.436,62.577c0.533,0.299,0.951,0.72,1.254,1.261c0.305,0.542,0.455,1.173,0.455,1.892
		c0,0.721-0.15,1.351-0.455,1.893c-0.303,0.542-0.721,0.962-1.254,1.261c-0.533,0.3-1.125,0.448-1.775,0.448
		c-0.893,0-1.594-0.281-2.105-0.846v3.265h-2.027v-9.517h1.939v0.806c0.502-0.606,1.234-0.909,2.195-0.909
		C194.311,62.128,194.9,62.278,195.436,62.577z M194.59,67.14c0.334-0.352,0.502-0.82,0.502-1.41s-0.168-1.061-0.502-1.41
		c-0.334-0.353-0.76-0.526-1.279-0.526c-0.521,0-0.947,0.175-1.281,0.526c-0.334,0.351-0.5,0.82-0.5,1.41s0.166,1.06,0.5,1.41
		c0.334,0.352,0.76,0.526,1.281,0.526C193.83,67.667,194.256,67.491,194.59,67.14z"/>
	<path fill="#98C93C" d="M199.854,68.869c-0.586-0.308-1.043-0.734-1.371-1.28c-0.33-0.546-0.494-1.166-0.494-1.859
		c0-0.692,0.164-1.313,0.494-1.858c0.328-0.546,0.785-0.974,1.371-1.28c0.584-0.309,1.246-0.461,1.982-0.461
		s1.395,0.152,1.975,0.461c0.582,0.309,1.037,0.734,1.365,1.28c0.33,0.547,0.494,1.166,0.494,1.858c0,0.693-0.164,1.313-0.494,1.859
		c-0.328,0.546-0.783,0.973-1.365,1.28c-0.58,0.308-1.236,0.461-1.975,0.461C201.1,69.33,200.438,69.176,199.854,68.869z
		 M203.117,67.14c0.334-0.352,0.502-0.82,0.502-1.41s-0.168-1.061-0.502-1.41c-0.332-0.353-0.762-0.526-1.279-0.526
		c-0.52,0-0.949,0.175-1.287,0.526c-0.338,0.351-0.508,0.82-0.508,1.41s0.17,1.06,0.508,1.41c0.338,0.352,0.768,0.526,1.287,0.526
		C202.355,67.666,202.785,67.491,203.117,67.14z"/>
	<path fill="#98C93C" d="M213.641,67.237c0,0.633-0.238,1.123-0.715,1.47s-1.189,0.521-2.131,0.521h-3.732v-6.994h3.576
		c0.875,0,1.561,0.158,2.053,0.475c0.494,0.316,0.742,0.762,0.742,1.333c0,0.347-0.09,0.651-0.268,0.916
		c-0.18,0.265-0.432,0.472-0.762,0.616C213.229,65.851,213.641,66.405,213.641,67.237z M208.922,65.104h1.535
		c0.709,0,1.063-0.25,1.063-0.754c0-0.494-0.354-0.74-1.063-0.74h-1.535V65.104z M211.744,67.082c0-0.269-0.09-0.466-0.264-0.593
		c-0.172-0.125-0.443-0.188-0.816-0.188h-1.742v1.547h1.703C211.371,67.849,211.744,67.592,211.744,67.082z"/>
	<path fill="#98C93C" d="M221.023,65.085c0.484,0.402,0.73,0.973,0.73,1.71c0,0.771-0.271,1.371-0.814,1.8
		c-0.543,0.43-1.303,0.645-2.279,0.645l-3.514-0.014v-6.994h2.018v2.236h1.768C219.842,64.478,220.539,64.683,221.023,65.085z
		 M219.375,67.549c0.207-0.174,0.311-0.435,0.311-0.78c0-0.338-0.102-0.584-0.305-0.74c-0.203-0.155-0.506-0.238-0.904-0.248
		l-1.313-0.012v2.027h1.313C218.867,67.806,219.166,67.722,219.375,67.549z"/>
	<path fill="#98C93C" d="M229.773,66.301h-5.291c0.096,0.435,0.32,0.775,0.678,1.026c0.354,0.252,0.797,0.377,1.324,0.377
		c0.363,0,0.688-0.055,0.969-0.162s0.545-0.279,0.785-0.514l1.08,1.17c-0.658,0.754-1.619,1.131-2.887,1.131
		c-0.789,0-1.486-0.153-2.094-0.461c-0.605-0.309-1.074-0.734-1.402-1.28c-0.33-0.546-0.494-1.166-0.494-1.858
		c0-0.686,0.162-1.303,0.486-1.854c0.326-0.55,0.771-0.979,1.34-1.287c0.566-0.309,1.201-0.461,1.904-0.461
		c0.684,0,1.305,0.146,1.859,0.441s0.99,0.718,1.307,1.268c0.316,0.551,0.475,1.189,0.475,1.918
		C229.813,65.78,229.801,65.963,229.773,66.301z M225.027,64.052c-0.313,0.26-0.502,0.615-0.57,1.065h3.443
		c-0.066-0.441-0.26-0.796-0.57-1.06c-0.314-0.265-0.693-0.396-1.145-0.396C225.727,63.662,225.342,63.793,225.027,64.052z"/>
	<path fill="#98C93C" d="M238.195,69.226v-4.185l-2.092,3.51h-0.857l-2.041-3.522v4.199h-1.832v-6.994h2.119l2.234,4.043
		l2.379-4.043h1.898l0.025,6.994h-1.834V69.226z"/>
</g>
<g>
	<path fill="#FFFFFF" d="M19.917,42.794c0.554-0.204,1.114-0.4,1.681-0.59c0.215-0.071,0.43-0.142,0.646-0.211
		c0.57-0.183,1.146-0.357,1.727-0.525c0.144-0.041,0.285-0.085,0.429-0.126c0.704-0.197,1.416-0.382,2.132-0.557
		c0.215-0.053,0.433-0.102,0.648-0.152c0.535-0.125,1.072-0.244,1.613-0.356c0.238-0.051,0.477-0.102,0.717-0.148
		c0.701-0.139,1.406-0.271,2.114-0.389c0.12-0.021,0.241-0.039,0.362-0.058c0.648-0.105,1.3-0.201,1.951-0.289
		c0.262-0.035,0.524-0.068,0.786-0.101c0.528-0.065,1.058-0.125,1.586-0.181c0.243-0.024,0.484-0.051,0.728-0.074
		c0.721-0.067,1.44-0.125,2.161-0.172c0.229-0.016,0.458-0.024,0.688-0.038c0.528-0.028,1.058-0.054,1.584-0.073
		c0.283-0.01,0.564-0.019,0.848-0.024c0.538-0.014,1.074-0.02,1.608-0.021c0.215-0.001,0.43-0.005,0.643-0.004
		c0.7,0.004,1.395,0.021,2.087,0.043c0.273,0.01,0.545,0.023,0.816,0.036c0.472,0.021,0.941,0.047,1.408,0.078
		c0.279,0.018,0.56,0.035,0.838,0.057c0.606,0.047,1.208,0.103,1.806,0.165c5.873,0.617,11.242,1.981,15.443,4.073
		c-3.121-4.271-7.612-6.987-12.732-8.438c-3.375-4.415-6.809-12.28,3.113-5.373c-3.523-5.649-9.981-8.237-14.541-10.616
		c-1.865-0.971-2.226-1.677-2.767-3.65l0.109,3.023l6.874,5.865l0.288,5.813l0.164,3.762c-1.194-0.091-2.401-0.131-3.618-0.115
		c1.981-2.563,2.572-4.717,2.323-8.103c-0.787,3.478-1.64,5.071-5.114,3.664c1.032,1.191,1.714,2.631,1.896,4.466
		c-1.771,0.06-3.551,0.223-5.324,0.49c0.288-4.817-1.046-7.971,3.255-5.132c-2.661-4.604-6.42-3.243-8.917-0.073
		c4.075-2.329,2.493,0.962,0.963,6.149c-0.647,0.164-1.29,0.339-1.93,0.528l0.476-10.695l7.457-6.619
		c0.057-1.581,0.04-1.135,0.109-3.023c-0.433,1.572-0.83,2.576-2.322,3.459c-5.292,3.134-12.041,5.592-17.263,13.007
		c7.185-5.767,8.103-5.449,5.717,5.996c-0.019,0.008-0.035,0.018-0.054,0.024c-1.308,0.58-2.571,1.212-3.78,1.895
		c-0.155,0.088-0.303,0.18-0.455,0.269c-0.436,0.253-0.866,0.511-1.287,0.778c-0.201,0.128-0.398,0.261-0.597,0.392
		c-0.36,0.238-0.715,0.479-1.061,0.728c-0.208,0.147-0.411,0.297-0.613,0.447c-0.328,0.246-0.647,0.497-0.963,0.751
		c-0.193,0.155-0.387,0.311-0.574,0.469c-0.325,0.275-0.636,0.559-0.943,0.842c-0.154,0.143-0.314,0.282-0.465,0.427
		c-0.447,0.432-0.878,0.871-1.283,1.321c0.604-0.337,1.228-0.657,1.857-0.969c0.181-0.091,0.364-0.177,0.547-0.265
		c0.492-0.236,0.994-0.466,1.501-0.688c0.167-0.072,0.331-0.147,0.497-0.219c0.655-0.277,1.319-0.545,1.994-0.799
		C19.641,42.892,19.779,42.844,19.917,42.794z M37.206,34.013c-1.213,0.194-2.418,0.432-3.613,0.716
		C35.552,31.567,36.354,31.019,37.206,34.013z M29.954,35.738c-0.853,0.272-1.692,0.568-2.521,0.885
		c-0.024,0.006-0.05,0.012-0.073,0.019c-0.085,0.032-0.165,0.069-0.249,0.102c-0.389,0.152-0.772,0.311-1.155,0.472
		C27.152,31.6,30.722,28.813,29.954,35.738z"/>
	<path fill="#FFFFFF" d="M28.306,22.217c0.924,0,1.729-0.766,1.8-1.713c0.069-0.946-0.621-1.713-1.546-1.713
		c-0.921,0-1.728,0.767-1.798,1.713C26.692,21.451,27.383,22.217,28.306,22.217z"/>
	<path fill="#FFFFFF" d="M35.639,23.866c-0.054,0.715,0.469,1.295,1.166,1.295s1.307-0.58,1.362-1.295
		c0.052-0.715-0.472-1.295-1.171-1.295C36.299,22.571,35.691,23.151,35.639,23.866z"/>
	<path fill="#FFFFFF" d="M50.393,21.57c0.667-0.398,0.937-1.301,0.6-2.014c-0.333-0.715-1.147-0.974-1.815-0.574
		c-0.666,0.396-0.937,1.298-0.602,2.014C48.911,21.71,49.725,21.967,50.393,21.57z"/>
	<path fill="#FFFFFF" d="M43.983,27.86c0.52-0.31,0.727-1.008,0.466-1.565c-0.26-0.555-0.892-0.753-1.409-0.444
		c-0.521,0.308-0.728,1.01-0.469,1.563C42.833,27.97,43.464,28.17,43.983,27.86z"/>
	<path fill="#FFFFFF" d="M32.769,43.799c-0.007-0.007-0.019-0.014-0.038-0.017c-0.016-0.005-0.034-0.011-0.062-0.012
		c-0.027-0.002-0.059-0.005-0.092-0.005c-0.035,0-0.065,0.003-0.093,0.005c-0.025,0.001-0.044,0.007-0.063,0.012
		c-0.018,0.004-0.029,0.01-0.037,0.017c-0.006,0.008-0.01,0.023-0.01,0.023v2.242c0,0.006,0.004,0.015,0.01,0.022
		c0.008,0.009,0.02,0.016,0.037,0.02c0.019,0.005,0.037,0.009,0.063,0.013c0.027,0.004,0.058,0.005,0.093,0.005
		c0.033,0,0.064-0.001,0.092-0.005s0.046-0.008,0.062-0.013c0.02-0.004,0.031-0.011,0.038-0.02c0.01-0.008,0.013-0.015,0.013-0.024
		V45.07h0.171c0.071,0,0.134,0.008,0.188,0.023c0.056,0.014,0.105,0.037,0.149,0.07c0.046,0.032,0.082,0.076,0.117,0.13
		c0.034,0.051,0.064,0.114,0.093,0.188l0.233,0.571c0.005,0.012,0.01,0.02,0.019,0.03c0.008,0.009,0.02,0.017,0.038,0.022
		c0.02,0.005,0.042,0.009,0.071,0.013c0.027,0.004,0.063,0.005,0.109,0.005c0.04,0,0.071-0.001,0.099-0.003
		c0.026-0.003,0.046-0.008,0.062-0.012c0.016-0.005,0.025-0.011,0.033-0.019c0.004-0.007,0.008-0.025,0.008-0.025v-0.005
		c0,0,0-0.005,0-0.016l-0.006-0.018c0-0.008-0.005-0.018-0.01-0.027c-0.002-0.01-0.004-0.02-0.013-0.031L33.9,45.41
		c-0.031-0.074-0.064-0.139-0.101-0.194c-0.034-0.057-0.073-0.105-0.115-0.147c-0.042-0.04-0.086-0.074-0.136-0.103
		c-0.047-0.027-0.101-0.052-0.157-0.069v-0.005c0.038-0.013,0.078-0.028,0.117-0.048c0.04-0.021,0.082-0.049,0.12-0.087
		c0.037-0.036,0.078-0.082,0.114-0.14c0.04-0.055,0.075-0.123,0.107-0.205l0.21-0.485c0.009-0.022,0.016-0.041,0.021-0.058
		c0.003-0.016,0.005-0.031,0.005-0.054l-0.008-0.017c-0.006-0.007-0.014-0.014-0.027-0.017c-0.014-0.005-0.035-0.011-0.06-0.012
		c-0.025-0.002-0.058-0.005-0.095-0.005c-0.046,0-0.082,0.003-0.108,0.005c-0.026,0.001-0.048,0.008-0.064,0.014
		s-0.029,0.014-0.038,0.024c-0.008,0.01-0.012,0.02-0.017,0.035l-0.205,0.508c-0.024,0.071-0.057,0.133-0.092,0.185
		c-0.032,0.052-0.067,0.091-0.11,0.125c-0.043,0.031-0.09,0.053-0.141,0.067s-0.109,0.021-0.169,0.021h-0.171v-0.935
		C32.781,43.815,32.778,43.807,32.769,43.799z"/>
	<path fill="#FFFFFF" d="M36.117,46.061c0.007,0.01,0.018,0.018,0.032,0.023c0.016,0.007,0.036,0.012,0.063,0.017
		c0.026,0.002,0.06,0.004,0.101,0.004c0.04,0,0.073-0.002,0.097-0.004c0.027-0.005,0.048-0.01,0.062-0.017
		c0.017-0.006,0.025-0.014,0.033-0.023c0.005-0.009,0.01-0.018,0.01-0.032v-2.121c0-0.05-0.011-0.087-0.035-0.109
		c-0.021-0.026-0.052-0.036-0.09-0.036h-1.132c-0.038,0-0.069,0.01-0.087,0.034c-0.021,0.024-0.033,0.062-0.035,0.111
		c-0.025,0.236-0.052,0.448-0.079,0.633c-0.028,0.185-0.057,0.344-0.09,0.481c-0.03,0.137-0.064,0.253-0.102,0.347
		c-0.037,0.093-0.077,0.17-0.119,0.227c-0.044,0.059-0.09,0.101-0.139,0.126s-0.101,0.037-0.153,0.037
		c-0.014,0-0.025,0.003-0.034,0.008s-0.016,0.015-0.024,0.029c-0.004,0.014-0.009,0.034-0.011,0.058
		c-0.003,0.025-0.003,0.059-0.003,0.096c0,0.038,0.001,0.067,0.005,0.091c0.005,0.025,0.009,0.043,0.015,0.057
		c0.007,0.014,0.016,0.021,0.024,0.026c0.012,0.006,0.026,0.007,0.04,0.007c0.09,0,0.175-0.014,0.253-0.042
		c0.08-0.026,0.153-0.071,0.222-0.136c0.067-0.063,0.13-0.146,0.188-0.246c0.055-0.104,0.109-0.231,0.153-0.382
		c0.046-0.148,0.086-0.327,0.124-0.528c0.036-0.202,0.067-0.434,0.093-0.692h0.608v1.926C36.106,46.043,36.111,46.052,36.117,46.061
		z"/>
	<path fill="#FFFFFF" d="M38.621,44.781v1.27c0,0.012,0.003,0.021,0.011,0.031c0.006,0.011,0.017,0.019,0.032,0.024
		c0.018,0.005,0.04,0.009,0.065,0.013c0.026,0.004,0.059,0.005,0.097,0.005c0.039,0,0.072-0.001,0.099-0.005
		s0.047-0.008,0.062-0.013c0.016-0.006,0.025-0.014,0.032-0.024c0.005-0.009,0.01-0.02,0.01-0.031v-2.205
		c0-0.014-0.003-0.025-0.009-0.035s-0.016-0.018-0.029-0.024c-0.016-0.007-0.032-0.009-0.057-0.013
		c-0.023-0.003-0.053-0.005-0.087-0.005s-0.063,0.002-0.084,0.005c-0.022,0.004-0.039,0.006-0.054,0.012
		c-0.016,0.005-0.031,0.013-0.04,0.021c-0.011,0.009-0.021,0.021-0.03,0.033l-0.946,1.298c-0.043,0.056-0.086,0.115-0.123,0.173
		c-0.038,0.062-0.077,0.121-0.114,0.185c0.004-0.063,0.008-0.126,0.013-0.188c0.003-0.063,0.005-0.125,0.005-0.19V43.84
		c0-0.024-0.015-0.042-0.046-0.055c-0.028-0.014-0.082-0.02-0.162-0.02c-0.036,0-0.069,0.003-0.096,0.005
		c-0.026,0.001-0.048,0.008-0.062,0.014c-0.018,0.006-0.027,0.014-0.032,0.024c-0.006,0.01-0.009,0.02-0.009,0.031v2.211
		c0,0.012,0.003,0.021,0.009,0.031c0.005,0.011,0.015,0.019,0.029,0.024c0.012,0.005,0.031,0.009,0.055,0.013
		s0.055,0.005,0.089,0.005c0.031,0,0.059-0.001,0.079-0.003c0.022-0.003,0.039-0.008,0.054-0.012
		c0.013-0.007,0.024-0.015,0.034-0.025s0.019-0.02,0.031-0.033l0.933-1.28c0.045-0.062,0.092-0.124,0.136-0.188
		c0.043-0.063,0.085-0.126,0.124-0.191c-0.005,0.063-0.009,0.129-0.013,0.194C38.623,44.652,38.621,44.718,38.621,44.781z"/>
	<path fill="#FFFFFF" d="M40.092,43.81c-0.006-0.009-0.017-0.018-0.032-0.024s-0.034-0.014-0.06-0.015
		c-0.027-0.002-0.062-0.005-0.102-0.005s-0.073,0.003-0.098,0.005c-0.027,0.001-0.049,0.008-0.063,0.015
		c-0.018,0.007-0.028,0.016-0.034,0.024c-0.005,0.009-0.009,0.019-0.009,0.034v2.204c0,0.014,0.004,0.024,0.009,0.033
		c0.006,0.01,0.017,0.018,0.034,0.023c0.014,0.007,0.035,0.011,0.063,0.015c0.024,0.004,0.058,0.005,0.098,0.005
		s0.074-0.001,0.102-0.005c0.025-0.004,0.044-0.008,0.06-0.015c0.016-0.006,0.026-0.014,0.032-0.023
		c0.006-0.009,0.012-0.02,0.012-0.033v-0.967h1.117v0.967c0,0.014,0.004,0.024,0.01,0.033c0.007,0.01,0.017,0.018,0.032,0.023
		c0.014,0.007,0.033,0.011,0.062,0.015c0.026,0.004,0.059,0.005,0.102,0.005c0.038,0,0.071-0.001,0.099-0.005
		c0.026-0.004,0.046-0.008,0.062-0.015c0.014-0.006,0.025-0.014,0.031-0.023c0.007-0.009,0.01-0.02,0.01-0.033v-2.204
		c0-0.016-0.003-0.025-0.01-0.034c-0.006-0.009-0.018-0.018-0.031-0.024c-0.016-0.007-0.035-0.014-0.062-0.015
		c-0.027-0.002-0.061-0.005-0.099-0.005c-0.043,0-0.075,0.003-0.102,0.005c-0.028,0.001-0.048,0.008-0.062,0.015
		c-0.016,0.007-0.025,0.016-0.032,0.024c-0.006,0.009-0.01,0.019-0.01,0.034v0.896h-1.117v-0.896
		C40.104,43.828,40.098,43.818,40.092,43.81z"/>
	<path fill="#FFFFFF" d="M43.787,44.781v1.27c0,0.012,0.003,0.021,0.008,0.031c0.007,0.011,0.019,0.019,0.036,0.024
		c0.016,0.005,0.037,0.009,0.063,0.013c0.024,0.004,0.059,0.005,0.097,0.005c0.04,0,0.072-0.001,0.098-0.005
		c0.026-0.004,0.047-0.008,0.062-0.013c0.017-0.006,0.025-0.014,0.03-0.024c0.009-0.009,0.011-0.02,0.011-0.031v-2.205
		c0-0.014-0.002-0.025-0.008-0.035s-0.016-0.018-0.028-0.024c-0.016-0.007-0.034-0.009-0.057-0.013
		c-0.023-0.003-0.053-0.005-0.086-0.005c-0.037,0-0.063,0.002-0.085,0.005c-0.021,0.004-0.039,0.006-0.055,0.012
		c-0.017,0.005-0.029,0.013-0.041,0.021c-0.009,0.009-0.02,0.021-0.028,0.033l-0.947,1.298c-0.043,0.056-0.086,0.115-0.122,0.173
		c-0.039,0.062-0.076,0.121-0.114,0.185c0.005-0.063,0.009-0.126,0.012-0.188c0.005-0.063,0.006-0.125,0.006-0.19V43.84
		c0-0.024-0.016-0.042-0.044-0.055c-0.03-0.014-0.084-0.02-0.163-0.02c-0.039,0-0.071,0.003-0.097,0.005
		c-0.026,0.001-0.047,0.008-0.063,0.014s-0.027,0.014-0.033,0.024c-0.005,0.01-0.008,0.02-0.008,0.031v2.211
		c0,0.012,0.003,0.021,0.008,0.031c0.006,0.011,0.018,0.019,0.031,0.024c0.012,0.005,0.031,0.009,0.055,0.013
		s0.054,0.005,0.088,0.005c0.032,0,0.059-0.001,0.08-0.003c0.021-0.003,0.038-0.008,0.053-0.012
		c0.014-0.007,0.025-0.015,0.034-0.025s0.02-0.02,0.03-0.033l0.935-1.28c0.046-0.062,0.092-0.124,0.137-0.188
		c0.044-0.063,0.085-0.126,0.123-0.191c-0.006,0.063-0.01,0.129-0.014,0.194C43.788,44.652,43.787,44.718,43.787,44.781z"/>
	<path fill="#FFFFFF" d="M45.222,43.799c-0.009-0.007-0.021-0.014-0.037-0.017c-0.017-0.005-0.038-0.011-0.064-0.012
		c-0.024-0.002-0.057-0.005-0.09-0.005c-0.034,0-0.065,0.003-0.092,0.005c-0.026,0.001-0.046,0.007-0.063,0.012
		c-0.017,0.004-0.028,0.01-0.037,0.017c-0.007,0.008-0.01,0.023-0.01,0.023v2.242c0,0.006,0.003,0.015,0.01,0.022
		c0.009,0.009,0.021,0.016,0.037,0.02c0.018,0.005,0.037,0.009,0.063,0.013s0.058,0.005,0.092,0.005c0.033,0,0.065-0.001,0.09-0.005
		c0.026-0.004,0.048-0.008,0.064-0.013c0.017-0.004,0.028-0.011,0.037-0.02c0.009-0.008,0.012-0.015,0.012-0.024V45.07h0.172
		c0.071,0,0.134,0.008,0.189,0.023c0.057,0.014,0.105,0.037,0.148,0.07c0.045,0.032,0.082,0.076,0.116,0.13
		c0.033,0.051,0.066,0.114,0.096,0.188l0.232,0.571c0.003,0.012,0.01,0.02,0.018,0.03c0.008,0.009,0.021,0.017,0.038,0.022
		c0.019,0.005,0.041,0.009,0.071,0.013c0.028,0.004,0.064,0.005,0.111,0.005c0.039,0,0.07-0.001,0.096-0.003
		c0.028-0.003,0.047-0.008,0.063-0.012c0.017-0.005,0.025-0.011,0.03-0.019c0.006-0.007,0.008-0.025,0.008-0.025v-0.017
		c-0.001-0.004-0.004-0.021-0.004-0.021C46.618,46.02,46.615,46.01,46.612,46c-0.005-0.01-0.008-0.02-0.014-0.031l-0.244-0.559
		c-0.031-0.074-0.064-0.139-0.101-0.194c-0.036-0.057-0.074-0.105-0.115-0.147c-0.045-0.04-0.088-0.074-0.136-0.103
		c-0.048-0.027-0.101-0.052-0.159-0.069v-0.005c0.039-0.013,0.078-0.028,0.118-0.048c0.041-0.021,0.081-0.049,0.118-0.087
		c0.041-0.036,0.078-0.082,0.117-0.14c0.039-0.055,0.075-0.123,0.106-0.205l0.21-0.485c0.009-0.022,0.015-0.041,0.02-0.058
		c0.004-0.016,0.006-0.031,0.006-0.054c0,0-0.002-0.009-0.008-0.017c-0.004-0.007-0.015-0.014-0.028-0.017
		c-0.015-0.005-0.033-0.011-0.059-0.012c-0.026-0.002-0.06-0.005-0.097-0.005c-0.044,0-0.079,0.003-0.105,0.005
		c-0.027,0.001-0.049,0.008-0.065,0.014c-0.018,0.006-0.029,0.014-0.038,0.024c-0.008,0.01-0.013,0.02-0.016,0.035l-0.205,0.508
		c-0.028,0.071-0.059,0.133-0.093,0.185c-0.031,0.052-0.069,0.091-0.111,0.125c-0.043,0.031-0.089,0.053-0.14,0.067
		s-0.107,0.021-0.169,0.021h-0.172v-0.935C45.233,43.815,45.23,43.807,45.222,43.799z"/>
	<path fill="#FFFFFF" d="M48.413,46.097c0.011,0.01,0.03,0.017,0.056,0.022c0.023,0.004,0.058,0.009,0.099,0.009
		c0.045,0,0.078-0.005,0.101-0.009c0.024-0.006,0.041-0.013,0.054-0.022c0.014-0.01,0.021-0.024,0.021-0.045v-1.487
		c0-0.137-0.017-0.258-0.047-0.36c-0.031-0.104-0.08-0.188-0.148-0.257c-0.067-0.071-0.158-0.125-0.27-0.16
		s-0.244-0.054-0.402-0.054c-0.087,0-0.172,0.008-0.253,0.023c-0.085,0.017-0.16,0.036-0.229,0.06
		c-0.072,0.023-0.135,0.051-0.188,0.08c-0.052,0.029-0.092,0.054-0.112,0.074c-0.021,0.021-0.036,0.044-0.043,0.067
		c-0.004,0.023-0.008,0.056-0.008,0.096c0,0.024,0.004,0.048,0.005,0.068c0.003,0.021,0.009,0.036,0.016,0.049
		c0.009,0.014,0.017,0.022,0.027,0.029c0.009,0.008,0.021,0.009,0.032,0.009c0.021,0,0.051-0.01,0.091-0.034s0.09-0.051,0.148-0.079
		c0.06-0.031,0.13-0.057,0.208-0.08c0.078-0.022,0.169-0.036,0.267-0.036c0.094,0,0.174,0.009,0.237,0.033
		c0.063,0.021,0.115,0.056,0.154,0.098c0.04,0.044,0.069,0.099,0.088,0.163c0.018,0.067,0.026,0.143,0.026,0.226v0.174h-0.306
		c-0.171,0-0.324,0.014-0.462,0.045c-0.138,0.03-0.253,0.075-0.349,0.137c-0.095,0.06-0.166,0.136-0.219,0.227
		c-0.051,0.092-0.075,0.198-0.075,0.324c0,0.106,0.018,0.201,0.056,0.284c0.037,0.082,0.089,0.155,0.156,0.211
		c0.064,0.057,0.145,0.101,0.238,0.131c0.094,0.029,0.199,0.047,0.315,0.047c0.132,0,0.258-0.03,0.376-0.086
		c0.119-0.057,0.225-0.137,0.322-0.24v0.22C48.395,46.073,48.4,46.087,48.413,46.097z M48.341,45.513
		c-0.099,0.111-0.195,0.194-0.285,0.247c-0.089,0.055-0.188,0.08-0.295,0.08c-0.129,0-0.232-0.034-0.304-0.102
		c-0.073-0.067-0.109-0.158-0.109-0.272c0-0.067,0.013-0.125,0.037-0.179c0.026-0.052,0.065-0.096,0.119-0.132
		c0.056-0.036,0.124-0.065,0.203-0.084c0.081-0.019,0.18-0.028,0.288-0.028h0.346V45.513z"/>
	<path fill="#FFFFFF" d="M29.906,61.613h-0.382V57.8c0-0.183-0.088-0.23-0.23-0.23h-3.051c-0.145,0-0.231,0.048-0.231,0.23
		l-0.253,3.288c-0.024,0.295-0.095,0.525-0.533,0.525c-0.183,0-0.229,0.086-0.229,0.229v1.366c0,0.185,0.087,0.231,0.229,0.231
		h0.661c0.142,0,0.229-0.047,0.229-0.231v-0.501h2.907v0.501c0,0.185,0.086,0.231,0.23,0.231h0.652c0.143,0,0.231-0.047,0.231-0.231
		v-1.366C30.138,61.699,30.086,61.613,29.906,61.613z M28.317,61.669h-1.653c0.189-0.064,0.302-0.224,0.318-0.518l0.196-2.509h1.139
		V61.669z"/>
	<path fill="#FFFFFF" d="M47.825,57.45c-0.944,0-2.12,0.539-2.12,1.794v1.877c0,1.254,1.176,1.796,2.12,1.796
		c0.946,0,2.138-0.542,2.138-1.796v-1.877C49.963,57.989,48.771,57.45,47.825,57.45z M48.717,61.009
		c0,0.509-0.366,0.802-0.892,0.802c-0.517,0-0.882-0.293-0.882-0.802v-1.651c0-0.51,0.365-0.805,0.882-0.805
		c0.525,0,0.892,0.295,0.892,0.805V61.009z"/>
	<path fill="#FFFFFF" d="M44.832,57.569h-3.688c-0.183,0-0.229,0.087-0.229,0.23v0.659c0,0.146,0.047,0.23,0.229,0.23h1.225v3.876
		c0,0.184,0.087,0.229,0.229,0.229h0.787c0.144,0,0.229-0.046,0.229-0.229v-3.876h1.217c0.18,0,0.229-0.085,0.229-0.23V57.8
		C45.062,57.656,45.012,57.569,44.832,57.569z"/>
	<path fill="#FFFFFF" d="M52.999,57.569h-1.79c-0.181,0-0.229,0.087-0.229,0.23v4.766c0,0.184,0.088,0.229,0.229,0.229h0.787
		c0.144,0,0.229-0.046,0.229-0.229v-1.318h0.764c1.358,0,2.09-0.73,2.09-1.836C55.079,58.315,54.364,57.569,52.999,57.569z
		 M52.989,60.176h-0.764v-1.486h0.764c0.62,0,0.891,0.333,0.891,0.745C53.88,59.833,53.609,60.176,52.989,60.176z"/>
	<path fill="#FFFFFF" d="M32.949,57.45c-0.946,0-2.122,0.539-2.122,1.794v1.877c0,1.254,1.176,1.796,2.122,1.796
		c0.942,0,2.135-0.542,2.135-1.796v-1.877C35.084,57.989,33.892,57.45,32.949,57.45z M33.837,61.009
		c0,0.509-0.364,0.802-0.888,0.802c-0.519,0-0.885-0.293-0.885-0.802v-1.651c0-0.51,0.366-0.805,0.885-0.805
		c0.523,0,0.888,0.295,0.888,0.805V61.009z"/>
	<path fill="#FFFFFF" d="M39.383,57.569c-0.182,0-0.238,0.019-0.398,0.19l-1.645,1.812V57.8c0-0.183-0.088-0.23-0.222-0.23h-0.787
		c-0.15,0-0.229,0.048-0.229,0.23v4.766c0,0.184,0.079,0.229,0.229,0.229h0.787c0.134,0,0.222-0.046,0.222-0.229v-1.414l0.492-0.516
		c0.429,0.716,1.137,1.906,1.137,1.906c0.104,0.165,0.205,0.253,0.396,0.253h0.971c0.15,0,0.182-0.15,0.119-0.253l-1.71-2.813
		l1.788-1.939c0.072-0.07,0.072-0.221-0.078-0.221H39.383z"/>
	<path fill="#FFFFFF" d="M54.423,52.689c0-1.125-0.731-1.755-2.089-1.755h-0.763v-1.462c0-0.183-0.088-0.23-0.23-0.23h-0.787
		c-0.142,0-0.229,0.048-0.229,0.23v4.766c0,0.142,0.048,0.23,0.229,0.23h1.788C53.708,54.469,54.423,53.785,54.423,52.689z
		 M51.571,53.349v-1.343h0.763c0.62,0,0.891,0.281,0.891,0.677c0,0.411-0.271,0.666-0.891,0.666H51.571z"/>
	<path fill="#FFFFFF" d="M61.62,49.242h-0.748c-0.197,0-0.253,0.111-0.357,0.27l-1.683,2.719v-2.758c0-0.183-0.089-0.23-0.23-0.23
		h-0.763c-0.144,0-0.231,0.048-0.231,0.23v4.766c0,0.142,0.047,0.23,0.231,0.23h0.724c0.197,0,0.254-0.111,0.355-0.271l1.686-2.725
		v2.765c0,0.184,0.088,0.23,0.231,0.23h0.785c0.142,0,0.23-0.047,0.23-0.23v-4.766C61.851,49.33,61.802,49.242,61.62,49.242z"/>
	<path fill="#FFFFFF" d="M31.291,52.938l0.795-1.389v2.688c0,0.184,0.086,0.23,0.23,0.23h0.762c0.143,0,0.231-0.047,0.231-0.23
		v-4.766c0-0.143-0.048-0.23-0.231-0.23h-0.762c-0.262,0-0.303,0.174-0.357,0.27l-1.098,1.952l-1.087-1.952
		c-0.065-0.096-0.095-0.27-0.365-0.27h-0.787c-0.183,0-0.23,0.088-0.23,0.23v4.766c0,0.184,0.087,0.23,0.23,0.23h0.787
		c0.143,0,0.229-0.047,0.229-0.23V51.55l0.802,1.389c0.04,0.063,0.104,0.167,0.225,0.167h0.396
		C31.181,53.105,31.251,53.002,31.291,52.938z"/>
	<path fill="#FFFFFF" d="M56.195,49.242h-0.787c-0.143,0-0.229,0.048-0.229,0.23v4.766c0,0.184,0.087,0.23,0.229,0.23h0.787
		c0.143,0,0.229-0.047,0.229-0.23v-4.766C56.424,49.29,56.338,49.242,56.195,49.242z"/>
	<path fill="#FFFFFF" d="M41.697,48.687c0.531-0.006,0.998-0.208,1.205-0.644h-2.411C40.695,48.479,41.166,48.681,41.697,48.687z"/>
	<path fill="#FFFFFF" d="M27.432,54.238v-0.65c0-0.145-0.049-0.23-0.231-0.23h-2.535v-1.049h2.131c0.182,0,0.23-0.087,0.23-0.231
		v-0.619c0-0.141-0.049-0.229-0.23-0.229h-2.131v-0.867h2.4c0.184,0,0.23-0.084,0.23-0.229v-0.659c0-0.143-0.047-0.23-0.23-0.23
		h-3.423c-0.184,0-0.232,0.088-0.232,0.23v4.766c0,0.142,0.049,0.23,0.232,0.23H27.2C27.383,54.469,27.432,54.38,27.432,54.238z"/>
	<path fill="#FFFFFF" d="M34.714,54.469h3.56c0.184,0,0.231-0.089,0.231-0.23v-0.65c0-0.145-0.048-0.23-0.231-0.23h-2.534v-1.049
		h2.131c0.184,0,0.23-0.087,0.23-0.231v-0.619c0-0.141-0.047-0.229-0.23-0.229h-2.131v-0.867h2.4c0.183,0,0.229-0.084,0.229-0.229
		v-0.659c0-0.143-0.047-0.23-0.229-0.23h-3.426c-0.182,0-0.229,0.088-0.229,0.23v4.766C34.484,54.38,34.532,54.469,34.714,54.469z"
		/>
	<path fill="#FFFFFF" d="M46.131,54.238v-1.795h1.771v1.795c0,0.184,0.087,0.23,0.229,0.23h0.789c0.14,0,0.229-0.047,0.229-0.23
		v-4.766c0-0.183-0.09-0.23-0.229-0.23h-0.789c-0.143,0-0.229,0.048-0.229,0.23v1.796h-1.771v-1.796c0-0.183-0.082-0.23-0.232-0.23
		h-0.785c-0.145,0-0.231,0.048-0.231,0.23v4.766c0,0.184,0.087,0.23,0.231,0.23h0.785C46.049,54.469,46.131,54.422,46.131,54.238z"
		/>
	<path fill="#FFFFFF" d="M42.469,54.238c0,0.184,0.088,0.23,0.229,0.23h0.788c0.142,0,0.23-0.047,0.23-0.23v-4.766
		c0-0.143-0.05-0.23-0.23-0.23h-0.749c-0.196,0-0.252,0.111-0.354,0.27l-1.687,2.719v-2.758c0-0.183-0.086-0.23-0.228-0.23h-0.765
		c-0.143,0-0.229,0.048-0.229,0.23v4.766c0,0.142,0.048,0.23,0.229,0.23h0.724c0.196,0,0.253-0.111,0.357-0.271l1.685-2.725V54.238z
		"/>
	<path fill="#FFFFFF" d="M20.353,50.235c0.43,0,0.651,0.119,0.818,0.382c0.063,0.095,0.071,0.246,0.239,0.246h0.762
		c0.183,0,0.248-0.041,0.248-0.229c-0.104-1.01-1.082-1.511-2.067-1.511c-0.944,0-2.128,0.548-2.128,1.795v1.876
		c0,1.246,1.184,1.797,2.128,1.797c0.985,0,2.067-0.646,2.067-1.671c0-0.189-0.065-0.27-0.24-0.27h-0.777
		c-0.176,0-0.19,0.126-0.217,0.285c-0.061,0.382-0.403,0.541-0.833,0.541c-0.524,0-0.884-0.286-0.884-0.794V51.03
		C19.469,50.53,19.828,50.235,20.353,50.235z"/>
	<path fill="#FFFFFF" d="M59.832,48.687c0.679-0.008,1.047-0.341,1.207-0.644h-2.415C58.83,48.479,59.302,48.681,59.832,48.687z"/>
</g>
</svg>
