<svg width="100" height="48" viewBox="0 0 100 48" fill="none" xmlns="http://www.w3.org/2000/svg">
<path fill-rule="evenodd" clip-rule="evenodd" d="M42.688 41.3108C43.2394 41.3108 43.7597 41.5747 44.0926 42.0235L50.6785 47.6937C50.8138 47.8785 51.0999 47.7782 51.0999 47.5512V41.9073C51.0999 41.58 51.36 41.3108 51.6877 41.3108H99.4122C99.7347 41.3108 100 41.0468 100 40.7142V11.3864C100 11.0591 99.7399 10.7898 99.4122 10.7898H30.5878C30.2653 10.7898 30 11.0538 30 11.3864V40.7142C30 41.0415 30.2601 41.3108 30.5878 41.3108H42.688Z" fill="#5E2484"/>
<path d="M44.4724 22.447H38.9581V25.1184H43.7545V27.1247H38.9581V31.8498H36.4715V20.3299H44.4724V22.447Z" fill="white"/>
<path d="M48.426 22.2728H46.1631V20.3299H48.426V22.2728ZM48.426 31.8498H46.1631V23.5029H48.426V31.8498Z" fill="white"/>
<path d="M55.9483 25.4722C55.5477 25.393 55.324 25.3771 55.0691 25.3771C53.5085 25.3771 52.8998 26.5122 52.8998 28.0275V31.8446H50.6369V23.4976H52.7906V25.034C53.3004 23.9517 54.2264 23.3023 55.4541 23.3023C55.631 23.3023 55.7246 23.3181 55.9483 23.3498V25.4722Z" fill="white"/>
<path d="M67.8092 31.8498V26.866C67.8092 25.9421 67.6635 25.1501 66.5034 25.1501C65.3225 25.1501 64.9272 26.0212 64.9272 27.1563V31.8498H62.6642V26.7709C62.6642 25.8787 62.4874 25.1396 61.4209 25.1396C60.1152 25.1396 59.7771 26.1902 59.7771 27.3253V31.8551H57.5141V23.5082H59.6678V24.6591C60.3077 23.751 61.1192 23.2864 62.2793 23.2864C63.3613 23.2864 64.1937 23.7405 64.6047 24.6591C65.2601 23.751 66.1341 23.2864 67.2994 23.2864C69.1461 23.2864 70.1033 24.4691 70.1033 26.2483V31.8604H67.8092V31.8498Z" fill="white"/>
<path d="M74.6188 31.8498H72.3558V23.5029H74.6188V31.8498Z" fill="white"/>
<path d="M81.6 26.5914L85.0594 31.8498H82.3179L80.055 28.1436L79.129 29.0147V31.8446H76.9129V23.4924H79.129V26.4858L82.0318 23.4924H84.6953L81.6 26.5914Z" fill="white"/>
<path d="M91.3593 31.8498C91.25 31.5436 91.2292 31.4116 91.198 31.0421C90.4957 31.7548 89.5229 32.0927 88.5345 32.0927C86.719 32.0927 85.6005 31.1371 85.6005 29.5691C85.6005 27.3834 87.5617 27.1247 89.1848 26.9188C90.6518 26.7234 91.1928 26.5967 91.1928 25.9156C91.1928 25.1554 90.7142 24.8017 89.7102 24.8017C88.675 24.8017 88.2432 25.1237 88.0819 26.0793H85.9594C86.0895 24.2209 87.3952 23.2653 89.7674 23.2653C91.4269 23.2653 93.3517 23.656 93.3517 25.9843V29.5902C93.3517 30.3504 93.3361 31.1424 93.6378 31.8551H91.3593V31.8498ZM89.5905 28.2228C88.8102 28.3548 87.9311 28.4498 87.9311 29.4688C87.9311 30.1657 88.394 30.5827 89.1744 30.5827C90.3552 30.5827 91.1824 29.9175 91.1824 28.7244V27.7846C90.657 28.0961 90.1628 28.1278 89.5905 28.2228Z" fill="white"/>
<path d="M78.4688 16.8544L73.419 21.9325L70.3996 18.9317L71.9712 17.3124L73.419 18.7675L76.8972 15.2719L78.4688 16.8544Z" fill="white"/>
<path fill-rule="evenodd" clip-rule="evenodd" d="M16.6097 31.1076C16.0219 31.1076 15.4652 31.3874 15.1063 31.8678L8.07298 37.9235C7.92732 38.1188 7.62039 38.0132 7.62039 37.7703V31.7411C7.62039 31.3874 7.3395 31.1076 6.99616 31.1076H0.737973C0.389429 31.1076 0.113678 30.8225 0.113678 30.474V1.24129C0.113678 0.887564 0.394632 0.607742 0.737973 0.607742H29.5422C29.8908 0.607742 30.1664 0.892843 30.1664 1.24129V30.474C30.1664 30.8278 29.8856 31.1076 29.5422 31.1076H16.6097Z" fill="#8651C8"/>
<path fill-rule="evenodd" clip-rule="evenodd" d="M19.0157 10.463C19.6133 10.463 20.2034 10.463 20.801 10.463C20.8092 10.3914 20.8181 10.3208 20.8273 10.2502C20.8893 9.77114 20.8161 9.81284 21.3398 9.89395C22.5686 10.0844 21.5076 10.4844 24.1395 10.463C24.1782 9.87327 24.3023 8.46818 24.6829 7.82393C25.8155 7.71853 25.4566 8.22225 25.9993 8.24917C26.5431 8.27643 26.6009 8.30893 26.8189 8.95778C26.9746 9.41946 26.9339 9.869 26.9339 10.463C27.0807 10.463 27.2235 10.463 27.368 10.463C27.5742 10.463 27.5959 10.5405 27.61 10.704C27.6287 10.927 27.6678 10.9565 27.4146 11.0353C27.3227 11.0642 27.2123 11.0754 27.0117 11.0843C26.9559 11.6215 26.8603 12.093 26.7011 12.5022C26.4994 13.022 26.5293 13.0834 26.0453 13.0807C25.3512 13.0771 25.8775 13.4268 24.9932 13.4134C24.5355 13.2535 24.5493 13.3845 24.4665 12.9208C24.3569 12.3094 24.2508 11.6944 24.1395 11.0843C23.5415 11.1076 22.7961 11.061 22.1985 11.0843C22.8822 12.5353 21.0391 15.5221 19.459 17.5718C18.7835 18.4479 18.6627 18.4203 18.3179 17.3617C18.0329 16.4856 17.7501 15.6069 17.4628 14.7328C16.3142 14.9271 15.1495 17.0073 15.5222 18.4594C15.8558 19.122 16.1868 19.787 16.5181 20.4516C17.1686 21.7558 17.3597 22.2431 17.7061 23.6591C18.202 25.6844 18.9175 28.1419 19.4268 30.1968H16.8931C15.7941 27.9032 14.3473 25.0648 13.2709 22.8066C13.1934 22.8299 13.1156 22.8611 13.0381 22.8841C13.2413 25.1656 13.437 27.8891 13.64 30.1968H10.9891C10.5822 27.5929 8.73879 24.4974 9.07898 21.3316C9.25794 19.6812 10.5865 18.8895 10.5537 18.4594C9.5446 18.133 6.86645 12.3419 7.06051 11.0843C6.61787 11.0534 6.09315 11.0872 5.80681 11.0981C5.7766 11.1789 5.69024 11.6668 5.6643 11.7965C5.57695 12.2362 5.54707 12.6732 5.42919 13.0528C5.30474 13.4525 5.33265 13.4134 4.97145 13.4134C4.86046 13.4134 4.75604 13.4134 4.73141 13.4134C4.25331 13.372 4.55869 13.1142 4.04217 13.0696C3.50497 13.0229 3.32469 13.1724 3.14278 12.4099C3.07809 12.139 3.02358 11.7364 2.94576 11.0843C2.46142 11.0659 2.36455 11.0022 2.37703 10.7191C2.39115 10.3872 2.41381 10.463 2.73528 10.463C2.83083 10.463 2.92606 10.463 3.02358 10.463C3.00158 9.73831 3.08335 9.20045 3.27084 8.74861C3.50924 8.172 3.46556 8.25049 3.96599 8.25049C4.45788 8.25114 3.73482 7.89486 5.19703 7.90143C5.73293 8.29711 5.78744 9.59383 5.8183 10.463C6.33844 10.463 6.85069 10.463 7.37082 10.463C7.381 10.3973 7.37771 10.3455 7.37345 10.2959C7.34619 10.0023 7.41679 10.0572 7.69557 9.95306C7.98027 9.84667 8.22161 9.75965 8.54637 9.6687C8.78246 9.60269 8.95354 9.62207 8.88984 9.913C8.84912 10.0962 8.81103 10.2798 8.76834 10.463C9.52129 10.463 10.2663 10.463 11.0196 10.463C11.2291 9.85783 11.6018 9.95864 12.0287 9.60926C11.1671 8.14967 11.7184 3.42219 12.8049 2.77761C13.8846 2.14255 15.025 2.06505 15.84 2.45056C16.7946 2.90173 16.9479 3.8228 17.2044 4.75864C17.5896 6.16306 18.0995 8.23177 19.0157 10.463ZM18.9382 11.0843C18.9149 12.7225 19.1083 14.2215 19.3565 15.487C19.4425 15.467 21.2945 12.756 21.4997 12.4818C21.3989 12.2487 21.4997 12.3885 21.3444 12.2487C20.7622 11.6044 20.2112 11.061 18.9382 11.0843ZM10.7865 11.0843C9.70747 11.0688 8.91578 11.2783 8.30239 11.9384C8.49646 13.3277 9.72323 14.4766 10.3984 15.5093C10.4529 15.4315 10.4995 15.354 10.5537 15.2762C11.0896 14.2205 10.8022 12.5127 10.7865 11.0843Z" fill="white"/>
</svg>
