<svg width="260" height="51" viewBox="0 0 260 51" fill="none" xmlns="http://www.w3.org/2000/svg">
<g clip-path="url(#clip0_16_2)">
<path d="M91.7038 16.8263H76.9957V24.2099H91.4264V32.6327H76.9957V46.6887H68.1152V8.40356H91.7038V16.8263Z" fill="#181D31"/>
<path d="M104.332 15.5137C103.37 16.4617 102.204 16.9357 100.835 16.9357C99.466 16.9357 98.282 16.4617 97.283 15.5137C96.3208 14.5292 95.8398 13.3624 95.8398 12.0133C95.8398 10.6642 96.3208 9.51568 97.283 8.56765C98.282 7.58319 99.466 7.09094 100.835 7.09094C102.204 7.09094 103.37 7.58319 104.332 8.56765C105.331 9.51568 105.83 10.6642 105.83 12.0133C105.83 13.3624 105.331 14.5292 104.332 15.5137ZM96.6724 46.6888V19.3422H104.998V46.6888H96.6724Z" fill="#181D31"/>
<path d="M127.353 27.2181H121.636V36.8987C121.636 37.9926 122.08 38.6853 122.968 38.9771C123.856 39.269 125.317 39.36 127.353 39.2507V46.6888C122.061 47.2359 118.398 46.7436 116.363 45.2122C114.328 43.6443 113.31 40.8731 113.31 36.8987V27.2181H108.87V19.3422H113.31V14.1464L121.636 11.6852V19.3422H127.353V27.2181Z" fill="#181D31"/>
<path d="M145.942 47.4545C141.983 47.4545 138.671 46.6159 136.007 44.9386C133.38 43.2248 131.511 40.9096 130.401 37.9925L138.061 33.6172C139.615 37.1539 142.334 38.9222 146.22 38.9222C149.735 38.9222 151.492 37.8832 151.492 35.805C151.492 34.6745 150.919 33.7993 149.772 33.1797C148.662 32.5233 146.552 31.7757 143.444 30.9371C141.816 30.4996 140.392 30.0073 139.171 29.4605C137.95 28.9134 136.747 28.2024 135.563 27.3275C134.416 26.4159 133.528 25.2855 132.899 23.9364C132.307 22.5873 132.011 21.0377 132.011 19.2875C132.011 15.7507 133.287 12.9248 135.841 10.81C138.431 8.69524 141.502 7.63782 145.054 7.63782C148.236 7.63782 151.048 8.38531 153.49 9.88024C155.933 11.3387 157.857 13.4718 159.263 16.2794L151.77 20.6001C151.067 19.1416 150.197 18.0478 149.161 17.3185C148.125 16.5528 146.756 16.17 145.054 16.17C143.722 16.17 142.686 16.4617 141.946 17.0451C141.243 17.592 140.891 18.2665 140.891 19.0687C140.891 20.0167 141.335 20.8371 142.223 21.5299C143.148 22.2227 145.036 22.9884 147.884 23.827C149.439 24.301 150.641 24.6839 151.492 24.9756C152.343 25.2673 153.416 25.7595 154.712 26.4523C156.043 27.1086 157.043 27.8195 157.709 28.5853C158.412 29.3146 159.022 30.2992 159.54 31.5387C160.095 32.742 160.373 34.1277 160.373 35.6953C160.373 39.3417 159.041 42.2223 156.376 44.337C153.712 46.4154 150.234 47.4545 145.942 47.4545Z" fill="#181D31"/>
<path d="M179.982 27.2181H174.266V36.8987C174.266 37.9926 174.71 38.6853 175.598 38.9771C176.486 39.269 177.947 39.36 179.982 39.2507V46.6888C174.691 47.2359 171.028 46.7436 168.993 45.2122C166.958 43.6443 165.94 40.8731 165.94 36.8987V27.2181H161.5V19.3422H165.94V14.1464L174.266 11.6852V19.3422H179.982V27.2181Z" fill="#181D31"/>
<path d="M204.302 19.3422H212.627V46.6888H204.302V44.1183C202.341 46.3424 199.584 47.4546 196.032 47.4546C192.369 47.4546 189.242 46.0691 186.652 43.298C184.062 40.4902 182.767 37.0629 182.767 33.0156C182.767 28.9683 184.062 25.559 186.652 22.7879C189.242 19.9803 192.369 18.5765 196.032 18.5765C199.584 18.5765 202.341 19.6886 204.302 21.9128V19.3422ZM192.924 37.8832C194.145 39.0865 195.736 39.6881 197.697 39.6881C199.658 39.6881 201.249 39.0865 202.47 37.8832C203.691 36.68 204.302 35.0575 204.302 33.0156C204.302 30.9737 203.691 29.3512 202.47 28.148C201.249 26.9446 199.658 26.343 197.697 26.343C195.736 26.343 194.145 26.9446 192.924 28.148C191.703 29.3512 191.092 30.9737 191.092 33.0156C191.092 35.0575 191.703 36.68 192.924 37.8832Z" fill="#181D31"/>
<path d="M227.061 24.2099C227.579 22.4597 228.615 21.1289 230.169 20.2173C231.76 19.2693 233.499 18.7953 235.386 18.7953V28.0931C233.351 27.765 231.445 28.1114 229.669 29.1322C227.93 30.1167 227.061 31.8488 227.061 34.3282V46.6887H218.735V19.3422H227.061V24.2099Z" fill="#181D31"/>
<path d="M246.346 27.3276C246.346 27.8744 246.809 28.3301 247.734 28.6948C248.696 29.0229 249.843 29.3692 251.175 29.7339C252.507 30.0622 253.839 30.4997 255.171 31.0465C256.503 31.5936 257.632 32.505 258.557 33.7814C259.519 35.021 260 36.5889 260 38.4849C260 41.4382 258.89 43.6809 256.67 45.2122C254.45 46.707 251.712 47.4546 248.455 47.4546C242.609 47.4546 238.632 45.285 236.522 40.946L243.738 36.8987C244.478 39.05 246.05 40.1256 248.455 40.1256C250.454 40.1256 251.453 39.5605 251.453 38.4303C251.453 37.8832 250.971 37.4275 250.01 37.0629C249.084 36.6982 247.956 36.3519 246.624 36.0238C245.292 35.6591 243.96 35.2034 242.628 34.6563C241.295 34.073 240.149 33.1798 239.186 31.9765C238.261 30.7732 237.799 29.2964 237.799 27.5463C237.799 24.7022 238.835 22.4962 240.907 20.9283C243.016 19.3605 245.606 18.5765 248.677 18.5765C250.971 18.5765 253.062 19.087 254.949 20.108C256.836 21.0924 258.353 22.5327 259.5 24.4287L252.396 28.2025C251.508 26.5982 250.268 25.7961 248.677 25.7961C247.123 25.7961 246.346 26.3065 246.346 27.3276Z" fill="#181D31"/>
<path d="M33.6462 14.1219L30.1757 2.24979C29.2993 -0.749935 24.9711 -0.74993 24.0946 2.2498L20.5615 14.1219H33.6462Z" fill="#EF16B0"/>
<path d="M50.9907 17.1025L37.1471 17.5742H17.1233L3.2799 17.1025C0.104226 16.9943 -1.23323 21.037 1.40071 22.7827L12.8826 30.3927C14.086 31.1902 14.5821 32.6899 14.0859 34.0298L9.35125 46.8147C8.26512 49.7477 11.7666 52.2461 14.271 50.3253L25.1883 41.952C26.3325 41.0747 27.938 41.0747 29.0823 41.952L39.9996 50.3253C42.5038 52.2461 46.0053 49.7477 44.9194 46.8147L40.1845 34.0298C39.6884 32.6899 40.1845 31.1902 41.3879 30.3927L52.8697 22.7827C55.5038 21.037 54.1664 16.9943 50.9907 17.1025Z" fill="#EF16B0"/>
</g>
<defs>
<clipPath id="clip0_16_2">
<rect width="260" height="51" fill="white"/>
</clipPath>
</defs>
</svg>
