<svg width="250" height="54" viewBox="0 0 250 54" fill="none" xmlns="http://www.w3.org/2000/svg">
<path fill-rule="evenodd" clip-rule="evenodd" d="M171.363 44.4455C171.643 44.6221 171.861 44.8706 172.011 45.1666C172.156 45.4552 172.223 45.7711 172.223 46.0933V50.081C172.223 50.4031 172.156 50.7191 172.011 51.0077C171.858 51.3109 171.632 51.5634 171.341 51.7403C171.049 51.9186 170.72 52.0061 170.377 52.0061C170.035 52.0061 169.704 51.9178 169.412 51.7389C169.123 51.5621 168.897 51.3099 168.745 51.0077C168.74 50.9975 168.734 50.9872 168.729 50.9769L168.547 51.2226C168.387 51.4381 168.189 51.6227 167.958 51.7604C167.682 51.9254 167.37 52.0075 167.049 52.0061C166.708 52.0042 166.381 51.9176 166.09 51.7397C165.8 51.5633 165.575 51.3113 165.422 51.0086C165.276 50.7198 165.209 50.4033 165.209 50.081V46.0933C165.209 45.7705 165.276 45.4546 165.422 45.1658C165.575 44.8636 165.798 44.611 166.087 44.434C166.053 44.2834 166.036 44.1286 166.036 43.9716C166.035 43.6953 166.1 43.4267 166.232 43.184C166.368 42.9357 166.562 42.7302 166.804 42.5837C167.056 42.4314 167.343 42.3556 167.637 42.355C167.96 42.3546 168.274 42.4347 168.544 42.6169C168.617 42.666 168.671 42.7013 168.712 42.7296C168.758 42.6996 168.821 42.6635 168.933 42.5941C169.199 42.4293 169.504 42.3546 169.815 42.355C170.109 42.3556 170.396 42.4312 170.648 42.5837C170.891 42.7304 171.085 42.9367 171.22 43.1855C171.352 43.4283 171.418 43.6976 171.417 43.9743C171.416 44.1342 171.398 44.292 171.363 44.4455ZM231.004 50.9476C230.996 50.9679 230.987 50.9878 230.977 51.0077C230.823 51.3103 230.597 51.5627 230.308 51.7395C230.016 51.9184 229.686 52.0061 229.343 52.0061C229.002 52.0061 228.672 51.9186 228.379 51.7397C228.089 51.5629 227.863 51.3103 227.711 51.0069C227.566 50.7183 227.498 50.4028 227.498 50.081V46.0933C227.498 45.7715 227.566 45.456 227.711 45.1676C227.863 44.8638 228.089 44.6101 228.379 44.4326C228.672 44.254 229.002 44.1678 229.343 44.1678C229.686 44.1678 230.016 44.2542 230.308 44.4328C230.599 44.6101 230.823 44.8636 230.975 45.1666C230.987 45.1869 230.995 45.2066 231.004 45.2271C231.014 45.2072 231.024 45.1875 231.034 45.1676C231.186 44.8643 231.412 44.611 231.7 44.4334C231.993 44.2546 232.325 44.1678 232.666 44.1678C233.009 44.1678 233.339 44.254 233.631 44.432C233.922 44.6095 234.146 44.863 234.3 45.1666C234.444 45.4552 234.511 45.7711 234.511 46.0933V50.081C234.511 50.4031 234.444 50.7191 234.3 51.0077C234.148 51.3113 233.92 51.5634 233.631 51.7403C233.337 51.9186 233.009 52.0061 232.666 52.0061C232.325 52.0061 231.993 51.9178 231.7 51.7389C231.412 51.5619 231.186 51.3099 231.034 51.0069C231.024 50.9872 231.014 50.9677 231.004 50.9476ZM222.72 50.9765L222.537 51.2228C222.377 51.4384 222.18 51.6227 221.948 51.7604C221.673 51.925 221.361 52.0075 221.039 52.0061C220.698 52.0042 220.372 51.9178 220.08 51.7397C219.791 51.5633 219.565 51.3117 219.413 51.0085C219.267 50.7198 219.2 50.4033 219.2 50.081V46.0933C219.2 45.7709 219.267 45.4546 219.413 45.1658C219.565 44.8624 219.791 44.6097 220.08 44.4326C220.374 44.254 220.704 44.1678 221.045 44.1678C221.387 44.1678 221.718 44.2542 222.011 44.4328C222.297 44.6087 222.521 44.8591 222.674 45.1592L222.742 45.0668C222.917 44.8289 223.128 44.6216 223.378 44.4624C223.676 44.2731 224.013 44.1682 224.368 44.1678C224.709 44.1674 225.039 44.254 225.332 44.4326C225.622 44.6095 225.848 44.8628 226 45.1658C226.147 45.4544 226.213 45.7709 226.213 46.0933V50.081C226.213 50.4033 226.147 50.7198 226 51.0085C225.848 51.3113 225.622 51.5633 225.332 51.7397C225.039 51.9186 224.709 52.0061 224.368 52.0061C224.025 52.0061 223.695 51.918 223.403 51.7391C223.114 51.5623 222.888 51.3101 222.736 51.0077C222.73 50.9971 222.724 50.9868 222.72 50.9765ZM212.806 47.876C212.599 47.7986 212.406 47.6804 212.241 47.5219C211.903 47.2021 211.73 46.7735 211.728 46.3101C211.726 45.9252 211.849 45.5593 212.079 45.2518C212.264 45.0063 212.498 44.8133 212.763 44.6629C212.989 44.5352 213.233 44.4365 213.483 44.3645C213.719 44.2969 213.959 44.2468 214.202 44.2146C214.438 44.1832 214.676 44.1672 214.914 44.1678C215.41 44.1688 215.905 44.2489 216.357 44.4527C216.794 44.6492 217.172 44.9414 217.443 45.3396C217.716 45.7397 217.853 46.1986 217.853 46.6828C217.855 46.978 217.802 47.2664 217.697 47.5424C217.674 47.6052 217.648 47.6662 217.619 47.7261C217.72 47.8727 217.806 48.0301 217.876 48.1966C218.009 48.5172 218.075 48.8571 218.075 49.2042C218.075 49.5962 217.991 49.9761 217.826 50.3302C217.662 50.6787 217.426 50.9841 217.135 51.2362C216.839 51.4932 216.496 51.6812 216.125 51.8099C215.735 51.9457 215.326 52.0053 214.914 52.0061C214.631 52.0067 214.349 51.9843 214.068 51.9398C213.797 51.8965 213.53 51.8337 213.268 51.744C213.015 51.6567 212.769 51.5447 212.541 51.4028C212.286 51.2444 212.061 51.0463 211.886 50.8025C211.669 50.5042 211.548 50.1555 211.546 49.7865C211.544 49.4932 211.619 49.2103 211.755 48.9519C211.899 48.6804 212.112 48.4566 212.371 48.2932C212.51 48.2058 212.658 48.1401 212.81 48.0956C212.806 48.0461 212.804 47.9964 212.804 47.9464C212.804 47.9228 212.806 47.8996 212.806 47.876ZM207.855 51.7898C207.43 51.9552 207.74 51.8665 207.278 51.9511C207.087 51.9866 206.89 52.0061 206.695 52.0061C206.312 52.0061 205.93 51.9591 205.564 51.8482C205.193 51.7358 204.85 51.5609 204.548 51.316C204.232 51.0599 203.988 50.7384 203.82 50.3686C203.647 49.9862 203.571 49.5736 203.571 49.1549C203.571 48.7362 203.651 48.3222 203.836 47.9451C203.98 47.6516 204.171 47.3918 204.411 47.1723C204.405 47.1613 204.399 47.1504 204.395 47.1393C204.28 46.8973 204.224 46.6358 204.226 46.369C204.228 45.9956 204.358 45.645 204.585 45.3505C204.756 45.1284 204.969 44.9451 205.205 44.7936C205.417 44.6567 205.647 44.5445 205.883 44.4539C206.117 44.3638 206.359 44.2943 206.605 44.245C206.853 44.1955 207.106 44.1678 207.358 44.1678C207.886 44.1678 208.42 44.239 208.912 44.4363C209.407 44.6352 209.832 44.954 210.131 45.401C210.431 45.8513 210.562 46.371 210.562 46.909V50.1112C210.562 50.4164 210.497 50.7142 210.365 50.9897C210.22 51.2895 210.002 51.5416 209.723 51.7224C209.433 51.9113 209.097 52.0018 208.752 52.0061C208.502 52.0092 208.253 51.9642 208.021 51.8684C207.964 51.8452 207.908 51.8189 207.855 51.7898ZM200.562 47.7969V50.081C200.562 50.4037 200.495 50.7196 200.349 51.0086C200.197 51.3109 199.971 51.5629 199.682 51.7395C199.39 51.9184 199.06 52.0061 198.717 52.0061C198.376 52.0061 198.046 51.9184 197.754 51.7397C197.463 51.5629 197.237 51.3103 197.085 51.0069C196.94 50.7185 196.872 50.4028 196.872 50.081V46.0424C196.872 45.73 196.952 45.4264 197.11 45.1569C197.262 44.8963 197.475 44.6824 197.734 44.5295C198.007 44.3692 198.311 44.2887 198.627 44.2887H201.063C201.32 44.2887 201.574 44.3304 201.816 44.4236C202.13 44.5457 202.393 44.7561 202.584 45.034C202.791 45.3333 202.878 45.6822 202.878 46.0426C202.878 46.3983 202.789 46.7415 202.588 47.0377C202.401 47.3117 202.145 47.5196 201.841 47.6469C201.593 47.7497 201.33 47.7969 201.063 47.7969H200.562ZM192.98 51.7898C192.557 51.955 192.864 51.8667 192.403 51.9511C192.21 51.9866 192.015 52.0061 191.819 52.0061C191.436 52.0061 191.055 51.9591 190.689 51.8483C190.317 51.7358 189.974 51.5609 189.672 51.3158C189.358 51.0599 189.114 50.7384 188.945 50.3698C188.771 49.9872 188.695 49.5738 188.695 49.1549C188.695 48.7362 188.776 48.3222 188.961 47.9451C189.105 47.652 189.298 47.3922 189.536 47.1728C189.531 47.1625 189.526 47.1522 189.521 47.1416C189.406 46.8992 189.348 46.6368 189.35 46.369C189.352 45.9956 189.483 45.6457 189.711 45.3511C189.882 45.1292 190.093 44.9451 190.329 44.7937C190.542 44.6567 190.772 44.5445 191.008 44.4539C191.243 44.3638 191.484 44.2943 191.731 44.245C191.979 44.1953 192.231 44.1678 192.484 44.1678C193.011 44.1678 193.545 44.2391 194.037 44.4363C194.532 44.6348 194.957 44.9537 195.255 45.3998C195.558 45.8503 195.686 46.3704 195.686 46.909V50.1112C195.686 50.416 195.622 50.7138 195.491 50.9888C195.347 51.2893 195.127 51.5416 194.848 51.723C194.557 51.9109 194.223 52.0018 193.878 52.0061C193.627 52.0092 193.378 51.9642 193.145 51.8684C193.088 51.8452 193.033 51.8189 192.98 51.7898ZM184.599 51.4765C184.469 51.6046 184.319 51.7113 184.155 51.7959C183.868 51.9437 183.549 52.0061 183.228 52.0061C182.909 52.0061 182.591 51.9429 182.306 51.7955C182.145 51.7124 181.997 51.6087 181.869 51.4845C181.751 51.6013 181.617 51.7009 181.468 51.7815C181.179 51.9388 180.856 52.0065 180.528 52.0061C180.201 52.0059 179.884 51.9242 179.603 51.7563C179.333 51.5954 179.115 51.3706 178.961 51.0974C178.805 50.822 178.726 50.5159 178.724 50.1994C178.724 50.0849 178.724 50.1453 178.726 50.0726C178.733 49.8844 178.754 49.8474 178.754 49.8437L179.477 45.7278C179.53 45.4219 179.67 45.1455 179.869 44.9086C180.056 44.6859 180.287 44.5104 180.548 44.3819C180.841 44.2374 181.16 44.1678 181.486 44.1678C181.797 44.1678 182.103 44.2321 182.385 44.3643C182.636 44.4819 182.862 44.6432 183.049 44.8478C183.116 44.9213 183.177 44.9985 183.233 45.0798C183.289 44.9979 183.351 44.9199 183.419 44.8456C183.607 44.6422 183.831 44.4813 184.082 44.3643C184.363 44.2325 184.669 44.1682 184.979 44.1678C185.308 44.1674 185.63 44.2354 185.926 44.3799C186.191 44.5086 186.426 44.6873 186.614 44.9145C186.809 45.151 186.947 45.4244 187 45.728L187.711 49.7844C187.755 49.9404 187.747 50.017 187.749 50.0664C187.752 50.1395 187.753 50.0824 187.752 50.2007C187.75 50.5127 187.675 50.815 187.523 51.0884C187.37 51.3661 187.149 51.5931 186.877 51.7557C186.594 51.925 186.276 52.0059 185.948 52.0061C185.621 52.0065 185.3 51.9388 185.011 51.7826C184.857 51.6999 184.719 51.5974 184.599 51.4765ZM160.431 50.9771L160.248 51.2226C160.088 51.4381 159.891 51.6227 159.66 51.7604C159.384 51.925 159.072 52.0075 158.751 52.0061C158.41 52.0042 158.083 51.9178 157.791 51.7397C157.502 51.5633 157.275 51.3113 157.122 51.0085C156.977 50.7198 156.911 50.4033 156.911 50.081V46.0933C156.911 45.7709 156.977 45.4544 157.123 45.1658C157.276 44.863 157.501 44.6095 157.791 44.4326C158.084 44.2538 158.414 44.1678 158.756 44.1678C159.098 44.1678 159.428 44.2544 159.72 44.4326C160.008 44.6083 160.232 44.8591 160.384 45.1594L160.452 45.0668C160.627 44.8289 160.838 44.6218 161.088 44.4628C161.386 44.2731 161.725 44.1682 162.078 44.1678C162.42 44.1674 162.751 44.2536 163.044 44.4328C163.334 44.6101 163.559 44.863 163.711 45.1658C163.857 45.4546 163.923 45.7709 163.923 46.0933V50.081C163.923 50.4033 163.857 50.7198 163.712 51.0086C163.559 51.3109 163.333 51.5629 163.044 51.7395C162.751 51.9186 162.422 52.0061 162.079 52.0061C161.737 52.0061 161.406 51.918 161.114 51.7395C160.825 51.5627 160.598 51.3109 160.446 51.0077C160.441 50.9975 160.436 50.9872 160.431 50.9771ZM152.578 51.056C152.427 51.3372 152.209 51.5718 151.936 51.7391C151.643 51.9184 151.313 52.0061 150.971 52.0061C150.628 52.0061 150.299 51.9186 150.006 51.7397C149.716 51.5633 149.49 51.3107 149.337 51.0077C149.192 50.7191 149.126 50.4031 149.126 50.081V46.0933C149.126 45.7711 149.192 45.4552 149.338 45.1666C149.49 44.8632 149.716 44.6097 150.006 44.4326C150.299 44.254 150.629 44.1678 150.971 44.1678C151.313 44.1678 151.643 44.2544 151.936 44.433C152.14 44.5582 152.313 44.7214 152.45 44.9135L152.493 44.8641C152.775 44.5408 152.667 44.6496 152.969 44.4673C153.282 44.2776 153.138 44.3446 153.46 44.2485C153.764 44.1576 153.668 44.1647 154.002 44.1678C154.34 44.1707 154.664 44.2694 154.943 44.4601C155.19 44.6278 155.384 44.8499 155.521 45.114C155.654 45.3716 155.726 45.6526 155.726 45.9425C155.726 46.2347 155.651 46.5188 155.511 46.7744C155.321 47.1208 155.48 46.9332 155.126 47.2965L154.507 47.9334L155.518 48.9158C155.724 49.1167 155.878 49.3647 155.959 49.6418C156.063 49.9968 156.043 49.8657 156.038 50.2198C156.033 50.5338 155.956 50.8382 155.799 51.1114C155.642 51.3858 155.418 51.6097 155.144 51.7668C154.865 51.9275 154.552 52.0071 154.231 52.0061C153.958 52.0055 153.695 51.9384 153.454 51.8097C153.135 51.6381 153.279 51.7411 153.001 51.4837C152.905 51.395 152.812 51.3047 152.722 51.2091L152.578 51.056ZM145.34 48.4326C145.414 48.4117 145.486 48.3874 145.557 48.3602C145.651 48.3244 145.744 48.2893 145.838 48.254C146.085 48.1615 146.055 48.1397 146.408 48.1362C146.728 48.1333 147.038 48.2161 147.313 48.3809C147.57 48.5346 147.776 48.7481 147.926 49.0063C148.084 49.2778 148.164 49.5818 148.163 49.8957C148.161 50.2897 148.034 50.6611 147.792 50.9718C147.607 51.2091 147.375 51.4006 147.113 51.5457C146.897 51.6654 146.669 51.7585 146.433 51.8273C146.23 51.8864 146.023 51.9338 145.814 51.9634C145.633 51.9891 145.449 52.0071 145.266 52.0061C144.738 52.0042 144.22 51.9024 143.739 51.6816C143.282 51.472 142.88 51.1765 142.547 50.8002C142.223 50.4332 141.975 50.0135 141.807 49.5531C141.636 49.0845 141.552 48.595 141.553 48.097C141.553 47.6978 141.608 47.3023 141.721 46.9195C141.831 46.5459 141.994 46.19 142.205 45.8624C142.418 45.5317 142.678 45.2378 142.981 44.9872C143.293 44.729 143.645 44.5272 144.025 44.3866C144.424 44.2395 144.842 44.1695 145.266 44.1678C145.452 44.1672 145.637 44.1814 145.821 44.2056C146.03 44.2333 146.237 44.2752 146.44 44.3312C146.668 44.3942 146.891 44.4784 147.101 44.5878C147.362 44.7237 147.594 44.9047 147.781 45.1331C148.029 45.4363 148.16 45.8056 148.163 46.1974C148.165 46.5691 148.174 46.449 148.074 46.7725C147.977 47.0822 148.048 46.9617 147.816 47.2984C147.591 47.6264 147.654 47.5679 147.316 47.7805C147.067 47.9367 146.784 48.0182 146.489 48.0182C146.081 48.0186 146.238 48.0326 145.888 47.924C145.768 47.8868 145.65 47.8437 145.534 47.7973C145.474 47.7737 145.412 47.7547 145.337 47.7368C145.332 47.7368 145.327 47.7368 145.325 47.7358C145.302 47.7705 145.286 47.8082 145.275 47.8484C145.252 47.9301 145.242 48.0131 145.242 48.0976C145.242 48.1652 145.25 48.2312 145.271 48.2957C145.286 48.3441 145.307 48.3887 145.338 48.4295C145.339 48.4304 145.34 48.4316 145.34 48.4326ZM139.179 47.7947V50.081C139.179 50.4026 139.113 50.7185 138.968 51.0069C138.816 51.3103 138.589 51.5629 138.299 51.7397C138.006 51.9186 137.677 52.0061 137.334 52.0061C136.993 52.0061 136.661 51.9178 136.37 51.7391C136.08 51.5617 135.853 51.3095 135.7 51.0059C135.556 50.7177 135.49 50.4024 135.49 50.081V47.7945C135.055 47.7729 134.648 47.6118 134.335 47.2982C133.998 46.9607 133.838 46.5133 133.839 46.0404C133.839 45.7278 133.917 45.425 134.074 45.1545C134.228 44.8907 134.441 44.6769 134.705 44.5241C134.976 44.3669 135.279 44.2887 135.592 44.2887H139.077C139.334 44.2887 139.589 44.3304 139.829 44.4238C140.143 44.5463 140.408 44.7575 140.598 45.0359C140.803 45.3353 140.891 45.683 140.891 46.0426C140.891 46.3975 140.802 46.7401 140.602 47.0358C140.416 47.3105 140.16 47.519 139.854 47.6467C139.639 47.7362 139.411 47.7838 139.179 47.7947ZM133.001 48.9505C133.102 49.1719 133.156 49.4109 133.156 49.6569C133.157 50.0463 133.016 50.4076 132.778 50.7124C132.598 50.9425 132.373 51.1344 132.129 51.2939C131.894 51.447 131.643 51.5718 131.382 51.6742C131.115 51.7787 130.839 51.8575 130.559 51.915C130.267 51.9745 129.97 52.0055 129.672 52.0061C129.14 52.0071 128.618 51.9135 128.126 51.7087C127.659 51.5139 127.239 51.2323 126.889 50.8657C126.542 50.5008 126.277 50.0759 126.099 49.604C125.916 49.1208 125.831 48.6128 125.832 48.0966C125.832 47.6976 125.887 47.3023 126 46.9195C126.11 46.5461 126.273 46.1904 126.483 45.863C126.696 45.5322 126.957 45.238 127.26 44.9872C127.572 44.729 127.924 44.5272 128.304 44.3866C128.704 44.239 129.123 44.1678 129.549 44.1678C129.987 44.1678 130.417 44.243 130.826 44.4004C131.203 44.5453 131.55 44.7491 131.861 45.0071C132.156 45.2522 132.412 45.5365 132.625 45.8558C132.829 46.1619 132.99 46.495 133.103 46.8452C133.215 47.1937 133.276 47.5551 133.278 47.9213C133.278 48.29 133.197 48.6471 133.001 48.9505ZM121.637 51.8854H120.703C120.67 52.0685 120.613 52.2466 120.528 52.4156C120.376 52.7191 120.151 52.972 119.861 53.1496C119.569 53.3296 119.238 53.4162 118.894 53.4162C118.552 53.4162 118.221 53.33 117.928 53.1502C117.639 52.973 117.414 52.7206 117.261 52.4176C117.116 52.1292 117.049 51.8134 117.049 51.4913V50.3027C117.049 49.9802 117.116 49.6643 117.262 49.3753C117.415 49.0718 117.641 48.8179 117.932 48.6411C117.967 48.6192 118.004 48.5987 118.041 48.58C118.086 48.3402 118.12 48.098 118.144 47.8556C118.2 47.3099 118.215 46.7577 118.218 46.2095C118.219 45.8825 118.282 45.5601 118.431 45.2672C118.587 44.9581 118.822 44.7039 119.122 44.5309C119.41 44.3645 119.731 44.2887 120.063 44.2887H122.641C122.984 44.2887 123.315 44.3753 123.608 44.5554C123.896 44.7327 124.121 44.9843 124.273 45.2859C124.418 45.5753 124.485 45.8911 124.485 46.214V48.6902C124.741 48.8643 124.942 49.1021 125.081 49.3799C125.224 49.668 125.291 49.9815 125.291 50.3027V51.4913C125.291 51.8117 125.224 52.1255 125.081 52.4129C124.93 52.7167 124.703 52.9712 124.414 53.1494C124.121 53.3296 123.789 53.4162 123.446 53.4162C123.104 53.4162 122.773 53.3294 122.48 53.1502C122.191 52.9726 121.965 52.7196 121.813 52.4156C121.728 52.2469 121.67 52.0685 121.637 51.8854Z" fill="white"/>
<path fill-rule="evenodd" clip-rule="evenodd" d="M233.391 50.0807V46.093C233.389 45.9298 233.36 45.789 233.3 45.6698C233.239 45.5491 233.155 45.4549 233.048 45.388C232.939 45.3223 232.812 45.2892 232.666 45.2868C232.522 45.2888 232.395 45.3223 232.286 45.388C232.178 45.4549 232.094 45.5491 232.034 45.6698C231.974 45.789 231.944 45.9298 231.942 46.093V47.3416H230.068V46.093C230.066 45.9298 230.037 45.789 229.977 45.6698C229.916 45.5491 229.832 45.4549 229.723 45.388C229.616 45.3223 229.489 45.2892 229.343 45.2868C229.197 45.2888 229.072 45.3223 228.963 45.388C228.855 45.4549 228.772 45.5491 228.711 45.6698C228.651 45.789 228.619 45.9298 228.617 46.093V50.0807C228.619 50.2433 228.651 50.3847 228.711 50.5043C228.772 50.625 228.855 50.719 228.963 50.7841C229.072 50.8514 229.197 50.8849 229.343 50.8865C229.489 50.8845 229.616 50.8514 229.723 50.7841C229.832 50.719 229.916 50.625 229.977 50.5043C230.037 50.3847 230.066 50.2433 230.068 50.0807V48.6105H231.942V50.0807C231.942 50.2433 231.974 50.3847 232.034 50.5043C232.094 50.625 232.178 50.719 232.286 50.7841C232.395 50.8514 232.522 50.8849 232.666 50.8865C232.812 50.8845 232.939 50.8514 233.048 50.7841C233.155 50.719 233.239 50.625 233.3 50.5043C233.36 50.3847 233.391 50.2433 233.391 50.0807ZM225.094 50.0807V46.093C225.092 45.9298 225.062 45.789 225.002 45.6698C224.94 45.5491 224.858 45.4549 224.749 45.388C224.639 45.3223 224.515 45.2892 224.368 45.2868C224.232 45.2888 224.101 45.3289 223.978 45.4064C223.855 45.4851 223.744 45.5926 223.643 45.7303L221.79 48.2482H221.771V46.093C221.769 45.9298 221.738 45.789 221.677 45.6698C221.617 45.5491 221.533 45.4549 221.426 45.388C221.316 45.3223 221.192 45.2892 221.045 45.2868C220.899 45.2888 220.772 45.3223 220.663 45.388C220.556 45.4549 220.472 45.5491 220.412 45.6698C220.351 45.789 220.322 45.9298 220.32 46.093V50.0807C220.322 50.2433 220.351 50.3847 220.412 50.5043C220.472 50.625 220.556 50.719 220.663 50.7841C220.772 50.8514 220.899 50.8849 221.045 50.8865C221.168 50.8865 221.279 50.8562 221.375 50.7991C221.47 50.7422 221.56 50.6601 221.638 50.5544L223.623 47.8855H223.643V50.0807C223.645 50.2433 223.676 50.3847 223.734 50.5043C223.795 50.625 223.879 50.719 223.988 50.7841C224.095 50.8514 224.224 50.8849 224.368 50.8865C224.515 50.8845 224.639 50.8514 224.749 50.7841C224.858 50.719 224.94 50.625 225.002 50.5043C225.062 50.3847 225.092 50.2433 225.094 50.0807ZM214.538 48.5399C214.743 48.538 214.918 48.5489 215.07 48.5739C215.218 48.5986 215.335 48.6491 215.419 48.7279C215.503 48.8069 215.544 48.9245 215.546 49.0836C215.546 49.1928 215.519 49.2888 215.464 49.3724C215.408 49.458 215.326 49.5251 215.217 49.5741C215.107 49.6228 214.973 49.6462 214.811 49.6482C214.651 49.6462 214.516 49.6294 214.401 49.5957C214.286 49.5626 214.187 49.5206 214.101 49.4697C214.015 49.4212 213.933 49.3709 213.857 49.3223C213.779 49.2716 213.699 49.2297 213.614 49.1963C213.53 49.1628 213.43 49.1464 213.321 49.1441C213.183 49.146 213.066 49.178 212.968 49.2398C212.871 49.3003 212.795 49.3793 212.746 49.4752C212.693 49.5721 212.666 49.6733 212.666 49.7786C212.668 49.9097 212.709 50.0323 212.791 50.145C212.874 50.2591 212.986 50.3613 213.132 50.452C213.276 50.5425 213.446 50.6199 213.635 50.6852C213.824 50.7505 214.027 50.7991 214.245 50.8344C214.462 50.8681 214.686 50.8865 214.912 50.8865C215.226 50.8845 215.507 50.8395 215.759 50.7525C216.008 50.6649 216.225 50.544 216.402 50.3902C216.58 50.2353 216.718 50.0555 216.812 49.8543C216.907 49.6511 216.954 49.4346 216.956 49.2047C216.954 49.0021 216.917 48.8089 216.841 48.6254C216.767 48.444 216.66 48.2849 216.519 48.1489C216.383 48.0115 216.219 47.9106 216.03 47.8453C216.178 47.7663 216.305 47.6673 216.408 47.5468C216.515 47.4272 216.595 47.2931 216.65 47.147C216.706 46.9992 216.734 46.8467 216.734 46.6868C216.732 46.4186 216.662 46.18 216.519 45.9699C216.377 45.7607 216.17 45.5943 215.899 45.4736C215.628 45.351 215.3 45.2892 214.912 45.2868C214.729 45.2868 214.542 45.2987 214.349 45.3239C214.156 45.3494 213.972 45.388 213.793 45.4399C213.616 45.4904 213.456 45.5573 213.313 45.6378C213.171 45.7172 213.058 45.8122 212.974 45.9235C212.892 46.0341 212.849 46.1616 212.847 46.3046C212.851 46.474 212.904 46.608 213.011 46.7104C213.118 46.8128 213.261 46.865 213.442 46.8681C213.539 46.8672 213.635 46.8467 213.727 46.8098C213.818 46.7722 213.914 46.7307 214.013 46.6817C214.115 46.6333 214.226 46.5912 214.353 46.5542C214.477 46.5175 214.624 46.4974 214.791 46.4959C214.94 46.4978 215.059 46.5156 215.146 46.5561C215.234 46.5947 215.296 46.6452 215.332 46.7074C215.369 46.7693 215.386 46.8364 215.384 46.9085C215.384 47.006 215.359 47.0862 215.308 47.1488C215.261 47.2108 215.195 47.2576 215.113 47.2931C215.031 47.3264 214.94 47.35 214.842 47.3635C214.743 47.3771 214.641 47.3818 214.538 47.3818C214.419 47.3818 214.316 47.4054 214.224 47.4489C214.13 47.4943 214.058 47.56 214.006 47.6437C213.953 47.7277 213.926 47.8282 213.924 47.9461C213.926 48.0633 213.953 48.1673 214.006 48.2562C214.058 48.3455 214.13 48.414 214.224 48.4647C214.316 48.5132 214.419 48.5384 214.538 48.5399ZM208.054 48.5906C208.056 48.9393 207.968 49.2082 207.791 49.3947C207.615 49.5824 207.336 49.6764 206.956 49.6782C206.847 49.6782 206.74 49.6694 206.636 49.653C206.533 49.6363 206.439 49.6076 206.355 49.5672C206.272 49.5271 206.205 49.4736 206.155 49.4064C206.106 49.3393 206.082 49.2552 206.08 49.1544C206.082 48.9783 206.121 48.8369 206.199 48.7316C206.279 48.6254 206.387 48.5452 206.523 48.4914C206.658 48.4376 206.81 48.4025 206.981 48.3837C207.151 48.3654 207.328 48.3555 207.512 48.357C207.695 48.357 207.876 48.357 208.054 48.359V48.5906ZM209.444 50.1109V46.9085C209.44 46.5596 209.36 46.264 209.201 46.0222C209.039 45.7821 208.803 45.5992 208.495 45.475C208.185 45.351 207.806 45.2868 207.358 45.2868C207.188 45.2868 207.009 45.3055 206.825 45.3422C206.638 45.3796 206.459 45.4315 206.283 45.4984C206.11 45.5657 205.95 45.645 205.809 45.7355C205.669 45.826 205.556 45.9249 205.472 46.0341C205.39 46.1413 205.345 46.2556 205.345 46.3752C205.345 46.474 205.365 46.5709 205.408 46.6634C205.452 46.7574 205.519 46.835 205.612 46.8952C205.706 46.9555 205.827 46.9877 205.979 46.9892C206.069 46.9861 206.155 46.961 206.234 46.9116C206.312 46.8633 206.4 46.8063 206.496 46.7422C206.589 46.6788 206.704 46.6215 206.843 46.5725C206.979 46.5241 207.153 46.4974 207.358 46.4959C207.561 46.4937 207.718 46.5226 207.828 46.5815C207.935 46.6398 207.991 46.739 207.993 46.8785V47.271C207.767 47.2691 207.531 47.2778 207.284 47.2946C207.034 47.3116 206.788 47.3432 206.541 47.3906C206.295 47.4356 206.061 47.5027 205.841 47.5903C205.618 47.6757 205.421 47.7899 205.248 47.9274C205.076 48.0668 204.94 48.2363 204.84 48.4376C204.743 48.6392 204.692 48.8791 204.69 49.1544C204.692 49.4395 204.741 49.6901 204.84 49.9048C204.936 50.1213 205.076 50.3026 205.254 50.4469C205.433 50.5928 205.644 50.702 205.887 50.7761C206.131 50.8498 206.4 50.8865 206.695 50.8865C206.816 50.8865 206.944 50.875 207.077 50.8498C207.21 50.826 207.338 50.7895 207.465 50.7406C207.59 50.692 207.705 50.6294 207.806 50.5557C207.91 50.4805 207.991 50.3931 208.054 50.2923C208.091 50.4417 208.144 50.5612 208.212 50.6482C208.278 50.7357 208.358 50.796 208.446 50.833C208.538 50.8697 208.635 50.8884 208.738 50.8865C208.883 50.8845 209.009 50.8498 209.115 50.7825C209.218 50.7135 209.3 50.6215 209.357 50.5043C209.413 50.3882 209.444 50.2572 209.444 50.1109ZM201.759 46.0423C201.757 45.8845 201.726 45.7607 201.662 45.6679C201.597 45.5745 201.513 45.5072 201.41 45.4666C201.307 45.4262 201.19 45.4064 201.065 45.4079H198.627C198.504 45.4099 198.397 45.4381 198.302 45.4939C198.206 45.5507 198.132 45.6259 198.077 45.7219C198.021 45.8157 197.993 45.9235 197.991 46.0423V50.0807C197.993 50.2433 198.025 50.3847 198.085 50.5043C198.146 50.625 198.229 50.719 198.337 50.7841C198.446 50.8514 198.573 50.8849 198.717 50.8865C198.863 50.8845 198.99 50.8514 199.099 50.7841C199.206 50.719 199.29 50.625 199.351 50.5043C199.411 50.3847 199.44 50.2433 199.442 50.0807V46.6772H201.065C201.19 46.6772 201.307 46.6566 201.41 46.6131C201.513 46.5696 201.597 46.5027 201.662 46.4083C201.726 46.3139 201.757 46.1934 201.759 46.0423ZM193.179 48.5906C193.181 48.9393 193.093 49.2082 192.917 49.3947C192.741 49.5824 192.462 49.6764 192.081 49.6782C191.972 49.6782 191.865 49.6694 191.762 49.653C191.658 49.6363 191.564 49.6076 191.48 49.5672C191.396 49.5271 191.33 49.4736 191.28 49.4064C191.232 49.3393 191.207 49.2552 191.205 49.1544C191.207 48.9783 191.246 48.8369 191.326 48.7316C191.404 48.6254 191.512 48.5452 191.648 48.4914C191.782 48.4376 191.935 48.4025 192.106 48.3837C192.275 48.3654 192.453 48.3555 192.636 48.357C192.821 48.357 193.002 48.357 193.179 48.359V48.5906ZM194.568 50.1109V46.9085C194.566 46.5596 194.486 46.264 194.325 46.0222C194.164 45.7821 193.929 45.5992 193.62 45.475C193.31 45.351 192.932 45.2868 192.484 45.2868C192.313 45.2868 192.135 45.3055 191.95 45.3422C191.764 45.3796 191.584 45.4315 191.409 45.4984C191.235 45.5657 191.075 45.645 190.934 45.7355C190.794 45.826 190.681 45.9249 190.597 46.0341C190.515 46.1413 190.471 46.2556 190.469 46.3752C190.469 46.474 190.49 46.5709 190.533 46.6634C190.577 46.7574 190.644 46.835 190.738 46.8952C190.832 46.9555 190.953 46.9877 191.104 46.9892C191.195 46.9861 191.28 46.961 191.359 46.9116C191.438 46.8633 191.525 46.8063 191.621 46.7422C191.715 46.6788 191.831 46.6215 191.968 46.5725C192.104 46.5241 192.277 46.4974 192.484 46.4959C192.687 46.4937 192.843 46.5226 192.952 46.5815C193.061 46.6398 193.116 46.739 193.118 46.8785V47.271C192.893 47.2691 192.657 47.2778 192.408 47.2946C192.159 47.3116 191.913 47.3432 191.666 47.3906C191.42 47.4356 191.186 47.5027 190.965 47.5903C190.743 47.6757 190.546 47.7899 190.374 47.9274C190.201 48.0668 190.065 48.2363 189.966 48.4376C189.867 48.6392 189.816 48.8791 189.815 49.1544C189.817 49.4395 189.865 49.6901 189.964 49.9048C190.062 50.1213 190.201 50.3026 190.379 50.4469C190.558 50.5928 190.768 50.702 191.013 50.7761C191.257 50.8498 191.525 50.8865 191.819 50.8865C191.941 50.8865 192.069 50.875 192.202 50.8498C192.334 50.826 192.464 50.7895 192.589 50.7406C192.715 50.692 192.829 50.6294 192.932 50.5557C193.034 50.4805 193.116 50.3931 193.179 50.2923C193.215 50.4417 193.269 50.5612 193.336 50.6482C193.403 50.7357 193.483 50.796 193.571 50.833C193.662 50.8697 193.759 50.8884 193.864 50.8865C194.008 50.8845 194.134 50.8498 194.24 50.7825C194.343 50.7135 194.426 50.6215 194.481 50.5043C194.538 50.3882 194.568 50.2572 194.568 50.1109ZM186.632 50.1919C186.632 50.1618 186.632 50.1345 186.63 50.1094C186.63 50.0858 186.627 50.0659 186.622 50.0505L185.897 45.9214C185.879 45.8211 185.832 45.7236 185.751 45.6279C185.672 45.5308 185.567 45.4498 185.436 45.3861C185.305 45.3223 185.154 45.2892 184.981 45.2868C184.823 45.2888 184.68 45.3192 184.556 45.3777C184.43 45.4364 184.326 45.5121 184.244 45.6031C184.161 45.6917 184.104 45.7856 184.074 45.8814L183.249 48.5906H183.228L182.392 45.8814C182.362 45.7856 182.305 45.6917 182.223 45.6031C182.141 45.5121 182.037 45.4364 181.911 45.3777C181.787 45.3192 181.644 45.2892 181.486 45.2868C181.32 45.2888 181.172 45.3223 181.043 45.3861C180.913 45.4498 180.808 45.5308 180.728 45.6279C180.647 45.7236 180.598 45.8211 180.58 45.9214L179.855 50.0505C179.85 50.0659 179.846 50.0858 179.846 50.1094C179.844 50.1345 179.844 50.1618 179.844 50.1919C179.846 50.3243 179.875 50.4417 179.935 50.546C179.993 50.6501 180.074 50.7322 180.176 50.7944C180.279 50.8547 180.396 50.8849 180.529 50.8865C180.694 50.8845 180.827 50.8547 180.933 50.7975C181.039 50.7406 181.12 50.6636 181.175 50.5661C181.232 50.4688 181.267 50.3613 181.284 50.242L181.647 47.5329H181.667L182.473 50.3732C182.487 50.4454 182.524 50.5206 182.578 50.5994C182.634 50.6784 182.714 50.7459 182.82 50.8009C182.924 50.8547 183.062 50.8832 183.228 50.8865C183.397 50.8835 183.535 50.8547 183.641 50.8009C183.747 50.7459 183.826 50.6784 183.879 50.5994C183.933 50.5206 183.968 50.4454 183.983 50.3732L184.799 47.5329H184.819L185.192 50.242C185.209 50.3613 185.244 50.4688 185.301 50.5661C185.356 50.6636 185.437 50.7406 185.542 50.7975C185.648 50.8547 185.783 50.8849 185.947 50.8865C186.083 50.8845 186.2 50.8547 186.303 50.7944C186.405 50.7322 186.486 50.6501 186.544 50.546C186.602 50.4417 186.63 50.3243 186.632 50.1919ZM168.726 45.1261C168.934 45.1261 169.132 45.0988 169.32 45.0473C169.508 44.9951 169.674 44.9179 169.822 44.8192C169.968 44.7182 170.084 44.5971 170.168 44.4543C170.252 44.312 170.296 44.1493 170.297 43.968C170.297 43.8755 170.277 43.7934 170.237 43.7197C170.197 43.6456 170.141 43.5848 170.069 43.5413C169.997 43.4978 169.911 43.476 169.814 43.4746C169.694 43.4756 169.597 43.4994 169.523 43.5452C169.448 43.5918 169.384 43.6476 169.332 43.7158C169.28 43.7831 169.23 43.8502 169.179 43.9175C169.129 43.9861 169.069 44.0415 168.998 44.0889C168.928 44.1339 168.837 44.1573 168.726 44.1591C168.593 44.1571 168.489 44.1339 168.412 44.0865C168.335 44.0415 168.273 43.9861 168.226 43.9175C168.179 43.8502 168.132 43.7831 168.088 43.7158C168.043 43.6476 167.987 43.5918 167.919 43.5452C167.85 43.4994 167.758 43.476 167.639 43.4746C167.541 43.4756 167.456 43.4978 167.383 43.5413C167.311 43.5848 167.256 43.6456 167.215 43.7197C167.175 43.7934 167.155 43.8755 167.155 43.968C167.156 44.1493 167.201 44.312 167.284 44.4543C167.368 44.5971 167.484 44.7182 167.632 44.8192C167.777 44.9179 167.944 44.9951 168.132 45.0473C168.32 45.0988 168.518 45.1261 168.726 45.1261ZM171.103 50.0807V46.093C171.101 45.9298 171.071 45.789 171.011 45.6698C170.95 45.5491 170.866 45.4549 170.759 45.388C170.649 45.3223 170.524 45.2892 170.378 45.2868C170.242 45.2888 170.111 45.3289 169.988 45.4064C169.866 45.4851 169.754 45.5926 169.653 45.7303L167.8 48.2482H167.779V46.093C167.777 45.9298 167.747 45.789 167.687 45.6698C167.627 45.5491 167.543 45.4549 167.435 45.388C167.326 45.3223 167.201 45.2892 167.054 45.2868C166.908 45.2888 166.782 45.3223 166.673 45.388C166.565 45.4549 166.482 45.5491 166.421 45.6698C166.361 45.789 166.331 45.9298 166.329 46.093V50.0807C166.331 50.2433 166.361 50.3847 166.421 50.5043C166.482 50.625 166.565 50.719 166.673 50.7841C166.782 50.8514 166.908 50.8849 167.054 50.8865C167.178 50.8865 167.289 50.8562 167.385 50.7991C167.481 50.7422 167.57 50.6601 167.648 50.5544L169.632 47.8855H169.653V50.0807C169.654 50.2433 169.685 50.3847 169.745 50.5043C169.805 50.625 169.889 50.719 169.997 50.7841C170.106 50.8514 170.233 50.8849 170.378 50.8865C170.524 50.8845 170.649 50.8514 170.759 50.7841C170.866 50.719 170.95 50.625 171.011 50.5043C171.071 50.3847 171.101 50.2433 171.103 50.0807ZM162.804 50.0807V46.093C162.802 45.9298 162.772 45.789 162.712 45.6698C162.651 45.5491 162.568 45.4549 162.46 45.388C162.351 45.3223 162.225 45.2892 162.079 45.2868C161.943 45.2888 161.812 45.3289 161.69 45.4064C161.567 45.4851 161.455 45.5926 161.354 45.7303L159.501 48.2482H159.481V46.093C159.479 45.9298 159.449 45.789 159.388 45.6698C159.328 45.5491 159.244 45.4549 159.137 45.388C159.028 45.3223 158.902 45.2892 158.756 45.2868C158.609 45.2888 158.484 45.3223 158.374 45.388C158.267 45.4549 158.184 45.5491 158.123 45.6698C158.062 45.789 158.032 45.9298 158.03 46.093V50.0807C158.032 50.2433 158.062 50.3847 158.123 50.5043C158.184 50.625 158.267 50.719 158.374 50.7841C158.484 50.8514 158.609 50.8849 158.756 50.8865C158.88 50.8865 158.991 50.8562 159.086 50.7991C159.182 50.7422 159.271 50.6601 159.35 50.5544L161.334 47.8855H161.354V50.0807C161.355 50.2433 161.386 50.3847 161.446 50.5043C161.507 50.625 161.591 50.719 161.698 50.7841C161.807 50.8514 161.935 50.8849 162.079 50.8865C162.225 50.8845 162.351 50.8514 162.46 50.7841C162.568 50.719 162.651 50.625 162.712 50.5043C162.772 50.3847 162.803 50.2433 162.804 50.0807ZM154.919 50.2018C154.921 50.1213 154.908 50.0388 154.885 49.9567C154.86 49.8746 154.811 49.794 154.737 49.7184L152.924 47.9557L154.324 46.5156C154.412 46.4218 154.479 46.3278 154.529 46.2353C154.579 46.1449 154.605 46.046 154.606 45.9417C154.604 45.8328 154.579 45.7283 154.528 45.6294C154.476 45.5286 154.405 45.4483 154.313 45.3843C154.22 45.3223 154.113 45.2892 153.992 45.2868C153.927 45.2868 153.856 45.2987 153.78 45.3209C153.703 45.3441 153.626 45.3777 153.549 45.4247C153.474 45.4701 153.403 45.5286 153.337 45.5992L151.696 47.4826V46.093C151.695 45.9298 151.664 45.789 151.604 45.6698C151.543 45.5491 151.459 45.4549 151.352 45.388C151.243 45.3223 151.117 45.2892 150.971 45.2868C150.825 45.2888 150.699 45.3223 150.59 45.388C150.482 45.4549 150.398 45.5491 150.338 45.6698C150.277 45.789 150.247 45.9298 150.246 46.093V50.0807C150.247 50.2433 150.277 50.3847 150.338 50.5043C150.398 50.625 150.482 50.719 150.59 50.7841C150.699 50.8514 150.825 50.8849 150.971 50.8865C151.117 50.8845 151.243 50.8514 151.352 50.7841C151.459 50.719 151.543 50.625 151.604 50.5043C151.664 50.3847 151.694 50.2433 151.696 50.0807V48.4994H151.716L153.538 50.4432C153.616 50.5226 153.69 50.5947 153.762 50.662C153.834 50.7287 153.908 50.7825 153.984 50.8227C154.061 50.8646 154.143 50.8849 154.233 50.8865C154.366 50.8845 154.484 50.8547 154.586 50.796C154.689 50.7371 154.769 50.6566 154.828 50.5544C154.887 50.452 154.917 50.3344 154.919 50.2018ZM147.043 49.8898C147.042 49.7702 147.015 49.663 146.959 49.569C146.905 49.4736 146.831 49.3976 146.738 49.3406C146.644 49.2853 146.538 49.2566 146.419 49.2552C146.375 49.2572 146.312 49.2716 146.231 49.3022C146.148 49.3323 146.058 49.3674 145.955 49.4064C145.853 49.445 145.749 49.4801 145.643 49.5103C145.536 49.5403 145.435 49.5553 145.341 49.5573C145.146 49.5551 144.975 49.5132 144.824 49.4315C144.673 49.349 144.545 49.2385 144.441 49.099C144.338 48.96 144.258 48.8038 144.203 48.6308C144.15 48.4578 144.123 48.2798 144.123 48.0969C144.123 47.9058 144.148 47.7227 144.197 47.5468C144.247 47.3699 144.323 47.2121 144.421 47.0727C144.522 46.9339 144.65 46.8231 144.802 46.7406C144.955 46.6605 145.135 46.6183 145.341 46.6168C145.454 46.6187 145.561 46.6318 145.66 46.6605C145.761 46.6889 145.857 46.7207 145.949 46.7574C146.041 46.7944 146.132 46.8262 146.22 46.8547C146.31 46.8816 146.398 46.8968 146.489 46.8984C146.575 46.8964 146.652 46.875 146.721 46.8315C146.788 46.7895 146.847 46.7342 146.894 46.6634C146.943 46.5947 146.98 46.521 147.005 46.4401C147.03 46.3598 147.043 46.2808 147.043 46.2037C147.042 46.0643 146.998 45.9432 146.914 45.8408C146.83 45.7387 146.721 45.6515 146.585 45.5809C146.449 45.5103 146.301 45.4534 146.142 45.4099C145.984 45.3658 145.828 45.3358 145.675 45.3155C145.522 45.2956 145.388 45.2868 145.271 45.2868C144.963 45.2888 144.678 45.3391 144.413 45.4364C144.148 45.5355 143.908 45.6733 143.695 45.8492C143.481 46.0257 143.298 46.2324 143.146 46.4688C142.995 46.7039 142.877 46.961 142.795 47.2359C142.714 47.5126 142.674 47.7999 142.672 48.0969C142.674 48.4781 142.736 48.8354 142.859 49.1692C142.981 49.5052 143.158 49.8005 143.386 50.0575C143.614 50.3159 143.887 50.5175 144.206 50.6636C144.524 50.8092 144.88 50.8832 145.271 50.8865C145.378 50.8865 145.506 50.8765 145.657 50.8547C145.806 50.8346 145.96 50.7991 146.12 50.7525C146.281 50.7055 146.43 50.6433 146.57 50.5661C146.709 50.4888 146.822 50.3947 146.909 50.2839C146.996 50.1712 147.04 50.0407 147.043 49.8898ZM139.772 46.0423C139.77 45.8845 139.738 45.7607 139.675 45.6679C139.611 45.5745 139.527 45.5072 139.423 45.4666C139.319 45.4262 139.203 45.4064 139.077 45.4079H135.592C135.47 45.4099 135.362 45.4364 135.267 45.4918C135.171 45.5473 135.097 45.6213 135.042 45.7172C134.986 45.8122 134.959 45.92 134.958 46.0423C134.96 46.2404 135.017 46.395 135.127 46.5072C135.24 46.6183 135.394 46.6753 135.592 46.6772H136.61V50.0807C136.611 50.2433 136.641 50.3847 136.702 50.5043C136.762 50.625 136.846 50.719 136.954 50.7841C137.063 50.8514 137.19 50.8849 137.335 50.8865C137.481 50.8845 137.606 50.8514 137.716 50.7841C137.823 50.719 137.907 50.625 137.968 50.5043C138.028 50.3847 138.058 50.2433 138.06 50.0807V46.6772H139.077C139.203 46.6772 139.319 46.6566 139.423 46.6131C139.527 46.5696 139.611 46.5027 139.675 46.4083C139.738 46.3139 139.77 46.1934 139.772 46.0423ZM130.708 47.6035H128.402C128.426 47.397 128.487 47.2092 128.588 47.0427C128.687 46.8769 128.818 46.7439 128.981 46.647C129.145 46.5477 129.333 46.4974 129.55 46.4959C129.778 46.4978 129.975 46.5444 130.137 46.6398C130.3 46.7342 130.429 46.8633 130.525 47.0292C130.621 47.1954 130.681 47.3867 130.708 47.6035ZM132.158 47.9255C132.158 47.6823 132.118 47.4356 132.037 47.187C131.958 46.9387 131.842 46.7002 131.693 46.4756C131.542 46.2492 131.361 46.046 131.146 45.8679C130.933 45.6901 130.693 45.5491 130.424 45.445C130.156 45.3422 129.865 45.2892 129.55 45.2868C129.242 45.2888 128.957 45.3391 128.692 45.4364C128.426 45.5355 128.187 45.6733 127.974 45.8492C127.76 46.0257 127.577 46.2324 127.424 46.4688C127.274 46.7039 127.156 46.961 127.074 47.2359C126.993 47.5126 126.953 47.7999 126.951 48.0969C126.953 48.4994 127.019 48.8691 127.146 49.2082C127.275 49.5473 127.46 49.841 127.7 50.0926C127.938 50.3428 128.225 50.5374 128.557 50.6753C128.89 50.8143 129.261 50.8849 129.67 50.8865C129.89 50.8845 130.112 50.8633 130.335 50.8182C130.556 50.7724 130.77 50.7106 130.973 50.6318C131.176 50.5509 131.357 50.4604 131.517 50.356C131.677 50.2521 131.804 50.1396 131.896 50.0224C131.988 49.9032 132.035 49.7821 132.037 49.6575C132.035 49.5522 132.007 49.4514 131.953 49.3574C131.898 49.2636 131.825 49.186 131.737 49.1257C131.646 49.0655 131.549 49.0353 131.443 49.0337C131.367 49.0356 131.285 49.0553 131.196 49.094C131.109 49.1326 131.015 49.1811 130.914 49.2385C130.813 49.2972 130.706 49.3541 130.592 49.4128C130.476 49.4697 130.353 49.5187 130.221 49.5573C130.09 49.5957 129.951 49.616 129.802 49.6179C129.571 49.6179 129.36 49.5809 129.167 49.5068C128.974 49.4331 128.812 49.319 128.683 49.1645C128.554 49.0101 128.47 48.8118 128.432 48.5702H131.523C131.744 48.5702 131.905 48.5167 132.007 48.4108C132.109 48.3036 132.16 48.1421 132.158 47.9255ZM121.996 49.5774H120.385C120.499 49.1478 120.586 48.6794 120.646 48.1745C120.705 47.6688 120.742 47.1371 120.757 46.5764H121.996V49.5774ZM124.171 51.491V50.3026C124.17 50.1396 124.14 49.9986 124.079 49.8796C124.02 49.7583 123.935 49.6645 123.827 49.5973C123.718 49.5323 123.592 49.4984 123.446 49.4968H123.366V46.2137C123.364 46.0511 123.334 45.9097 123.273 45.789C123.213 45.6698 123.129 45.5758 123.022 45.5087C122.913 45.443 122.787 45.4099 122.641 45.4079H120.062C119.916 45.4079 119.79 45.4381 119.681 45.5004C119.574 45.5626 119.49 45.653 119.43 45.7722C119.369 45.8913 119.339 46.0392 119.337 46.2137C119.339 46.8414 119.312 47.4257 119.258 47.9676C119.203 48.5097 119.109 49.0202 118.975 49.4968H118.894C118.75 49.4988 118.623 49.5323 118.513 49.5973C118.406 49.6645 118.322 49.7583 118.261 49.8796C118.201 49.9986 118.171 50.1396 118.169 50.3026V51.491C118.17 51.6536 118.201 51.7946 118.261 51.9136C118.322 52.0347 118.406 52.1287 118.513 52.1959C118.623 52.2617 118.748 52.2948 118.894 52.2964C119.04 52.2944 119.166 52.2617 119.275 52.1959C119.383 52.1287 119.467 52.0347 119.527 51.9136C119.587 51.7946 119.618 51.6536 119.619 51.491V50.7658H122.721V51.491C122.723 51.6536 122.753 51.7946 122.813 51.9136C122.874 52.0347 122.958 52.1287 123.065 52.1959C123.174 52.2617 123.302 52.2948 123.446 52.2964C123.592 52.2944 123.718 52.2617 123.827 52.1959C123.935 52.1287 124.02 52.0347 124.079 51.9136C124.14 51.7946 124.17 51.6536 124.171 51.491Z" fill="#005797"/>
<path fill-rule="evenodd" clip-rule="evenodd" d="M85.7151 38.3058C85.5942 38.5181 85.4546 38.7231 85.2953 38.9194C84.5117 39.8871 83.4511 40.4331 82.2153 40.5632C81.2643 40.6632 80.3493 40.4177 79.5601 39.882C78.9386 39.4602 78.3335 39.03 77.7639 38.538L71.0702 32.7523L71.4704 36.561C71.6112 37.9007 71.3731 39.204 70.5667 40.3026C69.7687 41.39 68.6328 41.9904 67.2966 42.131C65.9651 42.2707 64.7215 41.9169 63.7184 41.0222C62.7011 40.1148 62.1976 38.8904 62.0566 37.5507L60.1402 19.3172C59.9994 17.9778 60.2377 16.6747 61.0441 15.5759C61.8421 14.4886 62.9774 13.8877 64.3134 13.7472C65.6451 13.6073 66.8889 13.961 67.8922 14.856C68.9095 15.7634 69.413 16.9879 69.554 18.3276L69.8315 20.9674L74.2851 14.6252C74.7758 13.9263 75.401 13.3568 76.1547 12.9551C76.765 12.6296 77.4347 12.3683 78.127 12.2955C79.3608 12.1659 80.4881 12.5499 81.3762 13.4172C82.166 14.1888 82.6724 15.137 82.7882 16.2389C82.8635 16.9571 82.7641 17.6626 82.4815 18.3273C82.2245 18.9308 81.8885 19.4944 81.4829 20.0099L76.64 26.1673L81.1069 29.6817C80.9819 28.868 80.9207 28.0429 80.9207 27.2114C80.9207 25.365 81.2399 23.562 81.8898 21.8344C82.5201 20.1591 83.4189 18.6223 84.6044 17.28C85.7884 15.9391 87.2059 14.8793 88.8167 14.0996C90.5277 13.2711 92.3668 12.895 94.2646 12.895C96.1625 12.895 98.0016 13.2711 99.7128 14.0996C101.323 14.8793 102.741 15.9391 103.925 17.28C104.915 18.401 105.705 19.6572 106.306 21.017L106.761 16.6867C106.902 15.3469 107.405 14.1223 108.423 13.2149C109.426 12.3204 110.669 11.9666 112.001 12.1063C113.225 12.2351 114.309 12.7422 115.064 13.7296C115.228 13.9439 115.373 14.1676 115.502 14.3987C116.055 14.0416 116.66 13.7598 117.311 13.5516C118.71 13.1037 120.163 12.9641 121.624 13.1178C123.512 13.3165 125.303 13.8989 126.85 15.0181C128.254 16.0334 129.402 17.2962 130.266 18.797C131.139 20.3122 131.698 21.9618 131.993 23.6823C132.112 24.3726 132.193 25.0665 132.237 25.7619C133.26 24.8186 134.448 24.095 135.76 23.5729C135.859 23.5331 135.96 23.4943 136.06 23.4565C135.08 23.3108 134.182 22.8912 133.557 22.0505C132.953 21.2383 132.609 20.3091 132.609 19.2943C132.609 18.1552 133.128 17.1768 133.922 16.3834C134.684 15.6215 135.588 15.0156 136.546 14.5284C137.59 13.9972 138.698 13.6045 139.836 13.328C140.959 13.0551 142.111 12.895 143.268 12.895C146.028 12.895 148.996 13.3753 151.232 15.1099C152.164 15.8328 152.859 16.6889 153.346 17.6464C153.376 17.4818 153.407 17.3178 153.441 17.1546C153.86 15.1334 154.587 13.024 155.913 11.4094C156.377 10.8452 156.866 10.3028 157.384 9.78778C158.07 9.10574 158.907 8.54909 159.75 8.08228C160.861 7.46767 162.09 6.99778 163.295 6.60514C164.97 6.05913 166.786 5.70845 168.513 5.35716C168.831 5.29248 169.132 5.09492 169.378 4.89094C170.024 4.35492 170.774 3.99581 171.614 3.90746C172.83 3.77949 173.991 4.0829 174.935 4.86851C175.798 5.58671 176.368 6.51804 176.487 7.64203C176.637 9.06851 176.079 10.3462 175.173 11.4237C174.054 12.7548 172.411 13.4131 170.734 13.7011C170.304 13.7749 169.873 13.8477 169.442 13.9227C170.143 14.0271 170.835 14.1967 171.512 14.4365C173.103 15.0005 174.527 15.8622 175.757 17.0175C177.009 18.1935 177.984 19.5928 178.713 21.1453C179.169 22.1182 179.516 23.1279 179.762 24.1644L179.492 19.011C179.421 17.6654 179.727 16.3771 180.59 15.3218C181.444 14.2779 182.61 13.7374 183.951 13.6672L196.25 13.0226C197.588 12.9524 198.809 13.3693 199.764 14.3171C200.733 15.2762 201.172 16.5255 201.242 17.8709L201.582 24.3258L202.377 16.755C202.518 15.4153 203.021 14.1908 204.039 13.2834C205.043 12.3884 206.285 12.0347 207.617 12.1744C208.953 12.3149 210.09 12.9156 210.887 14.003C211.693 15.1021 211.931 16.4049 211.79 17.7446L211.188 23.4842L218.103 15.8983C218.703 15.2392 219.403 14.6873 220.199 14.2823C221.014 13.8678 221.899 13.6758 222.812 13.7716C224.148 13.9121 225.283 14.5127 226.08 15.6C226.106 15.6344 226.131 15.6691 226.154 15.7038C226.359 15.2255 226.64 14.7775 227.009 14.3716C227.915 13.3736 229.109 12.895 230.452 12.895C231.796 12.895 232.988 13.3736 233.894 14.3716C234.811 15.38 235.185 16.6509 235.185 17.9979V20.6519L240.277 14.8101C240.839 14.1665 241.519 13.6655 242.311 13.3444C242.952 13.0848 243.645 12.895 244.341 12.895C245.585 12.895 246.661 13.392 247.455 14.3503C248.159 15.2 248.565 16.1959 248.565 17.3035C248.565 18.0262 248.391 18.7172 248.042 19.3489C247.722 19.922 247.33 20.4475 246.872 20.9179L241.412 26.5351L248.742 33.6618C249.234 34.1388 249.6 34.7147 249.786 35.376C249.924 35.8686 250 36.3756 250 36.8875C250 38.1301 249.567 39.242 248.688 40.1224C247.806 41.0025 246.695 41.435 245.452 41.435C244.489 41.435 243.617 41.0994 242.884 40.4805C242.309 39.9957 241.751 39.5047 241.236 38.9557L235.185 32.5019V36.3319C235.185 37.6792 234.811 38.9497 233.894 39.9584C232.988 40.9563 231.796 41.435 230.452 41.435C229.109 41.435 227.915 40.9563 227.009 39.9584C226.092 38.9495 225.72 37.6792 225.72 36.3319V31.3863L225.068 37.5751C224.928 38.9148 224.425 40.1392 223.407 41.0466C222.403 41.9415 221.16 42.2952 219.828 42.1554C218.493 42.015 217.356 41.414 216.558 40.3268C215.753 39.228 215.515 37.9249 215.655 36.5854L216.281 30.6285L208.686 38.8803C208.186 39.4222 207.605 39.8851 206.938 40.2005C206.213 40.5429 205.427 40.6418 204.633 40.5585C203.335 40.4218 202.225 39.8494 201.429 38.8177C201.324 38.9881 201.205 39.1535 201.075 39.3139C200.222 40.358 199.056 40.8986 197.715 40.9688C196.375 41.039 195.154 40.6221 194.198 39.6743C193.23 38.7153 192.791 37.4659 192.721 36.1205L191.975 21.8906L189.129 22.0398L189.432 27.8085C189.609 31.1993 189.281 35.0517 187.277 37.9165C185.576 40.349 183.21 41.7285 180.238 41.8845C178.972 41.951 177.804 41.5694 176.935 40.6213C176.279 39.9058 175.858 39.0628 175.733 38.1172C175.076 38.6923 174.363 39.2026 173.601 39.6492C171.967 40.6063 170.164 41.1363 168.286 41.334C166.788 41.4912 165.261 41.4586 163.788 41.1273C162.452 40.8278 161.182 40.3268 160.021 39.599C158.887 38.8884 157.895 38.0017 157.055 36.9598C156.221 35.9257 155.527 34.7931 154.968 33.5887C154.686 32.9809 154.448 32.357 154.251 31.72V36.4707C154.251 37.7463 153.866 38.9194 153.041 39.8968C152.162 40.938 150.967 41.435 149.611 41.435C148.632 41.435 147.716 41.1642 146.906 40.6164C146.549 40.3748 146.253 40.076 146.008 39.7395C145.467 40.1086 144.887 40.4152 144.28 40.6613C143.613 40.9311 142.921 41.1279 142.213 41.2519C141.552 41.3676 140.883 41.435 140.212 41.435C138.817 41.435 137.42 41.2693 136.081 40.866C134.848 40.4947 133.695 39.9232 132.7 39.1C131.713 38.2839 130.959 37.2691 130.423 36.108C130.291 35.8219 130.177 35.5302 130.079 35.2342C129.478 36.2451 128.76 37.1782 127.924 38.0189C126.711 39.2381 125.294 40.1693 123.696 40.8021C122.005 41.4711 120.216 41.6671 118.411 41.4774C117.167 41.3463 115.975 40.983 114.852 40.437C114.503 40.2677 114.166 40.0799 113.841 39.875L113.261 45.3947C113.12 46.7344 112.616 47.959 111.599 48.8664C110.596 49.7611 109.352 50.115 108.021 49.975C106.685 49.8346 105.549 49.234 104.751 48.1466C103.945 47.048 103.707 45.7447 103.847 44.405L104.702 36.2732C104.471 36.5821 104.225 36.882 103.965 37.1722C102.777 38.5004 101.354 39.5378 99.7373 40.287C98.0119 41.0864 96.1605 41.435 94.2646 41.435C92.3688 41.435 90.5176 41.0864 88.7919 40.287C87.6677 39.7662 86.6375 39.1059 85.7151 38.3058ZM170.686 27.0587C170.617 26.3988 170.459 25.7549 170.226 25.1338C170.009 24.5554 169.706 24.0234 169.306 23.5521C168.944 23.1269 168.513 22.8036 168.005 22.5751C167.47 22.335 166.868 22.3034 166.292 22.3639C165.716 22.4243 165.134 22.5805 164.661 22.9265C164.211 23.2556 163.857 23.6616 163.592 24.1523C163.299 24.6964 163.113 25.2798 163.021 25.8908C162.922 26.547 162.902 27.2096 162.971 27.8699C163.039 28.5131 163.197 29.1382 163.439 29.7383C163.668 30.306 163.978 30.8286 164.38 31.2907C164.745 31.7108 165.181 32.029 165.688 32.2566C166.213 32.492 166.789 32.5324 167.355 32.4727C167.922 32.4134 168.475 32.2545 168.94 31.9148C169.389 31.5866 169.749 31.1847 170.019 30.6983C170.316 30.1626 170.51 29.587 170.616 28.984C170.728 28.3469 170.753 27.7022 170.686 27.0587ZM139.524 22.516C140.033 22.4261 140.547 22.3547 141.062 22.3009C142.299 22.172 143.542 22.0795 144.785 22.0386V21.6094C144.785 21.5803 144.784 21.5251 144.776 21.4854C144.38 21.2833 143.701 21.2492 143.268 21.2492C142.672 21.2492 141.961 21.2962 141.398 21.5074C140.942 21.6782 140.484 21.8873 140.076 22.1546C139.892 22.2753 139.708 22.3959 139.524 22.516ZM145.056 29.8143C144.483 29.8143 143.91 29.8143 143.337 29.8143C142.466 29.8143 141.582 29.8861 140.732 30.0803C140.164 30.2096 139.614 30.4343 139.176 30.8253C138.845 31.1203 138.787 31.6581 138.787 32.0723C138.787 32.164 138.796 32.3124 138.855 32.3906C138.961 32.5326 139.108 32.6328 139.267 32.7088C139.554 32.8469 139.866 32.9319 140.18 32.9826C140.589 33.0483 141.002 33.0805 141.416 33.0805C142.334 33.0805 143.567 32.9489 144.233 32.2315C144.826 31.5928 145.019 30.6737 145.056 29.8143ZM122.788 27.6351C122.859 26.9538 122.828 26.2668 122.723 25.5907C122.623 24.9444 122.435 24.318 122.13 23.7379C121.86 23.2231 121.502 22.7851 121.049 22.4212C120.625 22.0809 120.124 21.9193 119.588 21.8629C119.037 21.8048 118.466 21.8409 117.957 22.0755C117.454 22.3079 117.022 22.6306 116.659 23.0495C116.251 23.5187 115.945 24.0569 115.719 24.6345C115.471 25.2699 115.307 25.9304 115.236 26.6086C115.161 27.3219 115.18 28.0404 115.274 28.7506C115.361 29.4058 115.541 30.0404 115.842 30.6297C116.107 31.148 116.46 31.5918 116.914 31.9559C117.356 32.3106 117.912 32.4659 118.467 32.5242C119.006 32.5809 119.539 32.532 120.032 32.2941C120.544 32.047 120.976 31.7024 121.339 31.2648C121.752 30.7677 122.07 30.2104 122.305 29.6094C122.553 28.9741 122.716 28.3134 122.788 27.6351ZM98.1432 27.2114C98.1432 26.5195 98.0472 25.8317 97.8826 25.1601C97.7291 24.5349 97.486 23.9411 97.1283 23.4042C96.805 22.9193 96.3984 22.5257 95.905 22.2159C95.413 21.9068 94.8384 21.8048 94.2646 21.8048C93.6909 21.8048 93.1162 21.9068 92.6244 22.2159C92.1309 22.5257 91.7243 22.9193 91.401 23.4042C91.0433 23.9411 90.8001 24.5349 90.6467 25.1601C90.4821 25.8317 90.3861 26.5195 90.3861 27.2114C90.3861 27.9033 90.4825 28.5872 90.6621 29.2551C90.8278 29.8703 91.0788 30.4553 91.439 30.9826C91.7598 31.4528 92.1634 31.8303 92.6506 32.1248C93.1404 32.4208 93.698 32.5249 94.2646 32.5249C94.8313 32.5249 95.3889 32.4208 95.8787 32.1248C96.3662 31.8301 96.7693 31.4528 97.0905 30.9822C97.4505 30.4551 97.7015 29.8703 97.8672 29.2551C98.0468 28.5872 98.1432 27.9033 98.1432 27.2114Z" fill="white"/>
<path fill-rule="evenodd" clip-rule="evenodd" d="M248.6 36.8874C248.6 37.7823 248.299 38.5309 247.697 39.1327C247.096 39.7345 246.347 40.0356 245.452 40.0356C244.834 40.0356 244.278 39.8271 243.785 39.4104C243.292 38.9939 242.783 38.5231 242.258 37.9986L233.879 29.0631H233.785V36.3318C233.785 37.443 233.477 38.3379 232.859 39.0171C232.243 39.6961 231.439 40.0356 230.452 40.0356C229.464 40.0356 228.662 39.6961 228.044 39.0171C227.428 38.3379 227.118 37.443 227.118 36.3318V17.998C227.118 16.8868 227.428 15.9918 228.044 15.3127C228.662 14.6337 229.464 14.2942 230.452 14.2942C231.439 14.2942 232.243 14.6337 232.859 15.3127C233.477 15.9918 233.785 16.8868 233.785 17.998V24.387L241.332 15.7295C241.765 15.2356 242.266 14.8729 242.835 14.6414C243.407 14.4099 243.91 14.2942 244.341 14.2942C245.173 14.2942 245.854 14.6105 246.379 15.2433C246.903 15.876 247.165 16.5628 247.165 17.3036C247.165 17.7973 247.049 18.2526 246.817 18.6693C246.587 19.0859 246.269 19.5105 245.87 19.9426L239.434 26.5631L247.767 34.6651C248.106 35.0046 248.331 35.3671 248.438 35.753C248.547 36.1388 248.6 36.5169 248.6 36.8874Z" fill="#005797"/>
<path fill-rule="evenodd" clip-rule="evenodd" d="M223.676 37.4287C223.561 38.5336 223.161 39.3916 222.475 40.0024C221.79 40.6131 220.957 40.8668 219.975 40.7637C218.992 40.6605 218.229 40.2389 217.687 39.4991C217.143 38.7592 216.93 37.8368 217.046 36.7317L218.101 26.6943L218.009 26.6843L207.656 37.9326C207.237 38.385 206.798 38.719 206.342 38.9349C205.883 39.1506 205.363 39.2278 204.78 39.1664C203.799 39.0632 203.036 38.6416 202.492 37.9019C201.95 37.1619 201.735 36.2395 201.852 35.1346L203.769 16.9012C203.884 15.7962 204.284 14.9383 204.971 14.3274C205.655 13.7166 206.488 13.4629 207.471 13.5661C208.453 13.6693 209.216 14.0909 209.758 14.8307C210.302 15.5706 210.515 16.493 210.4 17.598L209.362 27.4515L209.456 27.4612L219.138 16.8409C219.663 16.2753 220.228 15.8382 220.835 15.5296C221.441 15.2208 222.051 15.0988 222.666 15.1633C223.647 15.2666 224.411 15.6881 224.953 16.4279C225.495 17.1677 225.71 18.0902 225.593 19.1952L223.676 37.4287Z" fill="#00A2D9"/>
<path fill-rule="evenodd" clip-rule="evenodd" d="M200.776 35.6983C200.835 36.8077 200.573 37.7178 199.992 38.4282C199.411 39.1386 198.627 39.5196 197.64 39.5713C196.654 39.623 195.835 39.326 195.183 38.6801C194.531 38.0343 194.176 37.1567 194.118 36.0471L193.299 20.42L187.659 20.7156L188.034 27.8818C188.246 31.9196 187.611 34.9972 186.131 37.1146C184.65 39.2322 182.661 40.3564 180.164 40.4873C179.24 40.5356 178.507 40.265 177.966 39.6753C177.425 39.0854 177.135 38.4206 177.097 37.6809C177.064 37.0645 177.212 36.5003 177.541 35.9886C177.87 35.4769 178.352 35.0963 178.988 34.8465C179.322 34.7363 179.645 34.5571 179.957 34.3088C180.268 34.0608 180.543 33.7063 180.782 33.2457C181.02 32.7851 181.199 32.2117 181.317 31.5255C181.436 30.8393 181.469 30.0031 181.418 29.0167L180.889 18.9377C180.831 17.8281 181.093 16.9181 181.674 16.2077C182.255 15.4973 183.038 15.1162 184.024 15.0646L196.322 14.4201C197.309 14.3683 198.128 14.6654 198.779 15.3112C199.433 15.957 199.788 16.8347 199.846 17.9442L200.776 35.6983Z" fill="#005797"/>
<path fill-rule="evenodd" clip-rule="evenodd" d="M178.732 26.4461C178.906 28.1036 178.787 29.7066 178.376 31.255C177.965 32.8035 177.295 34.185 176.368 35.3999C175.44 36.6146 174.282 37.6286 172.893 38.4418C171.505 39.255 169.92 39.755 168.14 39.9422C166.666 40.097 165.318 40.037 164.094 39.7622C162.871 39.4874 161.76 39.0377 160.764 38.4131C159.767 37.7885 158.894 37.0114 158.144 36.0814C157.395 35.1516 156.759 34.1243 156.238 32.9999C155.716 31.8755 155.349 30.6727 155.137 29.3915C154.925 28.1103 154.746 26.7792 154.601 25.3977C154.278 22.3281 154.348 19.675 154.812 17.4384C155.275 15.2017 156.002 13.4882 156.995 12.2977C157.407 11.7888 157.865 11.2828 158.371 10.7797C158.877 10.2765 159.562 9.78556 160.428 9.3066C161.293 8.82774 162.393 8.3707 163.728 7.93558C165.064 7.50036 166.752 7.09804 168.792 6.72838C169.308 6.61208 169.801 6.35853 170.272 5.96764C170.743 5.57676 171.239 5.35393 171.761 5.29913C172.651 5.20553 173.411 5.42046 174.04 5.94404C174.669 6.46754 175.021 7.08234 175.095 7.78827C175.192 8.70925 174.861 9.62068 174.102 10.5229C173.344 11.425 172.142 12.0246 170.497 12.3216C169.429 12.496 168.477 12.6658 167.641 12.8313C166.805 12.9967 166.042 13.1856 165.35 13.398C164.659 13.6104 164.017 13.8562 163.426 14.1355C162.834 14.4149 162.248 14.7404 161.666 15.1119C161.173 15.4429 160.706 15.9421 160.264 16.6093C159.822 17.2764 159.616 18.043 159.645 18.9089L159.783 18.8944C160.261 18.1303 161.059 17.3792 162.176 16.6411C163.293 15.9029 164.727 15.442 166.477 15.258C168.103 15.087 169.626 15.2531 171.044 15.7555C172.463 16.2582 173.714 17.0189 174.799 18.0377C175.884 19.0565 176.766 20.2905 177.446 21.7396C178.126 23.1889 178.554 24.7577 178.732 26.4461ZM172.077 26.9127C171.997 26.1454 171.816 25.3884 171.536 24.6419C171.256 23.8954 170.868 23.2302 170.372 22.6462C169.876 22.0621 169.278 21.6128 168.578 21.2985C167.878 20.9841 167.067 20.8753 166.146 20.9722C165.225 21.0689 164.455 21.3439 163.835 21.7969C163.216 22.2499 162.724 22.8137 162.361 23.4882C161.997 24.1627 161.755 24.894 161.637 25.6822C161.518 26.4709 161.499 27.2485 161.579 28.0159C161.66 28.7834 161.847 29.5319 162.141 30.2614C162.435 30.9907 162.829 31.6399 163.324 32.2086C163.818 32.7774 164.415 33.2189 165.115 33.5333C165.816 33.8476 166.611 33.958 167.501 33.8644C168.391 33.7708 169.146 33.4976 169.766 33.0444C170.385 32.5916 170.878 32.0354 171.243 31.3763C171.608 30.7171 171.859 30.0003 171.995 29.2257C172.13 28.4512 172.158 27.6801 172.077 26.9127Z" fill="#00A2D9"/>
<path fill-rule="evenodd" clip-rule="evenodd" d="M152.851 36.4707C152.851 37.4584 152.558 38.2993 151.972 38.9939C151.385 39.6883 150.598 40.0356 149.611 40.0356C148.9 40.0356 148.26 39.8425 147.689 39.4568C147.118 39.0711 146.709 38.3535 146.462 37.3039C146.185 37.7669 145.806 38.1682 145.328 38.5077C144.85 38.8472 144.325 39.1327 143.754 39.3642C143.183 39.5957 142.589 39.7653 141.971 39.8734C141.354 39.9816 140.768 40.0356 140.212 40.0356C138.854 40.0356 137.612 39.8658 136.485 39.5262C135.359 39.1867 134.394 38.6852 133.592 38.0216C132.789 37.358 132.156 36.5247 131.693 35.5216C131.23 34.5184 130.999 33.3687 130.999 32.0725C130.999 30.1589 131.501 28.631 132.504 27.489C133.507 26.3468 134.765 25.475 136.277 24.8732C137.789 24.2712 139.433 23.8778 141.207 23.6926C142.982 23.5073 144.641 23.4149 146.185 23.4149V21.6091C146.185 20.9611 145.93 20.5058 145.421 20.2433C144.911 19.981 144.194 19.85 143.268 19.85C142.311 19.85 141.524 19.9656 140.907 20.1971C140.289 20.4285 139.757 20.6908 139.309 20.9841C138.862 21.2774 138.461 21.5397 138.106 21.7712C137.751 22.0027 137.357 22.1185 136.925 22.1185C135.876 22.1185 135.127 21.8174 134.68 21.2156C134.232 20.6138 134.008 19.9734 134.008 19.2943C134.008 18.6153 134.309 17.9748 134.911 17.373C135.513 16.7711 136.269 16.2387 137.18 15.7758C138.09 15.3127 139.086 14.9501 140.166 14.6878C141.246 14.4253 142.28 14.2942 143.268 14.2942C146.354 14.2942 148.723 14.9346 150.374 16.2155C152.026 17.4964 152.851 19.3406 152.851 21.7482V36.4707ZM146.462 28.4149C145.444 28.4149 144.402 28.4149 143.337 28.4149C142.272 28.4149 141.3 28.5151 140.421 28.7158C139.541 28.9165 138.815 29.2714 138.244 29.7807C137.674 30.2899 137.388 31.0537 137.388 32.0725C137.388 32.5354 137.504 32.9211 137.735 33.2298C137.967 33.5385 138.275 33.7854 138.661 33.9707C139.047 34.1557 139.479 34.287 139.958 34.3642C140.436 34.4412 140.922 34.4798 141.416 34.4798C143.175 34.4798 144.456 34.0479 145.259 33.1836C146.061 32.3193 146.462 31.0847 146.462 29.4796V28.4149Z" fill="#005797"/>
<path fill-rule="evenodd" clip-rule="evenodd" d="M130.781 28.7546C130.616 30.3202 130.202 31.8205 129.539 33.2562C128.876 34.6917 128.007 35.9502 126.931 37.0319C125.856 38.1138 124.605 38.9368 123.18 39.5009C121.756 40.0649 120.214 40.2599 118.557 40.0856C117.513 39.9758 116.482 39.6735 115.463 39.1786C114.445 38.6835 113.531 38.0056 112.721 37.1447L111.869 45.2482C111.753 46.3533 111.352 47.2112 110.668 47.8219C109.983 48.4329 109.149 48.6866 108.167 48.5832C107.185 48.4801 106.422 48.0587 105.879 47.3188C105.336 46.5789 105.123 45.6566 105.239 44.5514L108.152 16.8331C108.268 15.728 108.669 14.8701 109.354 14.2593C110.039 13.6485 110.872 13.3948 111.855 13.4979C112.775 13.5948 113.475 13.9553 113.952 14.5797C114.43 15.2041 114.729 15.9726 114.85 16.8854C115.571 15.937 116.533 15.2699 117.737 14.8845C118.942 14.4989 120.188 14.3739 121.478 14.5094C123.258 14.6966 124.776 15.2439 126.03 16.1517C127.285 17.0594 128.293 18.174 129.054 19.4955C129.815 20.8168 130.335 22.2913 130.614 23.9188C130.893 25.5466 130.948 27.1585 130.781 28.7546ZM124.179 27.7816C124.26 27.014 124.236 26.2123 124.106 25.3763C123.977 24.5403 123.731 23.7775 123.369 23.0877C123.007 22.3978 122.526 21.812 121.925 21.3297C121.324 20.8477 120.593 20.5614 119.734 20.4711C118.844 20.3775 118.056 20.4886 117.371 20.8048C116.686 21.1207 116.097 21.5629 115.602 22.1316C115.108 22.7004 114.712 23.365 114.415 24.1252C114.118 24.8853 113.928 25.6643 113.844 26.4625C113.76 27.2605 113.774 28.0844 113.887 28.9342C113.999 29.7839 114.235 30.5614 114.596 31.2665C114.956 31.9717 115.437 32.5653 116.038 33.0473C116.639 33.5296 117.4 33.819 118.321 33.9159C119.18 34.0062 119.953 33.8857 120.64 33.5544C121.326 33.223 121.918 32.7578 122.416 32.1583C122.913 31.5589 123.311 30.8791 123.608 30.1189C123.905 29.3588 124.095 28.5795 124.179 27.7816Z" fill="#00A2D9"/>
<path fill-rule="evenodd" clip-rule="evenodd" d="M106.209 27.2113C106.209 28.9397 105.924 30.5832 105.353 32.1419C104.782 33.7004 103.972 35.0664 102.922 36.2392C101.873 37.412 100.615 38.3379 99.1491 39.0171C97.6829 39.6961 96.0547 40.0356 94.2646 40.0356C92.4744 40.0356 90.8465 39.6961 89.3802 39.0171C87.9141 38.3379 86.6565 37.412 85.607 36.2392C84.5577 35.0664 83.7474 33.7004 83.1764 32.1419C82.6054 30.5832 82.3199 28.9397 82.3199 27.2113C82.3199 25.5136 82.613 23.8855 83.1996 22.3268C83.786 20.7681 84.6039 19.3947 85.6532 18.2063C86.7027 17.0181 87.9605 16.0689 89.4266 15.359C90.8927 14.6491 92.5054 14.2942 94.2646 14.2942C96.0239 14.2942 97.6366 14.6491 99.1027 15.359C100.569 16.0689 101.827 17.0181 102.876 18.2063C103.925 19.3947 104.743 20.7681 105.33 22.3268C105.916 23.8855 106.209 25.5136 106.209 27.2113ZM99.5426 27.2113C99.5426 26.4395 99.4422 25.6448 99.2416 24.8268C99.0411 24.0089 98.7246 23.2759 98.2924 22.6278C97.8603 21.9796 97.3125 21.4471 96.6489 21.0305C95.9855 20.6138 95.1907 20.4055 94.2646 20.4055C93.3387 20.4055 92.544 20.6138 91.8804 21.0305C91.2168 21.4471 90.6688 21.9796 90.2369 22.6278C89.8047 23.2759 89.4882 24.0089 89.2878 24.8268C89.0871 25.6448 88.9867 26.4395 88.9867 27.2113C88.9867 28.0136 89.0947 28.8162 89.3108 29.6187C89.5268 30.4211 89.8509 31.1388 90.2831 31.7714C90.7152 32.4042 91.2632 32.9211 91.9266 33.3225C92.5902 33.7236 93.3697 33.9243 94.2646 33.9243C95.1597 33.9243 95.9391 33.7236 96.6027 33.3225C97.2663 32.9211 97.8141 32.4042 98.2462 31.7714C98.6784 31.1388 99.0025 30.4211 99.2183 29.6187C99.4346 28.8162 99.5426 28.0136 99.5426 27.2113Z" fill="#005797"/>
<path fill-rule="evenodd" clip-rule="evenodd" d="M84.8706 35.7113C84.9642 36.6015 84.7433 37.3774 84.2076 38.0389C83.6719 38.7003 82.959 39.0779 82.0688 39.1713C81.4549 39.2358 80.8806 39.0866 80.3459 38.7239C79.8112 38.3612 79.2556 37.9464 78.6789 37.4794L69.411 29.4689L69.319 29.4788L70.0787 36.7077C70.1947 37.8127 69.9814 38.735 69.4385 39.4749C68.8956 40.2148 68.1329 40.6364 67.1507 40.7395C66.1684 40.8427 65.3347 40.589 64.6499 39.9782C63.965 39.3675 63.5645 38.5094 63.4484 37.4045L61.5319 19.1711C61.4159 18.0661 61.6292 17.1436 62.1721 16.4038C62.715 15.664 63.4777 15.2424 64.4599 15.1391C65.4422 15.036 66.2759 15.2897 66.9607 15.9005C67.6456 16.5113 68.0461 17.3692 68.1622 18.4742L68.8301 24.8283L75.4303 15.4293C75.8084 14.893 76.2692 14.4799 76.8129 14.19C77.3566 13.9 77.8433 13.7325 78.2731 13.6874C79.1019 13.6003 79.8102 13.844 80.3981 14.4184C80.9863 14.9927 81.319 15.6483 81.3964 16.385C81.4479 16.8761 81.3804 17.341 81.1938 17.7795C81.0071 18.2181 80.7369 18.6733 80.3829 19.145L74.6748 26.402L83.8098 33.5884C84.1828 33.8907 84.4434 34.228 84.591 34.6003C84.7388 34.9728 84.832 35.3429 84.8706 35.7113Z" fill="#00A2D9"/>
<path fill-rule="evenodd" clip-rule="evenodd" d="M8.05821 36.7933C8.68791 30.1944 12.7495 18.2771 1.20853 2.61104C-8.17683 -10.1293 40.5359 27.7574 29.3091 30.3491C19.3688 32.6435 17.4456 33.4472 10.0472 38.0181C8.49045 38.9801 7.88754 38.5799 8.05821 36.7933Z" fill="#EF7300"/>
<path fill-rule="evenodd" clip-rule="evenodd" d="M26.6023 36.6957C27.1398 31.065 30.6052 20.8961 20.7577 7.52871C12.7495 -3.34228 54.3151 28.9856 44.7355 31.197C36.2536 33.1549 34.6125 33.8407 28.2997 37.7409C26.9715 38.5617 26.457 38.2202 26.6023 36.6957Z" fill="#005B9B"/>
<path fill-rule="evenodd" clip-rule="evenodd" d="M40.1333 26.0612C40.4117 23.1423 42.2085 17.8705 37.1034 10.9406C32.9517 5.30498 54.4999 22.0643 49.5338 23.2108C45.1366 24.2256 44.2858 24.5811 41.0131 26.6031C40.3246 27.0287 40.0578 26.8516 40.1333 26.0612Z" fill="#005B9B"/>
<path fill-rule="evenodd" clip-rule="evenodd" d="M54.8067 34.187C53.9434 43.5451 46.8947 48.2299 43.5204 49.5581C42.5433 48.7506 41.4939 47.2966 40.1427 47.2855C39.0557 47.2764 37.9748 48.4458 37.9748 48.4458C37.9748 48.4458 36.8857 49.5903 35.8067 49.5981C34.7277 49.6057 33.6367 48.4296 33.6367 48.4296C33.6367 48.4296 32.4974 47.2867 31.4198 47.2859C30.342 47.2853 29.2778 48.4271 29.2778 48.4271C29.2778 48.4271 28.1821 49.5691 27.1043 49.5683C26.0265 49.5677 24.9192 48.4413 24.9192 48.4413C24.9192 48.4413 23.7956 47.2647 22.7178 47.2639C21.6402 47.2635 20.5446 48.4386 20.5446 48.4386C20.5446 48.4386 19.4806 49.5806 18.3871 49.58C17.2933 49.5794 16.2016 48.4193 16.2016 48.4193C16.2016 48.4193 15.1103 47.2705 13.9995 47.2783C12.8889 47.2861 11.8551 48.422 11.8551 48.422C11.8551 48.422 10.7741 49.5747 9.68707 49.5741C8.60021 49.5736 7.49924 48.4109 7.49924 48.4109C6.94411 47.8333 5.80019 47.2212 4.99551 47.2327C5.39319 46.0862 5.57332 45.3197 5.74586 45.1348C5.8938 44.9532 51.8395 33.1129 54.8067 34.187Z" fill="#005B9B"/>
</svg>
