<svg width="160" height="24" viewBox="0 0 160 24" fill="none" xmlns="http://www.w3.org/2000/svg">
<path d="M47 18C46.9521 14.5574 46.5449 10.5852 46.2096 7.76852C45.994 6.03519 45.2275 5 43.5269 5H42.8563C42.3054 5.5537 41.5629 6.70926 41.0599 7.98519C40.4132 9.62222 39.6228 11.9093 39.024 13.6907C38.7126 12.9685 38.5928 12.1981 38.3293 11.4519C37.515 9.06852 36.5808 5 33.491 5H32.3174C31.7186 7.88889 31 12.6074 31 16.0981C31 17.3019 31.9341 18 32.9401 18H34.1617C34.1617 15.6889 34.4012 11.7889 34.7126 9.09259C35.3353 10.513 36.1018 13.2333 36.509 14.4611C37.4192 17.1574 38.1856 18 39.2635 18H39.9581C40.8683 16.2667 42.0898 12.4148 42.5449 11.0185C42.8084 10.2481 43.0479 9.62222 43.2395 9.14074C43.4551 11.1389 43.6707 14.7981 43.6707 16.0981C43.6707 17.3741 44.4371 18 45.6108 18H47Z" fill="#4A3F4B"/>
<path d="M60 14.1664V11.0608C60 6.4025 57.3423 5 54.3893 5C50.8949 5 49.566 6.80322 49.566 8.3059V9.38283H49.689C50.1812 8.75671 51.5101 7.83005 53.8971 7.83005C55.8658 7.83005 56.7517 8.40608 56.7517 10.3095V10.4848H55.5951C50.7226 10.4848 49 12.3131 49 14.7174C49 17.1968 51.1655 19 54.3154 19H54.9799C57.9329 19 60 17.0215 60 14.1664ZM56.7763 14.1914C56.7763 15.5689 56.0872 16.2701 54.66 16.2701C53.2081 16.2701 52.3714 15.644 52.3714 14.5921C52.3714 13.4902 53.085 12.8891 55.5951 12.8891H56.7763V14.1914Z" fill="#4A3F4B"/>
<path d="M72 5.91481V5H62.1339C60.8033 5 60 5.91481 60 6.82963V7.6963H64.3431V15.6889C64.3431 17.2056 65.272 18 66.8787 18H67.7071V7.6963H69.7155C71.1213 7.6963 72 6.80556 72 5.91481Z" fill="#4A3F4B"/>
<path d="M84 14.0962C84 11.2505 81.8967 9.09075 78.778 9.09075C77.7868 9.09075 76.6989 9.5735 76.2396 9.853V7.4392C76.2396 5.83848 75.4418 5 73.556 5H73V14.3757C73 18.1361 75.9978 19 78.5846 19C81.9692 19 84 16.9673 84 14.0962ZM80.7121 14.02C80.7121 15.4936 79.8901 16.3067 78.6088 16.3067C77.5451 16.3067 76.2396 15.7985 76.2396 14.4773V12.3684C76.7231 12.1143 77.4484 11.7078 78.2703 11.7078C79.6484 11.7078 80.7121 12.5717 80.7121 14.02Z" fill="#4A3F4B"/>
<path d="M102 18.2066V7.45704C102 5.84461 101.234 5 99.4241 5H98.8903V15.8263C98.519 15.9287 97.8228 16.0823 96.9873 16.0823C95.1076 16.0823 94.1097 15.0841 94.1097 12.6782V7.45704C94.1097 5.84461 93.3439 5 91.5338 5H91V12.5503C91 16.8501 92.9262 19 97.1498 19C99.0759 19 100.956 18.5649 102 18.2066Z" fill="#4A3F4B"/>
<path d="M122 17V10.8264C122 7.05785 120.056 5 116.672 5C112.352 5 110 8.07438 110 11.5455C110 15.2893 112.472 17.1488 115.64 17.1488C117.296 17.1488 118.376 16.1322 118.784 15.0661V16.9256C118.784 19.0083 117.464 20.0248 115.448 20.0248C113.312 20.0248 112.088 19.5289 111.224 18.6859H111.056V19.9752C111.056 21.6364 112.76 23 115.568 23C119.288 23 122 20.7686 122 17ZM118.64 11.0496C118.64 13.1818 117.488 14.4215 115.88 14.4215C114.344 14.4215 113.312 13.1322 113.312 11.3967C113.312 9.38843 114.56 7.95041 116.216 7.95041C117.632 7.95041 118.64 8.96694 118.64 11.0496Z" fill="#4A3F4B"/>
<path d="M136 18.2066V7.45704C136 5.84461 135.165 5 133.19 5H132.608V15.8263C132.203 15.9287 131.443 16.0823 130.532 16.0823C128.481 16.0823 127.392 15.0841 127.392 12.6782V7.45704C127.392 5.84461 126.557 5 124.582 5H124V12.5503C124 16.8501 126.101 19 130.709 19C132.81 19 134.861 18.5649 136 18.2066Z" fill="#4A3F4B"/>
<path d="M148 5.91481V5H138.956C137.736 5 137 5.91481 137 6.82963V7.6963H140.981V15.6889C140.981 17.2056 141.833 18 143.305 18H144.065V7.6963H145.906C147.195 7.6963 148 6.80556 148 5.91481Z" fill="#4A3F4B"/>
<path d="M160 18.8492V5.90485C158.734 5.40215 156.398 5 154.475 5C151.529 5 149.071 6.28187 149.071 9.19749C149.071 11.2837 150.507 12.6912 151.7 12.8671C150.775 13.1436 150.142 14.4004 149.874 15.0287C149.631 15.6571 148.609 17.7935 148 18.3465V18.5978C148.389 18.8492 149.46 19 149.972 19C151.968 19 152.454 17.2657 153.16 15.5063C153.647 14.2998 154.353 14.1239 154.937 14.0233C155.521 13.9479 156.349 13.8725 156.787 13.8223V16.4363C156.787 18.0197 157.688 18.8492 159.245 18.8492H160ZM156.787 11.3088C156.178 11.3842 155.254 11.4345 154.694 11.4345C153.404 11.4345 152.406 10.7056 152.406 9.52424C152.406 7.78995 153.647 7.73968 154.961 7.73968C155.424 7.73968 156.519 7.91562 156.787 7.99102V11.3088Z" fill="#4A3F4B"/>
<path d="M14.1346 14.5382C16.0621 14.6893 18.7663 14.0636 20.6506 12.9128L20.6722 12.9056C20.5643 12.5029 20.0825 11.9347 19.6509 11.6183C19.0684 11.1867 18.3995 10.9997 17.9104 11.1652C17.443 11.3306 17.2488 11.7765 17.3351 12.3303C17.3423 12.3734 17.3495 12.4238 17.3638 12.4669C17.4358 12.7834 17.256 12.5604 17.2344 12.4597C17.2128 12.4166 17.1984 12.3662 17.184 12.3231C16.9683 11.6758 17.1337 11.1148 17.6659 10.9134C18.1766 10.7192 18.8886 10.9134 19.5071 11.3593C19.3992 11.1364 19.3129 10.8847 19.2482 10.6114C19.1331 10.0792 19.1691 9.54694 19.1547 9.02911C19.1187 7.79207 18.4858 6.77799 17.0618 6.86429C16.3641 6.90744 15.76 7.33897 15.4292 8.00783C15.2278 8.32428 14.638 8.3099 14.5949 8.42497C14.5517 8.51847 14.9042 8.75581 15.0983 8.98595C15.3932 9.33837 15.3429 9.82743 15.2206 10.1942C14.8466 11.273 13.0486 12.7834 14.1346 14.5382ZM16.7309 7.98625C16.8964 7.97906 17.033 8.10852 17.033 8.26675C17.033 8.42497 16.8964 8.56162 16.7309 8.56881C16.5655 8.57601 16.4289 8.44655 16.4289 8.28832C16.4217 8.12291 16.5583 7.98625 16.7309 7.98625ZM11.6677 20.7666C16.5583 21.3276 20.6722 18.7384 21.6431 17.6165C20.1184 20.6515 16.1915 22.9674 12.3869 23.1112C3.591 23.3629 -1.2205 14.6317 1.39022 12.1792C1.95121 11.6542 2.79268 11.46 3.69888 11.4816C5.6839 11.5463 7.42438 12.7043 9.3159 13.668C11.6749 14.8763 13.962 15.2718 16.6662 14.7828C19.6294 14.2506 21.8805 12.8625 23.8367 10.7696C24.11 11.7909 23.0024 13.5745 22.4271 14.1067C18.9389 17.336 13.0702 18.0839 8.93472 16.7894C8.60388 16.6599 8.56073 16.9188 8.92753 17.0195C15.4364 19.1699 21.0534 16.365 23.0096 14.0132C23.2614 18.3285 15.6953 20.9176 11.5886 20.5868C11.3081 20.6587 11.4879 20.7666 11.6677 20.7666ZM1.51968 11.2443C2.36116 10.7121 3.31051 10.6401 4.28863 10.8487C7.39562 11.5176 9.56763 13.9845 12.9839 14.4376C11.8979 11.9922 8.57512 11.8628 8.35216 9.61886C8.22271 8.33147 9.09295 7.43966 10.4594 7.47562C11.0852 7.49 11.6246 7.70576 12.2143 7.89276C12.4804 7.97906 12.6962 8.02941 12.7465 7.97187C12.9048 7.77049 12.0417 6.95059 12.4373 6.47592C14.0411 4.57001 14.0195 2.17505 12.2215 0.822937C10.4666 -0.500407 8.07886 -0.0904572 6.00754 1.08185C5.27395 1.24008 4.35336 1.26885 3.57662 1.12501C3.52627 1.11062 3.5047 1.16097 3.54066 1.18974C3.87149 1.44865 4.29583 1.72195 4.76331 1.90175C1.94401 3.84361 0.383331 7.42527 0.160376 9.55413C-0.0625784 11.7405 0.0237276 12.7115 0.383332 14.2146C0.383332 13.0711 0.606287 11.8268 1.51968 11.2443ZM10.855 4.89366C11.1139 4.88647 11.3153 5.08065 11.3153 5.32518C11.3153 5.57691 11.1067 5.77828 10.8478 5.79267C10.5889 5.79986 10.3875 5.60568 10.3875 5.36114C10.3947 5.10942 10.6033 4.90085 10.855 4.89366Z" fill="#E14000"/>
</svg>
