<?xml version="1.0" encoding="UTF-8" standalone="no"?>
<svg
   xmlns:dc="http://purl.org/dc/elements/1.1/"
   xmlns:cc="http://creativecommons.org/ns#"
   xmlns:rdf="http://www.w3.org/1999/02/22-rdf-syntax-ns#"
   xmlns:svg="http://www.w3.org/2000/svg"
   xmlns="http://www.w3.org/2000/svg"
   viewBox="0 0 1090.6934 199.98666"
   height="199.98666"
   width="1090.6934"
   xml:space="preserve"
   id="svg2"
   version="1.1"><metadata
     id="metadata8"><rdf:RDF><cc:Work
         rdf:about=""><dc:format>image/svg+xml</dc:format><dc:type
           rdf:resource="http://purl.org/dc/dcmitype/StillImage" /></cc:Work></rdf:RDF></metadata><defs
     id="defs6" /><g
     transform="matrix(1.3333333,0,0,-1.3333333,0,199.98667)"
     id="g10"><g
       transform="scale(0.1)"
       id="g12"><path
         id="path14"
         style="fill:#d90782;fill-opacity:1;fill-rule:nonzero;stroke:none"
         d="m 860.141,1432 c -0.453,3.47 -2.567,6.49 -5.688,8.06 -93.578,46.86 -195.711,53.85 -248.242,53.85 C 271.945,1493.91 0,1225.18 0,894.844 0,603.563 223.598,289.191 584.805,289.191 c 112.922,0 205.054,29.137 262.465,53.59 3.488,1.469 5.878,4.688 6.32,8.438 l 16.465,143.453 c 0.457,4.18 -1.594,8.234 -5.274,10.316 -3.668,2.055 -8.187,1.735 -11.523,-0.816 C 768.59,438.91 672.691,415.66 611.137,415.66 c -260.09,0 -471.723,211.266 -471.723,470.942 0,238.948 159.785,480.838 465.168,480.838 95.848,0 182.297,-29.23 256.902,-86.87 1.879,-1.44 4.125,-2.17 6.395,-2.17 0.141,-0.01 0.277,-0.03 0.394,0 5.805,0 10.469,4.68 10.469,10.48 0,1.48 -0.308,2.91 -0.855,4.19 L 860.141,1432" /><path
         id="path16"
         style="fill:#d90782;fill-opacity:1;fill-rule:nonzero;stroke:none"
         d="m 1251.1,754.031 335.85,356.409 c 2.13,2.27 3.12,5.38 2.7,8.46 -0.4,3.06 -2.23,5.79 -4.91,7.42 l -77.78,47.31 c -4.31,2.61 -9.97,1.86 -13.36,-1.9 L 1137.69,780.477 v 384.333 c 0,3.09 -1.42,6.03 -3.81,8 -2.45,1.96 -5.66,2.76 -8.75,2.17 l -100.97,-19.58 c -4.97,-0.95 -8.51,-5.22 -8.51,-10.17 V 306.809 c 0,-3.09 1.41,-6.02 3.84,-8 2.43,-1.981 5.61,-2.77 8.73,-2.161 l 100.98,19.551 c 4.95,0.973 8.49,5.242 8.49,10.192 v 385.797 l 412.49,-412.649 c 2.05,-2.051 4.8,-3.09 7.51,-3.09 2.5,0 4.97,0.852 6.98,2.602 l 71.21,61.98 c 2.15,1.891 3.46,4.598 3.54,7.449 0.09,2.872 -1.02,5.641 -3.1,7.68 L 1251.1,754.031" /><path
         id="path18"
         style="fill:#d90782;fill-opacity:1;fill-rule:nonzero;stroke:none"
         d="m 2089.25,408.531 c -170.96,0 -315.43,149.871 -315.43,327.274 0,180.472 141.53,327.285 315.43,327.285 173.91,0 315.43,-146.813 315.43,-327.285 0,-180.453 -141.52,-327.274 -315.43,-327.274 z m 0,766.649 c -242.25,0 -439.37,-197.106 -439.37,-439.375 0,-242.254 197.12,-439.356 439.37,-439.356 242.28,0 439.36,197.102 439.36,439.356 0,242.269 -197.08,439.375 -439.36,439.375" /><path
         id="path20"
         style="fill:#d90782;fill-opacity:1;fill-rule:nonzero;stroke:none"
         d="m 3076.16,1068.05 c 192.68,0 327.25,-138.663 327.25,-337.218 0,-186.555 -136.41,-327.262 -317.34,-327.262 -160.57,0 -333.88,125.129 -333.88,327.262 0,185.953 145.32,337.218 323.97,337.218 z m 13.23,113.79 c -141.86,0 -260.67,-61.49 -337.2,-173.76 v 163.23 c 0,3.17 -1.44,6.17 -3.88,8.16 -2.45,2.01 -5.68,2.76 -8.8,2.14 l -94.4,-19.88 c -4.88,-1.02 -8.36,-5.32 -8.36,-10.3 V 10.5391 c 0,-3.14847 1.42,-6.14066 3.84,-8.14066 C 2642.49,0.828125 2644.85,0 2647.27,0 c 0.69,0 1.37,0.0585938 2.04,0.199219 L 2750.32,20.0781 c 4.91,0.9805 8.48,5.3125 8.48,10.3438 V 447.012 c 109.53,-141.422 272.04,-157.223 338.88,-157.223 245.77,0 431.1,191.75 431.1,446.016 0,262.625 -180.66,446.035 -439.39,446.035" /><path
         id="path22"
         style="fill:#d90782;fill-opacity:1;fill-rule:nonzero;stroke:none"
         d="m 4021.68,408.531 c -170.98,0 -315.43,149.871 -315.43,327.274 0,180.472 141.5,327.285 315.43,327.285 173.91,0 315.4,-146.813 315.4,-327.285 0,-180.453 -141.49,-327.274 -315.4,-327.274 z m 0,766.649 c -242.27,0 -439.39,-197.106 -439.39,-439.375 0,-242.254 197.12,-439.356 439.39,-439.356 242.27,0 439.35,197.102 439.35,439.356 0,242.269 -197.08,439.375 -439.35,439.375" /><path
         id="path24"
         style="fill:#d90782;fill-opacity:1;fill-rule:nonzero;stroke:none"
         d="m 5498.23,1498.28 h -4.97 c -4.28,0 -8.11,-2.59 -9.74,-6.54 L 5107.81,582.543 4720.7,1493.48 c -1.65,3.91 -5.47,6.45 -9.7,6.45 h -4.94 c -5.04,0 -9.37,-3.57 -10.33,-8.54 L 4472.45,328.961 c -1.08,-5.531 2.41,-10.922 7.87,-12.223 l 110.81,-26.488 c 2.8,-0.672 5.75,-0.16 8.19,1.43 2.43,1.601 4.07,4.09 4.6,6.968 l 144.1,806.392 348.56,-806.149 c 1.67,-3.891 5.48,-6.403 9.7,-6.403 0.01,0 0.01,0 0.04,0 4.22,0.012 8.03,2.571 9.65,6.481 L 5459.62,1113 5606.94,298.621 c 0.52,-2.871 2.21,-5.391 4.65,-6.961 2.46,-1.57 5.43,-2.129 8.25,-1.371 l 105.86,26.481 c 5.42,1.351 8.83,6.718 7.78,12.21 l -224.91,1160.77 c -0.98,4.95 -5.32,8.53 -10.34,8.53" /><path
         id="path26"
         style="fill:#d90782;fill-opacity:1;fill-rule:nonzero;stroke:none"
         d="m 6281.37,598.797 c 0,-94.539 -74.32,-190.266 -216.34,-190.266 -142.94,0 -208.05,104.551 -208.05,201.692 0,91.3 68.07,183.726 198.11,183.726 155.47,0 226.28,-101.152 226.28,-195.152 z m -189.84,576.383 c -71.25,0 -149.34,-15.04 -232.14,-44.67 -2.97,-1.07 -5.29,-3.4 -6.33,-6.34 l -41.4,-117.46 c -1.35,-3.86 -0.3,-8.132 2.73,-10.944 3.04,-2.809 7.44,-3.618 11.26,-2.032 l 47.91,19.546 c 83.96,33.51 154.15,49.81 214.64,49.81 112.57,0 188.2,-58.75 188.2,-146.227 V 816.246 c -56.91,57.32 -138.7,89.785 -227.91,89.785 -157.49,0 -316.88,-103.851 -316.88,-302.347 0,-201.704 159.39,-307.235 316.88,-307.235 58.87,0 163.82,13.801 232.88,101.879 v -91.519 c 0,-3.098 1.4,-6.071 3.87,-8.028 2.5,-1.98 5.67,-2.742 8.82,-2.121 l 95.98,19.559 c 4.9,1 8.41,5.25 8.41,10.172 v 580.687 c 0,80.602 -29.9,268.102 -306.92,268.102" /><path
         id="path28"
         style="fill:#d90782;fill-opacity:1;fill-rule:nonzero;stroke:none"
         d="m 7320.48,1167.14 c -1.1,4.7 -5.35,8.04 -10.26,8.04 h -13.23 c -4.1,0 -7.85,-2.36 -9.58,-6.02 l -292,-621.418 -308.25,621.618 c -1.76,3.55 -5.43,5.82 -9.48,5.82 h -13.22 c -4.92,0 -9.18,-3.34 -10.28,-8.04 L 6457.14,328.719 c -0.64,-2.731 -0.11,-5.598 1.42,-7.949 1.53,-2.372 3.99,-4 6.79,-4.551 l 99.35,-19.559 c 0.68,-0.148 1.37,-0.211 2.06,-0.211 4.89,0 9.27,3.36 10.28,8.242 l 122.12,574.797 277.03,-577.109 c 1.73,-3.629 5.44,-5.93 9.5,-5.93 h 4.99 c 4.11,0 7.84,2.352 9.56,6.031 l 270.57,576.997 126.82,-574.856 c 1.21,-5.543 6.94,-9.051 12.35,-7.961 l 99.37,19.559 c 2.79,0.551 5.23,2.179 6.78,4.551 1.52,2.351 2.06,5.218 1.4,7.949 l -197.05,838.421" /><path
         id="path30"
         style="fill:#d90782;fill-opacity:1;fill-rule:nonzero;stroke:none"
         d="m 8063.11,598.797 c 0,-94.539 -74.33,-190.266 -216.34,-190.266 -142.95,0 -208.04,104.551 -208.04,201.692 0,91.3 68.04,183.726 198.09,183.726 155.45,0 226.29,-101.152 226.29,-195.152 z m -189.83,576.383 c -71.27,0 -149.36,-15.04 -232.13,-44.67 -2.99,-1.07 -5.31,-3.4 -6.36,-6.34 l -41.4,-117.46 c -1.35,-3.86 -0.27,-8.132 2.75,-10.944 3.03,-2.809 7.47,-3.618 11.24,-2.032 l 47.94,19.546 c 83.94,33.51 154.12,49.81 214.65,49.81 112.53,0 188.17,-58.75 188.17,-146.227 V 816.246 c -56.92,57.32 -138.71,89.785 -227.91,89.785 -157.46,0 -316.89,-103.851 -316.89,-302.347 0,-201.704 159.43,-307.235 316.89,-307.235 58.88,0 163.81,13.801 232.88,101.879 v -91.519 c 0,-3.098 1.41,-6.071 3.9,-8.028 2.42,-1.98 5.68,-2.742 8.76,-2.121 l 96.02,19.559 c 4.88,1 8.4,5.25 8.4,10.172 v 580.687 c 0,80.602 -29.91,268.102 -306.91,268.102" /></g></g></svg>